CSLSans-LightItalic.ufo
<glyph name="exclam" format="2">
  <advance width="262"/>
  <unicode hex="0021"/>
  <outline>
    <contour>
      <point x="102" y="181" type="line"/>
      <point x="143" y="463" type="line"/>
      <point x="189" y="698" type="line"/>
      <point x="249" y="698" type="line"/>
      <point x="202" y="463" type="line"/>
      <point x="130" y="181" type="line"/>
    </contour>
    <contour>
      <point x="83" y="-9" type="qcurve"/>
      <point x="42" y="-8"/>
      <point x="42" y="23" type="qcurve" smooth="yes"/>
      <point x="42" y="40"/>
      <point x="46" y="51" type="qcurve"/>
      <point x="52" y="92"/>
      <point x="96" y="92" type="qcurve" smooth="yes"/>
      <point x="137" y="92"/>
      <point x="137" y="60" type="qcurve" smooth="yes"/>
      <point x="137" y="43"/>
      <point x="133" y="32" type="qcurve"/>
      <point x="127" y="-9"/>
    </contour>
  </outline>
</glyph>
<glyph name="numbersign" format="2">
  <advance width="692"/>
  <unicode hex="0023"/>
  <outline>
    <contour>
      <point x="306" y="0" type="line"/>
      <point x="385" y="211" type="line"/>
      <point x="231" y="211" type="line"/>
      <point x="153" y="0" type="line"/>
      <point x="104" y="0" type="line"/>
      <point x="182" y="211" type="line"/>
      <point x="46" y="211" type="line"/>
      <point x="55" y="254" type="line"/>
      <point x="198" y="254" type="line"/>
      <point x="267" y="444" type="line"/>
      <point x="131" y="444" type="line"/>
      <point x="140" y="487" type="line"/>
      <point x="283" y="487" type="line"/>
      <point x="362" y="698" type="line"/>
      <point x="411" y="698" type="line"/>
      <point x="332" y="487" type="line"/>
      <point x="486" y="487" type="line"/>
      <point x="564" y="698" type="line"/>
      <point x="613" y="698" type="line"/>
      <point x="535" y="487" type="line"/>
      <point x="671" y="487" type="line"/>
      <point x="662" y="444" type="line"/>
      <point x="519" y="444" type="line"/>
      <point x="450" y="254" type="line"/>
      <point x="586" y="254" type="line"/>
      <point x="577" y="211" type="line"/>
      <point x="434" y="211" type="line"/>
      <point x="355" y="0" type="line"/>
    </contour>
    <contour>
      <point x="470" y="444" type="line"/>
      <point x="316" y="444" type="line"/>
      <point x="247" y="254" type="line"/>
      <point x="401" y="254" type="line"/>
    </contour>
  </outline>
</glyph>
<glyph name="dollar" format="2">
  <advance width="562"/>
  <unicode hex="0024"/>
  <outline>
    <contour>
      <point x="317" y="376" type="line"/>
      <point x="357" y="358"/>
      <point x="386" y="342" type="qcurve"/>
      <point x="429" y="316"/>
      <point x="452" y="277" type="qcurve" smooth="yes"/>
      <point x="474" y="240"/>
      <point x="474" y="194" type="qcurve" smooth="yes"/>
      <point x="474" y="101"/>
      <point x="353" y="0"/>
      <point x="252" y="0" type="qcurve" smooth="yes"/>
      <point x="242" y="0" type="line"/>
      <point x="225" y="-82" type="line"/>
      <point x="182" y="-82" type="line"/>
      <point x="199" y="4" type="line"/>
      <point x="87" y="21"/>
      <point x="18" y="115" type="qcurve"/>
      <point x="61" y="151" type="line"/>
      <point x="96" y="102"/>
      <point x="143" y="77" type="qcurve"/>
      <point x="172" y="60"/>
      <point x="209" y="54" type="qcurve"/>
      <point x="266" y="338" type="line"/>
      <point x="223" y="357"/>
      <point x="193" y="373" type="qcurve" smooth="yes"/>
      <point x="151" y="395"/>
      <point x="129" y="429" type="qcurve" smooth="yes"/>
      <point x="100" y="475"/>
      <point x="100" y="521" type="qcurve" smooth="yes"/>
      <point x="100" y="581"/>
      <point x="157" y="660"/>
      <point x="256" y="698"/>
      <point x="318" y="698" type="qcurve" smooth="yes"/>
      <point x="328" y="698"/>
      <point x="338" y="697" type="qcurve"/>
      <point x="355" y="780" type="line"/>
      <point x="399" y="780" type="line"/>
      <point x="381" y="692" type="line"/>
      <point x="477" y="674"/>
      <point x="531" y="595" type="qcurve"/>
      <point x="488" y="563" type="line"/>
      <point x="445" y="625"/>
      <point x="371" y="641" type="qcurve"/>
    </contour>
    <contour>
      <point x="277" y="393" type="qcurve"/>
      <point x="328" y="647" type="line"/>
      <point x="315" y="647" type="line" smooth="yes"/>
      <point x="252" y="647"/>
      <point x="170" y="598"/>
      <point x="160" y="549" type="qcurve"/>
      <point x="157" y="528"/>
      <point x="157" y="518" type="qcurve" smooth="yes"/>
      <point x="157" y="442"/>
      <point x="271" y="396" type="qcurve"/>
      <point x="274" y="395"/>
    </contour>
    <contour>
      <point x="252" y="51" type="line"/>
      <point x="254" y="51" type="line" smooth="yes"/>
      <point x="321" y="51"/>
      <point x="404" y="108"/>
      <point x="414" y="164" type="qcurve"/>
      <point x="416" y="183"/>
      <point x="416" y="198" type="qcurve" smooth="yes"/>
      <point x="416" y="276"/>
      <point x="306" y="321" type="qcurve"/>
    </contour>
  </outline>
</glyph>
<glyph name="ampersand" format="2">
  <advance width="673"/>
  <unicode hex="0026"/>
  <outline>
    <contour>
      <point x="231" y="37" type="qcurve" smooth="yes"/>
      <point x="342" y="37"/>
      <point x="419" y="135" type="qcurve"/>
      <point x="264" y="341" type="line"/>
      <point x="191" y="306"/>
      <point x="151" y="270" type="qcurve" smooth="yes"/>
      <point x="97" y="223"/>
      <point x="97" y="151" type="qcurve" smooth="yes"/>
      <point x="97" y="94"/>
      <point x="168" y="37"/>
    </contour>
    <contour>
      <point x="285" y="399" type="qcurve"/>
      <point x="373" y="440"/>
      <point x="467" y="519"/>
      <point x="467" y="576" type="qcurve" smooth="yes"/>
      <point x="467" y="618"/>
      <point x="416" y="663"/>
      <point x="371" y="663" type="qcurve" smooth="yes"/>
      <point x="319" y="663"/>
      <point x="251" y="603"/>
      <point x="241" y="555" type="qcurve"/>
      <point x="240" y="543"/>
      <point x="236" y="528"/>
      <point x="236" y="520" type="qcurve" smooth="yes"/>
      <point x="236" y="466"/>
    </contour>
    <contour>
      <point x="220" y="-12" type="qcurve" smooth="yes"/>
      <point x="135" y="-12"/>
      <point x="42" y="72"/>
      <point x="42" y="145" type="qcurve" smooth="yes"/>
      <point x="42" y="223"/>
      <point x="147" y="334"/>
      <point x="238" y="377" type="qcurve"/>
      <point x="183" y="447"/>
      <point x="183" y="517" type="qcurve" smooth="yes"/>
      <point x="183" y="591"/>
      <point x="286" y="710"/>
      <point x="376" y="710" type="qcurve" smooth="yes"/>
      <point x="438" y="710"/>
      <point x="522" y="644"/>
      <point x="522" y="584" type="qcurve" smooth="yes"/>
      <point x="522" y="514"/>
      <point x="408" y="411"/>
      <point x="311" y="364" type="qcurve"/>
      <point x="450" y="180" type="line"/>
      <point x="496" y="262"/>
      <point x="517" y="361" type="qcurve"/>
      <point x="641" y="361" type="line"/>
      <point x="630" y="312" type="line"/>
      <point x="553" y="312" type="line"/>
      <point x="527" y="215"/>
      <point x="479" y="139" type="qcurve"/>
      <point x="584" y="0" type="line"/>
      <point x="521" y="0" type="line"/>
      <point x="448" y="97" type="line"/>
      <point x="403" y="46"/>
      <point x="287" y="-12"/>
    </contour>
  </outline>
</glyph>
<glyph name="asterisk" format="2">
  <advance width="417"/>
  <unicode hex="002A"/>
  <outline>
    <contour>
      <point x="116" y="434" type="line"/>
      <point x="234" y="557" type="line"/>
      <point x="99" y="598" type="line"/>
      <point x="121" y="645" type="line"/>
      <point x="252" y="593" type="line"/>
      <point x="279" y="747" type="line"/>
      <point x="328" y="747" type="line"/>
      <point x="295" y="593" type="line"/>
      <point x="443" y="644" type="line"/>
      <point x="452" y="598" type="line"/>
      <point x="300" y="554" type="line"/>
      <point x="368" y="433" type="line"/>
      <point x="327" y="405" type="line"/>
      <point x="264" y="533" type="line"/>
      <point x="154" y="402" type="line"/>
    </contour>
  </outline>
</glyph>
<glyph name="period" format="2">
  <advance width="300"/>
  <unicode hex="002E"/>
  <outline>
    <contour>
      <point x="94" y="-9" type="qcurve"/>
      <point x="53" y="-8"/>
      <point x="53" y="23" type="qcurve" smooth="yes"/>
      <point x="53" y="40"/>
      <point x="57" y="51" type="qcurve"/>
      <point x="63" y="92"/>
      <point x="107" y="92" type="qcurve" smooth="yes"/>
      <point x="148" y="92"/>
      <point x="148" y="60" type="qcurve" smooth="yes"/>
      <point x="148" y="43"/>
      <point x="144" y="32" type="qcurve"/>
      <point x="138" y="-9"/>
    </contour>
  </outline>
</glyph>
<glyph name="zero" format="2">
  <advance width="600"/>
  <unicode hex="0030"/>
  <outline>
    <contour>
      <point x="261" y="39" type="qcurve" smooth="yes"/>
      <point x="341" y="39"/>
      <point x="450" y="176"/>
      <point x="474" y="296" type="qcurve" smooth="yes"/>
      <point x="492" y="383" type="line" smooth="yes"/>
      <point x="502" y="436"/>
      <point x="502" y="482" type="qcurve" smooth="yes"/>
      <point x="502" y="659"/>
      <point x="369" y="659" type="qcurve" smooth="yes"/>
      <point x="287" y="659"/>
      <point x="180" y="522"/>
      <point x="156" y="402" type="qcurve" smooth="yes"/>
      <point x="138" y="315" type="line" smooth="yes"/>
      <point x="128" y="263"/>
      <point x="128" y="216" type="qcurve" smooth="yes"/>
      <point x="128" y="39"/>
    </contour>
    <contour>
      <point x="255" y="-12" type="qcurve" smooth="yes"/>
      <point x="162" y="-12"/>
      <point x="71" y="114"/>
      <point x="71" y="224" type="qcurve" smooth="yes"/>
      <point x="71" y="328"/>
      <point x="102" y="443" type="qcurve" smooth="yes"/>
      <point x="134" y="554"/>
      <point x="201" y="631" type="qcurve"/>
      <point x="274" y="710"/>
      <point x="375" y="710" type="qcurve" smooth="yes"/>
      <point x="468" y="710"/>
      <point x="559" y="584"/>
      <point x="559" y="474" type="qcurve" smooth="yes"/>
      <point x="559" y="371"/>
      <point x="528" y="255" type="qcurve" smooth="yes"/>
      <point x="497" y="144"/>
      <point x="429" y="68" type="qcurve" smooth="yes"/>
      <point x="356" y="-12"/>
    </contour>
  </outline>
</glyph>
<glyph name="nine" format="2">
  <advance width="600"/>
  <unicode hex="0039"/>
  <outline>
    <contour>
      <point x="129" y="0" type="line"/>
      <point x="404" y="159"/>
      <point x="479" y="377" type="qcurve"/>
      <point x="475" y="378" type="line"/>
      <point x="413" y="271"/>
      <point x="297" y="271" type="qcurve" smooth="yes"/>
      <point x="215" y="271"/>
      <point x="116" y="368"/>
      <point x="116" y="453" type="qcurve" smooth="yes"/>
      <point x="116" y="563"/>
      <point x="258" y="710"/>
      <point x="366" y="710" type="qcurve" smooth="yes"/>
      <point x="462" y="710"/>
      <point x="558" y="603"/>
      <point x="558" y="509" type="qcurve" smooth="yes"/>
      <point x="558" y="361"/>
      <point x="455" y="216" type="qcurve" smooth="yes"/>
      <point x="355" y="80"/>
      <point x="212" y="0" type="qcurve"/>
    </contour>
    <contour>
      <point x="311" y="322" type="qcurve" smooth="yes"/>
      <point x="386" y="322"/>
      <point x="480" y="408"/>
      <point x="495" y="477" type="qcurve"/>
      <point x="500" y="507"/>
      <point x="500" y="523" type="qcurve" smooth="yes"/>
      <point x="500" y="586"/>
      <point x="431" y="658"/>
      <point x="363" y="658" type="qcurve" smooth="yes"/>
      <point x="288" y="658"/>
      <point x="194" y="572"/>
      <point x="179" y="503" type="qcurve"/>
      <point x="174" y="474"/>
      <point x="174" y="457" type="qcurve" smooth="yes"/>
      <point x="174" y="394"/>
      <point x="243" y="322"/>
    </contour>
  </outline>
</glyph>
<glyph name="colon" format="2">
  <advance width="300"/>
  <unicode hex="003A"/>
  <outline>
    <contour>
      <point x="102" y="-9" type="qcurve"/>
      <point x="61" y="-8"/>
      <point x="61" y="23" type="qcurve" smooth="yes"/>
      <point x="61" y="40"/>
      <point x="65" y="51" type="qcurve"/>
      <point x="71" y="92"/>
      <point x="115" y="92" type="qcurve" smooth="yes"/>
      <point x="156" y="92"/>
      <point x="156" y="60" type="qcurve" smooth="yes"/>
      <point x="156" y="43"/>
      <point x="152" y="32" type="qcurve"/>
      <point x="146" y="-9"/>
    </contour>
    <contour>
      <point x="187" y="410" type="qcurve"/>
      <point x="146" y="411"/>
      <point x="146" y="442" type="qcurve" smooth="yes"/>
      <point x="146" y="459"/>
      <point x="150" y="470" type="qcurve"/>
      <point x="156" y="511"/>
      <point x="200" y="511" type="qcurve" smooth="yes"/>
      <point x="241" y="511"/>
      <point x="241" y="479" type="qcurve" smooth="yes"/>
      <point x="241" y="462"/>
      <point x="237" y="451" type="qcurve"/>
      <point x="231" y="410"/>
    </contour>
  </outline>
</glyph>
<glyph name="semicolon" format="2">
  <advance width="300"/>
  <unicode hex="003B"/>
  <outline>
    <contour>
      <point x="-9" y="-138" type="line"/>
      <point x="68" y="-69"/>
      <point x="90" y="-6" type="qcurve"/>
      <point x="60" y="-1"/>
      <point x="60" y="24" type="qcurve" smooth="yes"/>
      <point x="60" y="40"/>
      <point x="64" y="50" type="qcurve"/>
      <point x="67" y="66"/>
      <point x="88" y="92"/>
      <point x="114" y="92" type="qcurve" smooth="yes"/>
      <point x="155" y="92"/>
      <point x="155" y="60" type="qcurve" smooth="yes"/>
      <point x="155" y="43"/>
      <point x="152" y="34" type="qcurve"/>
      <point x="142" y="-7"/>
      <point x="86" y="-103"/>
      <point x="39" y="-138" type="qcurve"/>
    </contour>
    <contour>
      <point x="187" y="410" type="qcurve"/>
      <point x="146" y="411"/>
      <point x="146" y="442" type="qcurve" smooth="yes"/>
      <point x="146" y="459"/>
      <point x="150" y="470" type="qcurve"/>
      <point x="156" y="511"/>
      <point x="200" y="511" type="qcurve" smooth="yes"/>
      <point x="241" y="511"/>
      <point x="241" y="479" type="qcurve" smooth="yes"/>
      <point x="241" y="462"/>
      <point x="237" y="451" type="qcurve"/>
      <point x="231" y="410"/>
    </contour>
  </outline>
</glyph>
<glyph name="equal" format="2">
  <advance width="600"/>
  <unicode hex="003D"/>
  <outline>
    <contour>
      <point x="90" y="378" type="line"/>
      <point x="100" y="426" type="line"/>
      <point x="560" y="426" type="line"/>
      <point x="550" y="378" type="line"/>
    </contour>
    <contour>
      <point x="52" y="186" type="line"/>
      <point x="62" y="234" type="line"/>
      <point x="522" y="234" type="line"/>
      <point x="512" y="186" type="line"/>
    </contour>
  </outline>
</glyph>
<glyph name="at" format="2">
  <advance width="870"/>
  <unicode hex="0040"/>
  <outline>
    <contour>
      <point x="362" y="-121" type="line" smooth="yes"/>
      <point x="220" y="-121"/>
      <point x="65" y="42"/>
      <point x="65" y="191" type="qcurve" smooth="yes"/>
      <point x="65" y="235"/>
      <point x="77" y="303" type="qcurve"/>
      <point x="115" y="484"/>
      <point x="353" y="709"/>
      <point x="522" y="709" type="qcurve" smooth="yes"/>
      <point x="659" y="709"/>
      <point x="824" y="550"/>
      <point x="824" y="410" type="qcurve" smooth="yes"/>
      <point x="824" y="379"/>
      <point x="815" y="320" type="qcurve"/>
      <point x="795" y="213"/>
      <point x="747" y="142" type="qcurve"/>
      <point x="694" y="69"/>
      <point x="614" y="69" type="qcurve" smooth="yes"/>
      <point x="529" y="69"/>
      <point x="529" y="151" type="qcurve" smooth="yes"/>
      <point x="529" y="163" type="line"/>
      <point x="525" y="163" type="line"/>
      <point x="507" y="124"/>
      <point x="434" y="69"/>
      <point x="383" y="69" type="qcurve" smooth="yes"/>
      <point x="325" y="69"/>
      <point x="250" y="146"/>
      <point x="250" y="220" type="qcurve" smooth="yes"/>
      <point x="250" y="252"/>
      <point x="259" y="297" type="qcurve" smooth="yes"/>
      <point x="304" y="509"/>
      <point x="460" y="509" type="qcurve" smooth="yes"/>
      <point x="507" y="509"/>
      <point x="565" y="462"/>
      <point x="574" y="422" type="qcurve"/>
      <point x="578" y="422" type="line"/>
      <point x="592" y="498" type="line"/>
      <point x="642" y="498" type="line"/>
      <point x="575" y="160"/>
      <point x="575" y="152" type="qcurve" smooth="yes"/>
      <point x="575" y="112"/>
      <point x="621" y="112" type="qcurve" smooth="yes"/>
      <point x="670" y="112"/>
      <point x="745" y="213"/>
      <point x="763" y="301" type="qcurve"/>
      <point x="772" y="350" type="line" smooth="yes"/>
      <point x="778" y="384"/>
      <point x="778" y="414" type="qcurve" smooth="yes"/>
      <point x="778" y="530"/>
      <point x="638" y="666"/>
      <point x="518" y="666" type="qcurve" smooth="yes"/>
      <point x="374" y="666"/>
      <point x="165" y="477"/>
      <point x="131" y="324" type="qcurve" smooth="yes"/>
      <point x="119" y="267" type="line"/>
      <point x="112" y="226"/>
      <point x="112" y="191" type="qcurve" smooth="yes"/>
      <point x="112" y="65"/>
      <point x="243" y="-77"/>
      <point x="365" y="-77" type="qcurve" smooth="yes"/>
      <point x="597" y="-77" type="line"/>
      <point x="588" y="-121" type="line"/>
    </contour>
    <contour>
      <point x="399" y="115" type="qcurve" smooth="yes"/>
      <point x="449" y="115"/>
      <point x="528" y="185"/>
      <point x="539" y="233" type="qcurve"/>
      <point x="566" y="368"/>
      <point x="566" y="378" type="qcurve" smooth="yes"/>
      <point x="566" y="409"/>
      <point x="545" y="432" type="qcurve" smooth="yes"/>
      <point x="516" y="463"/>
      <point x="466" y="463" type="qcurve" smooth="yes"/>
      <point x="409" y="463"/>
      <point x="333" y="389"/>
      <point x="320" y="327" type="qcurve" smooth="yes"/>
      <point x="306" y="254" type="line" smooth="yes"/>
      <point x="302" y="235"/>
      <point x="302" y="214" type="qcurve"/>
      <point x="305" y="115"/>
    </contour>
  </outline>
</glyph>
<glyph name="B" format="2">
  <advance width="619"/>
  <unicode hex="0042"/>
  <outline>
    <contour>
      <point x="45" y="0" type="line"/>
      <point x="184" y="698" type="line"/>
      <point x="427" y="698" type="line" smooth="yes"/>
      <point x="505" y="698"/>
      <point x="586" y="622"/>
      <point x="586" y="554" type="qcurve" smooth="yes"/>
      <point x="586" y="490"/>
      <point x="521" y="386"/>
      <point x="449" y="368" type="qcurve"/>
      <point x="448" y="364" type="line"/>
      <point x="549" y="341"/>
      <point x="549" y="234" type="qcurve" smooth="yes"/>
      <point x="549" y="132"/>
      <point x="426" y="0"/>
      <point x="328" y="0" type="qcurve" smooth="yes"/>
    </contour>
    <contour>
      <point x="367" y="388" type="line" smooth="yes"/>
      <point x="495" y="388"/>
      <point x="518" y="494" type="qcurve"/>
      <point x="521" y="512" type="line"/>
      <point x="526" y="535"/>
      <point x="526" y="554" type="qcurve" smooth="yes"/>
      <point x="526" y="597"/>
      <point x="474" y="646"/>
      <point x="420" y="646" type="qcurve" smooth="yes"/>
      <point x="231" y="646" type="line"/>
      <point x="180" y="388" type="line"/>
    </contour>
    <contour>
      <point x="328" y="52" type="line" smooth="yes"/>
      <point x="454" y="52"/>
      <point x="480" y="174" type="qcurve"/>
      <point x="488" y="222" type="line"/>
      <point x="489" y="237" type="line"/>
      <point x="489" y="282"/>
      <point x="432" y="337"/>
      <point x="375" y="337" type="qcurve" smooth="yes"/>
      <point x="170" y="337" type="line"/>
      <point x="113" y="52" type="line"/>
    </contour>
  </outline>
</glyph>
<glyph name="D" format="2">
  <advance width="650"/>
  <unicode hex="0044"/>
  <outline>
    <contour>
      <point x="279" y="52" type="line" smooth="yes"/>
      <point x="380" y="52"/>
      <point x="511" y="184"/>
      <point x="533" y="294" type="qcurve" smooth="yes"/>
      <point x="551" y="380" type="line"/>
      <point x="558" y="426"/>
      <point x="558" y="460" type="qcurve" smooth="yes"/>
      <point x="558" y="549"/>
      <point x="465" y="646"/>
      <point x="378" y="646" type="qcurve" smooth="yes"/>
      <point x="232" y="646" type="line"/>
      <point x="114" y="52" type="line"/>
    </contour>
    <contour>
      <point x="45" y="0" type="line"/>
      <point x="184" y="698" type="line"/>
      <point x="382" y="698" type="line" smooth="yes"/>
      <point x="495" y="698"/>
      <point x="618" y="568"/>
      <point x="618" y="443" type="qcurve" smooth="yes"/>
      <point x="618" y="360"/>
      <point x="575" y="202"/>
      <point x="489" y="76"/>
      <point x="362" y="0"/>
      <point x="278" y="0" type="qcurve" smooth="yes"/>
    </contour>
  </outline>
</glyph>
<glyph name="F" format="2">
  <advance width="537"/>
  <unicode hex="0046"/>
  <outline>
    <contour>
      <point x="45" y="0" type="line"/>
      <point x="185" y="698" type="line"/>
      <point x="573" y="698" type="line"/>
      <point x="562" y="646" type="line"/>
      <point x="232" y="646" type="line"/>
      <point x="179" y="380" type="line"/>
      <point x="488" y="380" type="line"/>
      <point x="478" y="329" type="line"/>
      <point x="169" y="329" type="line"/>
      <point x="103" y="0" type="line"/>
    </contour>
  </outline>
</glyph>
<glyph name="K" format="2">
  <advance width="595"/>
  <unicode hex="004B"/>
  <outline>
    <contour>
      <point x="466" y="0" type="line"/>
      <point x="290" y="361" type="line"/>
      <point x="149" y="230" type="line"/>
      <point x="103" y="0" type="line"/>
      <point x="45" y="0" type="line"/>
      <point x="185" y="698" type="line"/>
      <point x="243" y="698" type="line"/>
      <point x="166" y="314" type="line"/>
      <point x="171" y="314" type="line"/>
      <point x="578" y="698" type="line"/>
      <point x="653" y="698" type="line"/>
      <point x="334" y="398" type="line"/>
      <point x="529" y="0" type="line"/>
    </contour>
  </outline>
</glyph>
<glyph name="N" format="2">
  <advance width="681"/>
  <unicode hex="004E"/>
  <outline>
    <contour>
      <point x="465" y="0" type="line"/>
      <point x="228" y="615" type="line"/>
      <point x="224" y="615" type="line"/>
      <point x="101" y="0" type="line"/>
      <point x="45" y="0" type="line"/>
      <point x="185" y="698" type="line"/>
      <point x="254" y="698" type="line"/>
      <point x="491" y="83" type="line"/>
      <point x="495" y="83" type="line"/>
      <point x="618" y="698" type="line"/>
      <point x="674" y="698" type="line"/>
      <point x="534" y="0" type="line"/>
    </contour>
  </outline>
</glyph>
<glyph name="Q" format="2">
  <advance width="671"/>
  <unicode hex="0051"/>
  <outline>
    <contour>
      <point x="469" y="112" type="line"/>
      <point x="336" y="267" type="line"/>
      <point x="403" y="267" type="line"/>
      <point x="501" y="153" type="line"/>
      <point x="540" y="214"/>
      <point x="558" y="301" type="qcurve" smooth="yes"/>
      <point x="575" y="384" type="line"/>
      <point x="583" y="434"/>
      <point x="583" y="468" type="qcurve" smooth="yes"/>
      <point x="583" y="556"/>
      <point x="489" y="658"/>
      <point x="401" y="658" type="qcurve" smooth="yes"/>
      <point x="301" y="658"/>
      <point x="168" y="519"/>
      <point x="143" y="397" type="qcurve" smooth="yes"/>
      <point x="126" y="314" type="line"/>
      <point x="118" y="265"/>
      <point x="118" y="230" type="qcurve" smooth="yes"/>
      <point x="118" y="142"/>
      <point x="212" y="40"/>
      <point x="300" y="40" type="qcurve" smooth="yes"/>
      <point x="400" y="40"/>
      <point x="467" y="110" type="qcurve" smooth="yes"/>
    </contour>
    <contour>
      <point x="536" y="112" type="qcurve"/>
      <point x="643" y="-12" type="line"/>
      <point x="576" y="-12" type="line"/>
      <point x="502" y="74" type="line"/>
      <point x="476" y="49"/>
      <point x="446" y="30" type="qcurve" smooth="yes"/>
      <point x="381" y="-12"/>
      <point x="295" y="-12" type="qcurve" smooth="yes"/>
      <point x="193" y="-12"/>
      <point x="60" y="120"/>
      <point x="60" y="244" type="qcurve" smooth="yes"/>
      <point x="60" y="326"/>
      <point x="104" y="491"/>
      <point x="190" y="627"/>
      <point x="320" y="710"/>
      <point x="406" y="710" type="qcurve" smooth="yes"/>
      <point x="508" y="710"/>
      <point x="641" y="579"/>
      <point x="641" y="454" type="qcurve" smooth="yes"/>
      <point x="641" y="372"/>
      <point x="598" y="207"/>
      <point x="555" y="139" type="qcurve" smooth="yes"/>
      <point x="546" y="125"/>
    </contour>
  </outline>
</glyph>
<glyph name="S" format="2">
  <advance width="559"/>
  <unicode hex="0053"/>
  <outline>
    <contour>
      <point x="259" y="-12" type="qcurve" smooth="yes"/>
      <point x="104" y="-12"/>
      <point x="17" y="107" type="qcurve"/>
      <point x="62" y="144" type="line"/>
      <point x="98" y="95"/>
      <point x="192" y="41"/>
      <point x="261" y="41" type="qcurve" smooth="yes"/>
      <point x="342" y="41"/>
      <point x="386" y="80" type="qcurve" smooth="yes"/>
      <point x="419" y="109"/>
      <point x="427" y="158" type="qcurve"/>
      <point x="429" y="177"/>
      <point x="429" y="193" type="qcurve" smooth="yes"/>
      <point x="429" y="273"/>
      <point x="314" y="321" type="qcurve" smooth="yes"/>
      <point x="256" y="345" type="line" smooth="yes"/>
      <point x="163" y="384"/>
      <point x="102" y="479"/>
      <point x="102" y="527" type="qcurve" smooth="yes"/>
      <point x="102" y="616"/>
      <point x="227" y="710"/>
      <point x="327" y="710" type="qcurve" smooth="yes"/>
      <point x="475" y="710"/>
      <point x="548" y="603" type="qcurve"/>
      <point x="503" y="570" type="line"/>
      <point x="443" y="657"/>
      <point x="324" y="657" type="qcurve" smooth="yes"/>
      <point x="249" y="657"/>
      <point x="206" y="625" type="qcurve" smooth="yes"/>
      <point x="172" y="600"/>
      <point x="164" y="556" type="qcurve"/>
      <point x="161" y="534"/>
      <point x="161" y="524" type="qcurve" smooth="yes"/>
      <point x="161" y="445"/>
      <point x="279" y="398" type="qcurve"/>
      <point x="337" y="373" type="line" smooth="yes"/>
      <point x="434" y="331"/>
      <point x="466" y="275" type="qcurve" smooth="yes"/>
      <point x="489" y="236"/>
      <point x="489" y="189" type="qcurve" smooth="yes"/>
      <point x="489" y="95"/>
      <point x="366" y="-12"/>
    </contour>
  </outline>
</glyph>
<glyph name="m" format="2">
  <advance width="846"/>
  <unicode hex="006D"/>
  <outline>
    <contour>
      <point x="703" y="0" type="line" smooth="yes"/>
      <point x="654" y="0"/>
      <point x="654" y="42" type="qcurve" smooth="yes"/>
      <point x="654" y="50"/>
      <point x="708" y="319" type="qcurve"/>
      <point x="714" y="356"/>
      <point x="714" y="378" type="qcurve" smooth="yes"/>
      <point x="714" y="474"/>
      <point x="624" y="474" type="qcurve" smooth="yes"/>
      <point x="564" y="474"/>
      <point x="475" y="375"/>
      <point x="459" y="300" type="qcurve" smooth="yes"/>
      <point x="398" y="0" type="line"/>
      <point x="343" y="0" type="line"/>
      <point x="407" y="319" type="line" smooth="yes"/>
      <point x="414" y="355"/>
      <point x="414" y="379" type="qcurve" smooth="yes"/>
      <point x="414" y="474"/>
      <point x="328" y="474" type="qcurve" smooth="yes"/>
      <point x="259" y="474"/>
      <point x="214" y="414" type="qcurve" smooth="yes"/>
      <point x="171" y="357"/>
      <point x="157" y="297" type="qcurve"/>
      <point x="98" y="0" type="line"/>
      <point x="43" y="0" type="line"/>
      <point x="145" y="512" type="line"/>
      <point x="201" y="512" type="line"/>
      <point x="180" y="409" type="line"/>
      <point x="184" y="409" type="line"/>
      <point x="211" y="465"/>
      <point x="288" y="524"/>
      <point x="346" y="524" type="qcurve" smooth="yes"/>
      <point x="403" y="524"/>
      <point x="464" y="460"/>
      <point x="468" y="406" type="qcurve"/>
      <point x="473" y="406" type="line"/>
      <point x="527" y="524"/>
      <point x="641" y="524" type="qcurve" smooth="yes"/>
      <point x="705" y="524"/>
      <point x="770" y="452"/>
      <point x="770" y="386" type="qcurve" smooth="yes"/>
      <point x="770" y="356"/>
      <point x="763" y="320" type="qcurve" smooth="yes"/>
      <point x="709" y="49" type="line"/>
      <point x="787" y="49" type="line"/>
      <point x="777" y="0" type="line"/>
    </contour>
  </outline>
</glyph>
<glyph name="t" format="2">
  <advance width="313"/>
  <unicode hex="0074"/>
  <outline>
    <contour>
      <point x="124" y="0" type="line" smooth="yes"/>
      <point x="72" y="0"/>
      <point x="72" y="45" type="qcurve" smooth="yes"/>
      <point x="72" y="62"/>
      <point x="75" y="73" type="qcurve"/>
      <point x="153" y="462" type="line"/>
      <point x="69" y="462" type="line"/>
      <point x="79" y="512" type="line"/>
      <point x="130" y="512" type="line" smooth="yes"/>
      <point x="153" y="512"/>
      <point x="170" y="530"/>
      <point x="173" y="552" type="qcurve"/>
      <point x="194" y="655" type="line"/>
      <point x="246" y="655" type="line"/>
      <point x="217" y="512" type="line"/>
      <point x="331" y="512" type="line"/>
      <point x="321" y="463" type="line"/>
      <point x="208" y="463" type="line"/>
      <point x="125" y="49" type="line"/>
      <point x="231" y="49" type="line"/>
      <point x="221" y="0" type="line"/>
    </contour>
  </outline>
</glyph>
<glyph name="braceright" format="2">
  <advance width="324"/>
  <unicode hex="007D"/>
  <outline>
    <contour>
      <point x="-17" y="-138" type="line"/>
      <point x="-9" y="-93" type="line"/>
      <point x="87" y="-93" type="line"/>
      <point x="142" y="186" type="line"/>
      <point x="161" y="295"/>
      <point x="260" y="304" type="qcurve"/>
      <point x="264" y="320" type="line"/>
      <point x="188" y="331"/>
      <point x="188" y="404" type="qcurve" smooth="yes"/>
      <point x="188" y="421"/>
      <point x="192" y="436" type="qcurve"/>
      <point x="248" y="715" type="line"/>
      <point x="151" y="715" type="line"/>
      <point x="161" y="760" type="line"/>
      <point x="248" y="760" type="line" smooth="yes"/>
      <point x="272" y="760"/>
      <point x="296" y="735"/>
      <point x="296" y="715" type="qcurve" smooth="yes"/>
      <point x="296" y="706" type="line"/>
      <point x="241" y="433" type="line" smooth="yes"/>
      <point x="238" y="418"/>
      <point x="238" y="407" type="qcurve" smooth="yes"/>
      <point x="238" y="344"/>
      <point x="316" y="344" type="qcurve"/>
      <point x="302" y="278" type="line"/>
      <point x="210" y="278"/>
      <point x="193" y="189" type="qcurve" smooth="yes"/>
      <point x="139" y="-77" type="line"/>
      <point x="128" y="-138"/>
      <point x="75" y="-138" type="qcurve" smooth="yes"/>
    </contour>
  </outline>
</glyph>
<glyph name="section" format="2">
  <advance width="560"/>
  <unicode hex="00A7"/>
  <outline>
    <contour>
      <point x="315" y="145" type="line"/>
      <point x="428" y="187"/>
      <point x="428" y="277" type="qcurve" smooth="yes"/>
      <point x="428" y="319"/>
      <point x="385" y="364"/>
      <point x="335" y="380" type="qcurve" smooth="yes"/>
      <point x="246" y="410" type="line"/>
      <point x="133" y="368"/>
      <point x="133" y="278" type="qcurve" smooth="yes"/>
      <point x="133" y="236"/>
      <point x="176" y="190"/>
      <point x="226" y="175" type="qcurve"/>
    </contour>
    <contour>
      <point x="198" y="-155" type="qcurve" smooth="yes"/>
      <point x="95" y="-155"/>
      <point x="37" y="-98" type="qcurve"/>
      <point x="75" y="-60" type="line"/>
      <point x="125" y="-106"/>
      <point x="203" y="-106" type="qcurve" smooth="yes"/>
      <point x="262" y="-106"/>
      <point x="342" y="-44"/>
      <point x="342" y="10" type="qcurve" smooth="yes"/>
      <point x="342" y="87"/>
      <point x="258" y="111" type="qcurve"/>
      <point x="192" y="133" type="line" smooth="yes"/>
      <point x="130" y="153"/>
      <point x="76" y="213"/>
      <point x="76" y="261" type="qcurve" smooth="yes"/>
      <point x="76" y="324"/>
      <point x="153" y="404"/>
      <point x="217" y="419" type="qcurve"/>
      <point x="218" y="426" type="line"/>
      <point x="162" y="469"/>
      <point x="162" y="539" type="qcurve" smooth="yes"/>
      <point x="162" y="619"/>
      <point x="279" y="710"/>
      <point x="363" y="710" type="qcurve" smooth="yes"/>
      <point x="467" y="710"/>
      <point x="524" y="653" type="qcurve"/>
      <point x="486" y="615" type="line"/>
      <point x="436" y="661"/>
      <point x="358" y="661" type="qcurve" smooth="yes"/>
      <point x="300" y="661"/>
      <point x="219" y="599"/>
      <point x="219" y="545" type="qcurve" smooth="yes"/>
      <point x="219" y="469"/>
      <point x="303" y="444" type="qcurve"/>
      <point x="369" y="422" type="line" smooth="yes"/>
      <point x="431" y="402"/>
      <point x="485" y="342"/>
      <point x="485" y="294" type="qcurve" smooth="yes"/>
      <point x="485" y="231"/>
      <point x="408" y="151"/>
      <point x="344" y="136" type="qcurve"/>
      <point x="343" y="129" type="line"/>
      <point x="399" y="87"/>
      <point x="399" y="16" type="qcurve" smooth="yes"/>
      <point x="399" y="-63"/>
      <point x="282" y="-155"/>
    </contour>
  </outline>
</glyph>
<glyph name="dieresis" format="2">
  <advance width="596"/>
  <unicode hex="00A8"/>
  <outline>
    <contour>
      <point x="405" y="626" type="qcurve" smooth="yes"/>
      <point x="371" y="626"/>
      <point x="371" y="654" type="qcurve"/>
      <point x="374" y="676" type="line"/>
      <point x="380" y="708"/>
      <point x="417" y="708" type="qcurve" smooth="yes"/>
      <point x="451" y="708"/>
      <point x="451" y="680" type="qcurve" smooth="yes"/>
      <point x="451" y="673" type="line"/>
      <point x="448" y="658" type="line"/>
      <point x="443" y="626"/>
    </contour>
    <contour>
      <point x="223" y="626" type="qcurve" smooth="yes"/>
      <point x="189" y="626"/>
      <point x="189" y="654" type="qcurve"/>
      <point x="192" y="676" type="line"/>
      <point x="198" y="708"/>
      <point x="235" y="708" type="qcurve" smooth="yes"/>
      <point x="269" y="708"/>
      <point x="269" y="680" type="qcurve" smooth="yes"/>
      <point x="269" y="673" type="line"/>
      <point x="266" y="658" type="line"/>
      <point x="261" y="626"/>
    </contour>
  </outline>
</glyph>
<glyph name="plusminus" format="2">
  <advance width="600"/>
  <unicode hex="00B1"/>
  <outline>
    <contour>
      <point x="251" y="138" type="line"/>
      <point x="294" y="351" type="line"/>
      <point x="89" y="351" type="line"/>
      <point x="99" y="399" type="line"/>
      <point x="303" y="399" type="line"/>
      <point x="346" y="612" type="line"/>
      <point x="398" y="612" type="line"/>
      <point x="356" y="399" type="line"/>
      <point x="559" y="399" type="line"/>
      <point x="549" y="351" type="line"/>
      <point x="346" y="351" type="line"/>
      <point x="304" y="138" type="line"/>
    </contour>
    <contour>
      <point x="19" y="0" type="line"/>
      <point x="28" y="48" type="line"/>
      <point x="489" y="48" type="line"/>
      <point x="479" y="0" type="line"/>
    </contour>
  </outline>
</glyph>
<glyph name="u00B3" format="2">
  <advance width="341"/>
  <unicode hex="00B3"/>
  <outline>
    <contour>
      <point x="182" y="323" type="qcurve" smooth="yes"/>
      <point x="84" y="323"/>
      <point x="56" y="387" type="qcurve"/>
      <point x="89" y="410" type="line"/>
      <point x="113" y="360"/>
      <point x="183" y="360" type="qcurve" smooth="yes"/>
      <point x="228" y="360"/>
      <point x="272" y="396"/>
      <point x="278" y="429" type="qcurve"/>
      <point x="278" y="430"/>
      <point x="280" y="435"/>
      <point x="280" y="448" type="qcurve" smooth="yes"/>
      <point x="280" y="502"/>
      <point x="205" y="502" type="qcurve" smooth="yes"/>
      <point x="158" y="502" type="line"/>
      <point x="165" y="539" type="line"/>
      <point x="211" y="539" type="line" smooth="yes"/>
      <point x="260" y="539"/>
      <point x="300" y="574"/>
      <point x="304" y="599" type="qcurve"/>
      <point x="306" y="615" type="line"/>
      <point x="306" y="638"/>
      <point x="273" y="667"/>
      <point x="240" y="667" type="qcurve" smooth="yes"/>
      <point x="179" y="667"/>
      <point x="142" y="620" type="qcurve"/>
      <point x="115" y="645" type="line"/>
      <point x="161" y="704"/>
      <point x="244" y="704" type="qcurve" smooth="yes"/>
      <point x="296" y="704"/>
      <point x="352" y="653"/>
      <point x="352" y="615" type="qcurve" smooth="yes"/>
      <point x="352" y="576"/>
      <point x="301" y="526"/>
      <point x="262" y="520" type="qcurve"/>
      <point x="262" y="518" type="line"/>
      <point x="325" y="508"/>
      <point x="325" y="443" type="qcurve" smooth="yes"/>
      <point x="325" y="390"/>
      <point x="248" y="323"/>
    </contour>
  </outline>
</glyph>
<glyph name="acute" format="2">
  <advance width="596"/>
  <unicode hex="00B4"/>
  <outline>
    <contour>
      <point x="271" y="605" type="line"/>
      <point x="391" y="769" type="line"/>
      <point x="439" y="742" type="line"/>
      <point x="306" y="586" type="line"/>
    </contour>
  </outline>
</glyph>
<glyph name="paragraph" format="2">
  <advance width="614"/>
  <unicode hex="00B6"/>
  <outline>
    <contour>
      <point x="329" y="-149" type="line"/>
      <point x="489" y="651" type="line"/>
      <point x="373" y="651" type="line"/>
      <point x="213" y="-149" type="line"/>
      <point x="161" y="-149" type="line"/>
      <point x="254" y="312" type="line"/>
      <point x="190" y="312"/>
      <point x="97" y="407"/>
      <point x="97" y="479" type="qcurve" smooth="yes"/>
      <point x="97" y="577"/>
      <point x="235" y="698"/>
      <point x="335" y="698" type="qcurve" smooth="yes"/>
      <point x="616" y="698" type="line"/>
      <point x="607" y="651" type="line"/>
      <point x="541" y="651" type="line"/>
      <point x="380" y="-149" type="line"/>
    </contour>
  </outline>
</glyph>
<glyph name="u00B9" format="2">
  <advance width="307"/>
  <unicode hex="00B9"/>
  <outline>
    <contour>
      <point x="220" y="329" type="line"/>
      <point x="176" y="329" type="line"/>
      <point x="241" y="656" type="line"/>
      <point x="152" y="612" type="line"/>
      <point x="161" y="655" type="line"/>
      <point x="245" y="698" type="line"/>
      <point x="293" y="698" type="line"/>
    </contour>
  </outline>
</glyph>
<glyph name="threequarters" format="2">
  <advance width="819"/>
  <unicode hex="00BE"/>
  <outline>
    <contour>
      <point x="182" y="323" type="qcurve" smooth="yes"/>
      <point x="84" y="323"/>
      <point x="56" y="387" type="qcurve"/>
      <point x="89" y="410" type="line"/>
      <point x="113" y="360"/>
      <point x="183" y="360" type="qcurve" smooth="yes"/>
      <point x="228" y="360"/>
      <point x="272" y="396"/>
      <point x="278" y="429" type="qcurve"/>
      <point x="278" y="430"/>
      <point x="280" y="435"/>
      <point x="280" y="448" type="qcurve" smooth="yes"/>
      <point x="280" y="502"/>
      <point x="205" y="502" type="qcurve" smooth="yes"/>
      <point x="158" y="502" type="line"/>
      <point x="165" y="539" type="line"/>
      <point x="211" y="539" type="line" smooth="yes"/>
      <point x="260" y="539"/>
      <point x="300" y="574"/>
      <point x="304" y="599" type="qcurve"/>
      <point x="306" y="615" type="line"/>
      <point x="306" y="638"/>
      <point x="273" y="667"/>
      <point x="240" y="667" type="qcurve" smooth="yes"/>
      <point x="179" y="667"/>
      <point x="142" y="620" type="qcurve"/>
      <point x="115" y="645" type="line"/>
      <point x="161" y="704"/>
      <point x="244" y="704" type="qcurve" smooth="yes"/>
      <point x="296" y="704"/>
      <point x="352" y="653"/>
      <point x="352" y="615" type="qcurve" smooth="yes"/>
      <point x="352" y="576"/>
      <point x="301" y="526"/>
      <point x="262" y="520" type="qcurve"/>
      <point x="262" y="518" type="line"/>
      <point x="325" y="508"/>
      <point x="325" y="443" type="qcurve" smooth="yes"/>
      <point x="325" y="390"/>
      <point x="248" y="323"/>
    </contour>
    <contour>
      <point x="110" y="0" type="line"/>
      <point x="717" y="698" type="line"/>
      <point x="770" y="698" type="line"/>
      <point x="163" y="0" type="line"/>
    </contour>
    <contour>
      <point x="637" y="0" type="line"/>
      <point x="653" y="79" type="line"/>
      <point x="459" y="79" type="line"/>
      <point x="466" y="118" type="line"/>
      <point x="697" y="369" type="line"/>
      <point x="753" y="369" type="line"/>
      <point x="703" y="114" type="line"/>
      <point x="760" y="114" type="line"/>
      <point x="753" y="79" type="line"/>
      <point x="696" y="79" type="line"/>
      <point x="679" y="0" type="line"/>
    </contour>
    <contour>
      <point x="701" y="319" type="line"/>
      <point x="698" y="319" type="line"/>
      <point x="508" y="114" type="line"/>
      <point x="660" y="114" type="line"/>
    </contour>
  </outline>
</glyph>
<glyph name="Acircumflex" format="2">
  <advance width="612"/>
  <unicode hex="00C2"/>
  <outline>
    <contour>
      <point x="252" y="792" type="line"/>
      <point x="396" y="930" type="line"/>
      <point x="462" y="930" type="line"/>
      <point x="554" y="791" type="line"/>
      <point x="522" y="769" type="line"/>
      <point x="424" y="888" type="line"/>
      <point x="282" y="768" type="line"/>
    </contour>
    <contour>
      <point x="477" y="0" type="line"/>
      <point x="443" y="217" type="line"/>
      <point x="154" y="217" type="line"/>
      <point x="41" y="0" type="line"/>
      <point x="-21" y="0" type="line"/>
      <point x="349" y="698" type="line"/>
      <point x="426" y="698" type="line"/>
      <point x="536" y="0" type="line"/>
    </contour>
    <contour>
      <point x="379" y="641" type="line"/>
      <point x="375" y="641" type="line"/>
      <point x="181" y="268" type="line"/>
      <point x="437" y="268" type="line"/>
    </contour>
  </outline>
</glyph>
<glyph name="Adieresis" format="2">
  <advance width="612"/>
  <unicode hex="00C4"/>
  <outline>
    <contour>
      <point x="379" y="641" type="line"/>
      <point x="375" y="641" type="line"/>
      <point x="181" y="268" type="line"/>
      <point x="437" y="268" type="line"/>
    </contour>
    <contour>
      <point x="477" y="0" type="line"/>
      <point x="443" y="217" type="line"/>
      <point x="154" y="217" type="line"/>
      <point x="41" y="0" type="line"/>
      <point x="-21" y="0" type="line"/>
      <point x="349" y="698" type="line"/>
      <point x="426" y="698" type="line"/>
      <point x="536" y="0" type="line"/>
    </contour>
    <contour>
      <point x="315" y="800" type="qcurve" smooth="yes"/>
      <point x="281" y="800"/>
      <point x="281" y="828" type="qcurve"/>
      <point x="284" y="850" type="line"/>
      <point x="290" y="882"/>
      <point x="327" y="882" type="qcurve" smooth="yes"/>
      <point x="361" y="882"/>
      <point x="361" y="854" type="qcurve" smooth="yes"/>
      <point x="361" y="847" type="line"/>
      <point x="358" y="832" type="line"/>
      <point x="353" y="800"/>
    </contour>
    <contour>
      <point x="497" y="800" type="qcurve" smooth="yes"/>
      <point x="463" y="800"/>
      <point x="463" y="828" type="qcurve"/>
      <point x="466" y="850" type="line"/>
      <point x="472" y="882"/>
      <point x="509" y="882" type="qcurve" smooth="yes"/>
      <point x="543" y="882"/>
      <point x="543" y="854" type="qcurve" smooth="yes"/>
      <point x="543" y="847" type="line"/>
      <point x="540" y="832" type="line"/>
      <point x="535" y="800"/>
    </contour>
  </outline>
</glyph>
<glyph name="Eacute" format="2">
  <advance width="560"/>
  <unicode hex="00C9"/>
  <outline>
    <contour>
      <point x="360" y="780" type="line"/>
      <point x="479" y="943" type="line"/>
      <point x="527" y="916" type="line"/>
      <point x="394" y="760" type="line"/>
    </contour>
    <contour>
      <point x="45" y="0" type="line"/>
      <point x="185" y="698" type="line"/>
      <point x="583" y="698" type="line"/>
      <point x="572" y="646" type="line"/>
      <point x="233" y="646" type="line"/>
      <point x="179" y="380" type="line"/>
      <point x="494" y="380" type="line"/>
      <point x="484" y="329" type="line"/>
      <point x="169" y="329" type="line"/>
      <point x="114" y="52" type="line"/>
      <point x="463" y="52" type="line"/>
      <point x="453" y="0" type="line"/>
    </contour>
  </outline>
</glyph>
<glyph name="Ocircumflex" format="2">
  <advance width="671"/>
  <unicode hex="00D4"/>
  <outline>
    <contour>
      <point x="278" y="792" type="line"/>
      <point x="422" y="930" type="line"/>
      <point x="488" y="930" type="line"/>
      <point x="580" y="791" type="line"/>
      <point x="548" y="769" type="line"/>
      <point x="450" y="888" type="line"/>
      <point x="308" y="768" type="line"/>
    </contour>
    <contour>
      <point x="295" y="-12" type="qcurve" smooth="yes"/>
      <point x="193" y="-12"/>
      <point x="60" y="120"/>
      <point x="60" y="244" type="qcurve" smooth="yes"/>
      <point x="60" y="326"/>
      <point x="104" y="491"/>
      <point x="190" y="627"/>
      <point x="320" y="710"/>
      <point x="406" y="710" type="qcurve" smooth="yes"/>
      <point x="508" y="710"/>
      <point x="641" y="579"/>
      <point x="641" y="454" type="qcurve" smooth="yes"/>
      <point x="641" y="372"/>
      <point x="598" y="207"/>
      <point x="511" y="71"/>
      <point x="381" y="-12"/>
    </contour>
    <contour>
      <point x="300" y="40" type="qcurve" smooth="yes"/>
      <point x="400" y="40"/>
      <point x="533" y="179"/>
      <point x="558" y="301" type="qcurve" smooth="yes"/>
      <point x="575" y="384" type="line"/>
      <point x="583" y="434"/>
      <point x="583" y="468" type="qcurve" smooth="yes"/>
      <point x="583" y="556"/>
      <point x="489" y="658"/>
      <point x="401" y="658" type="qcurve" smooth="yes"/>
      <point x="301" y="658"/>
      <point x="168" y="519"/>
      <point x="143" y="397" type="qcurve" smooth="yes"/>
      <point x="126" y="314" type="line"/>
      <point x="118" y="265"/>
      <point x="118" y="230" type="qcurve" smooth="yes"/>
      <point x="118" y="142"/>
      <point x="212" y="40"/>
    </contour>
  </outline>
</glyph>
<glyph name="Udieresis" format="2">
  <advance width="650"/>
  <unicode hex="00DC"/>
  <outline>
    <contour>
      <point x="339" y="800" type="qcurve" smooth="yes"/>
      <point x="305" y="800"/>
      <point x="305" y="828" type="qcurve"/>
      <point x="308" y="850" type="line"/>
      <point x="314" y="882"/>
      <point x="351" y="882" type="qcurve" smooth="yes"/>
      <point x="385" y="882"/>
      <point x="385" y="854" type="qcurve" smooth="yes"/>
      <point x="385" y="847" type="line"/>
      <point x="382" y="832" type="line"/>
      <point x="377" y="800"/>
    </contour>
    <contour>
      <point x="521" y="800" type="qcurve" smooth="yes"/>
      <point x="487" y="800"/>
      <point x="487" y="828" type="qcurve"/>
      <point x="490" y="850" type="line"/>
      <point x="496" y="882"/>
      <point x="533" y="882" type="qcurve" smooth="yes"/>
      <point x="567" y="882"/>
      <point x="567" y="854" type="qcurve" smooth="yes"/>
      <point x="567" y="847" type="line"/>
      <point x="564" y="832" type="line"/>
      <point x="559" y="800"/>
    </contour>
    <contour>
      <point x="278" y="-12" type="qcurve" smooth="yes"/>
      <point x="186" y="-12"/>
      <point x="83" y="83"/>
      <point x="83" y="173" type="qcurve" smooth="yes"/>
      <point x="83" y="223"/>
      <point x="97" y="287" type="qcurve"/>
      <point x="179" y="698" type="line"/>
      <point x="237" y="698" type="line"/>
      <point x="145" y="233"/>
      <point x="143" y="218" type="qcurve" smooth="yes"/>
      <point x="140" y="197"/>
      <point x="140" y="178" type="qcurve" smooth="yes"/>
      <point x="140" y="113"/>
      <point x="213" y="40"/>
      <point x="284" y="40" type="qcurve" smooth="yes"/>
      <point x="380" y="40"/>
      <point x="482" y="149"/>
      <point x="506" y="279" type="qcurve" smooth="yes"/>
      <point x="590" y="698" type="line"/>
      <point x="648" y="698" type="line"/>
      <point x="563" y="275" type="line" smooth="yes"/>
      <point x="532" y="117"/>
      <point x="403" y="-12"/>
    </contour>
  </outline>
</glyph>
<glyph name="Thorn" format="2">
  <advance width="589"/>
  <unicode hex="00DE"/>
  <outline>
    <contour>
      <point x="44" y="0" type="line"/>
      <point x="185" y="698" type="line"/>
      <point x="242" y="698" type="line"/>
      <point x="213" y="549" type="line"/>
      <point x="405" y="549" type="line" smooth="yes"/>
      <point x="489" y="549"/>
      <point x="530" y="504" type="qcurve" smooth="yes"/>
      <point x="569" y="463"/>
      <point x="569" y="390" type="qcurve" smooth="yes"/>
      <point x="569" y="288"/>
      <point x="449" y="159"/>
      <point x="345" y="159" type="qcurve" smooth="yes"/>
      <point x="134" y="159" type="line"/>
      <point x="102" y="0" type="line"/>
    </contour>
    <contour>
      <point x="353" y="210" type="line" smooth="yes"/>
      <point x="413" y="210"/>
      <point x="488" y="272"/>
      <point x="499" y="327" type="qcurve" smooth="yes"/>
      <point x="509" y="378"/>
      <point x="509" y="399" type="qcurve" smooth="yes"/>
      <point x="509" y="441"/>
      <point x="459" y="498"/>
      <point x="400" y="498" type="qcurve" smooth="yes"/>
      <point x="202" y="498" type="line"/>
      <point x="145" y="210" type="line"/>
    </contour>
  </outline>
</glyph>
<glyph name="eth" format="2">
  <advance width="562"/>
  <unicode hex="00F0"/>
  <outline>
    <contour>
      <point x="237" y="-12" type="qcurve" smooth="yes"/>
      <point x="152" y="-12"/>
      <point x="53" y="100"/>
      <point x="53" y="190" type="qcurve" smooth="yes"/>
      <point x="53" y="322"/>
      <point x="123" y="414" type="qcurve" smooth="yes"/>
      <point x="156" y="456"/>
      <point x="246" y="505"/>
      <point x="299" y="505" type="qcurve" smooth="yes"/>
      <point x="406" y="505"/>
      <point x="443" y="414" type="qcurve"/>
      <point x="447" y="416" type="line"/>
      <point x="430" y="537"/>
      <point x="347" y="629" type="qcurve"/>
      <point x="245" y="564" type="line"/>
      <point x="226" y="596" type="line"/>
      <point x="321" y="658" type="line"/>
      <point x="270" y="706"/>
      <point x="206" y="740" type="qcurve"/>
      <point x="288" y="740" type="line"/>
      <point x="324" y="718"/>
      <point x="362" y="683" type="qcurve"/>
      <point x="469" y="753" type="line"/>
      <point x="489" y="719" type="line"/>
      <point x="388" y="655" type="line"/>
      <point x="436" y="604"/>
      <point x="469" y="528" type="qcurve" smooth="yes"/>
      <point x="504" y="444"/>
      <point x="504" y="346" type="qcurve" smooth="yes"/>
      <point x="504" y="178"/>
      <point x="356" y="-12"/>
    </contour>
    <contour>
      <point x="246" y="38" type="qcurve" smooth="yes"/>
      <point x="314" y="38"/>
      <point x="412" y="131"/>
      <point x="428" y="212" type="qcurve" smooth="yes"/>
      <point x="434" y="241"/>
      <point x="444" y="298"/>
      <point x="444" y="317" type="qcurve" smooth="yes"/>
      <point x="444" y="383"/>
      <point x="368" y="455"/>
      <point x="305" y="455" type="qcurve" smooth="yes"/>
      <point x="237" y="455"/>
      <point x="139" y="362"/>
      <point x="123" y="281" type="qcurve" smooth="yes"/>
      <point x="118" y="253"/>
      <point x="107" y="196"/>
      <point x="107" y="176" type="qcurve" smooth="yes"/>
      <point x="107" y="110"/>
      <point x="183" y="38"/>
    </contour>
  </outline>
</glyph>
<glyph name="otilde" format="2">
  <advance width="544"/>
  <unicode hex="00F5"/>
  <outline>
    <contour>
      <point x="238" y="37" type="qcurve" smooth="yes"/>
      <point x="305" y="37"/>
      <point x="400" y="133"/>
      <point x="418" y="221" type="qcurve" smooth="yes"/>
      <point x="430" y="282" type="line" smooth="yes"/>
      <point x="435" y="308"/>
      <point x="435" y="338" type="qcurve" smooth="yes"/>
      <point x="435" y="397"/>
      <point x="372" y="475"/>
      <point x="306" y="475" type="qcurve" smooth="yes"/>
      <point x="239" y="475"/>
      <point x="144" y="379"/>
      <point x="126" y="291" type="qcurve" smooth="yes"/>
      <point x="114" y="230" type="line" smooth="yes"/>
      <point x="109" y="204"/>
      <point x="109" y="174" type="qcurve" smooth="yes"/>
      <point x="109" y="115"/>
      <point x="173" y="37"/>
    </contour>
    <contour>
      <point x="231" y="-12" type="qcurve" smooth="yes"/>
      <point x="150" y="-12"/>
      <point x="53" y="94"/>
      <point x="53" y="188" type="qcurve" smooth="yes"/>
      <point x="53" y="322"/>
      <point x="123" y="423" type="qcurve" smooth="yes"/>
      <point x="156" y="470"/>
      <point x="253" y="524"/>
      <point x="313" y="524" type="qcurve" smooth="yes"/>
      <point x="394" y="524"/>
      <point x="491" y="418"/>
      <point x="491" y="324" type="qcurve" smooth="yes"/>
      <point x="491" y="191"/>
      <point x="422" y="90" type="qcurve"/>
      <point x="388" y="43"/>
      <point x="291" y="-12"/>
    </contour>
    <contour>
      <point x="406" y="618" type="qcurve" smooth="yes"/>
      <point x="383" y="618"/>
      <point x="349" y="634"/>
      <point x="332" y="646" type="qcurve" smooth="yes"/>
      <point x="297" y="670"/>
      <point x="268" y="670" type="qcurve" smooth="yes"/>
      <point x="234" y="670"/>
      <point x="204" y="641" type="qcurve"/>
      <point x="183" y="669" type="line"/>
      <point x="225" y="717"/>
      <point x="276" y="717" type="qcurve" smooth="yes"/>
      <point x="299" y="717"/>
      <point x="333" y="701"/>
      <point x="350" y="689" type="qcurve"/>
      <point x="386" y="665"/>
      <point x="414" y="665" type="qcurve" smooth="yes"/>
      <point x="449" y="665"/>
      <point x="478" y="694" type="qcurve"/>
      <point x="499" y="666" type="line"/>
      <point x="457" y="618"/>
    </contour>
  </outline>
</glyph>
<glyph name="abreve" format="2">
  <advance width="577"/>
  <unicode hex="0103"/>
  <outline>
    <contour>
      <point x="227" y="38" type="qcurve" smooth="yes"/>
      <point x="292" y="38"/>
      <point x="335" y="85" type="qcurve"/>
      <point x="392" y="133"/>
      <point x="411" y="222" type="qcurve" smooth="yes"/>
      <point x="435" y="341" type="line" smooth="yes"/>
      <point x="438" y="355"/>
      <point x="438" y="368" type="qcurve" smooth="yes"/>
      <point x="438" y="403"/>
      <point x="416" y="432" type="qcurve" smooth="yes"/>
      <point x="383" y="474"/>
      <point x="310" y="474" type="qcurve" smooth="yes"/>
      <point x="238" y="474"/>
      <point x="145" y="379"/>
      <point x="128" y="294" type="qcurve" smooth="yes"/>
      <point x="116" y="234" type="line" smooth="yes"/>
      <point x="111" y="210"/>
      <point x="111" y="175" type="qcurve" smooth="yes"/>
      <point x="111" y="117"/>
      <point x="167" y="38"/>
    </contour>
    <contour>
      <point x="214" y="-12" type="qcurve" smooth="yes"/>
      <point x="141" y="-12"/>
      <point x="55" y="93"/>
      <point x="55" y="181" type="qcurve" smooth="yes"/>
      <point x="55" y="243"/>
      <point x="87" y="366"/>
      <point x="149" y="464"/>
      <point x="243" y="524"/>
      <point x="305" y="524" type="qcurve" smooth="yes"/>
      <point x="359" y="524"/>
      <point x="436" y="473"/>
      <point x="449" y="425" type="qcurve"/>
      <point x="452" y="425" type="line"/>
      <point x="469" y="512" type="line"/>
      <point x="524" y="512" type="line"/>
      <point x="432" y="49" type="line"/>
      <point x="510" y="49" type="line"/>
      <point x="500" y="0" type="line"/>
      <point x="428" y="0" type="line" smooth="yes"/>
      <point x="378" y="0"/>
      <point x="378" y="45" type="qcurve" smooth="yes"/>
      <point x="378" y="54"/>
      <point x="389" y="112" type="qcurve"/>
      <point x="386" y="112" type="line"/>
      <point x="355" y="50"/>
      <point x="274" y="-12"/>
    </contour>
    <contour>
      <point x="346" y="600" type="qcurve" smooth="yes"/>
      <point x="288" y="600"/>
      <point x="257" y="640" type="qcurve"/>
      <point x="231" y="678"/>
      <point x="221" y="727" type="qcurve"/>
      <point x="256" y="742" type="line"/>
      <point x="268" y="714" type="line" smooth="yes"/>
      <point x="282" y="679"/>
      <point x="318" y="645"/>
      <point x="347" y="645" type="qcurve" smooth="yes"/>
      <point x="377" y="645"/>
      <point x="422" y="677"/>
      <point x="450" y="715" type="qcurve" smooth="yes"/>
      <point x="470" y="742" type="line"/>
      <point x="506" y="727" type="line"/>
      <point x="462" y="639"/>
      <point x="403" y="611" type="qcurve" smooth="yes"/>
      <point x="379" y="600"/>
    </contour>
  </outline>
</glyph>
<glyph name="Aogonek" format="2">
  <advance width="612"/>
  <unicode hex="0104"/>
  <outline>
    <contour>
      <point x="379" y="641" type="line"/>
      <point x="375" y="641" type="line"/>
      <point x="181" y="268" type="line"/>
      <point x="437" y="268" type="line"/>
    </contour>
    <contour>
      <point x="443" y="-205" type="qcurve" smooth="yes"/>
      <point x="408" y="-205"/>
      <point x="357" y="-172"/>
      <point x="357" y="-134" type="qcurve" smooth="yes"/>
      <point x="357" y="-96"/>
      <point x="413" y="-33"/>
      <point x="476" y="0" type="qcurve"/>
      <point x="443" y="217" type="line"/>
      <point x="154" y="217" type="line"/>
      <point x="41" y="0" type="line"/>
      <point x="-21" y="0" type="line"/>
      <point x="349" y="698" type="line"/>
      <point x="426" y="698" type="line"/>
      <point x="536" y="0" type="line"/>
      <point x="459" y="-47"/>
      <point x="406" y="-103"/>
      <point x="406" y="-127" type="qcurve" smooth="yes"/>
      <point x="406" y="-165"/>
      <point x="446" y="-165" type="qcurve" smooth="yes"/>
      <point x="481" y="-165"/>
      <point x="505" y="-139" type="qcurve"/>
      <point x="532" y="-170" type="line"/>
      <point x="503" y="-205"/>
    </contour>
  </outline>
</glyph>
<glyph name="Cacute" format="2">
  <advance width="599"/>
  <unicode hex="0106"/>
  <outline>
    <contour>
      <point x="290" y="-12" type="qcurve" smooth="yes"/>
      <point x="190" y="-12"/>
      <point x="60" y="122"/>
      <point x="60" y="248" type="qcurve" smooth="yes"/>
      <point x="60" y="332"/>
      <point x="103" y="497"/>
      <point x="188" y="630"/>
      <point x="313" y="710"/>
      <point x="394" y="710" type="qcurve" smooth="yes"/>
      <point x="561" y="710"/>
      <point x="605" y="558" type="qcurve"/>
      <point x="552" y="536" type="line"/>
      <point x="536" y="594"/>
      <point x="459" y="658"/>
      <point x="388" y="658" type="qcurve" smooth="yes"/>
      <point x="298" y="658"/>
      <point x="168" y="524"/>
      <point x="144" y="410" type="qcurve" smooth="yes"/>
      <point x="135" y="365"/>
      <point x="118" y="271"/>
      <point x="118" y="236" type="qcurve" smooth="yes"/>
      <point x="118" y="147"/>
      <point x="209" y="40"/>
      <point x="293" y="40" type="qcurve" smooth="yes"/>
      <point x="365" y="40"/>
      <point x="457" y="109"/>
      <point x="492" y="175" type="qcurve"/>
      <point x="541" y="151" type="line"/>
      <point x="496" y="65"/>
      <point x="376" y="-12"/>
    </contour>
    <contour>
      <point x="376" y="780" type="line"/>
      <point x="495" y="943" type="line"/>
      <point x="543" y="916" type="line"/>
      <point x="410" y="760" type="line"/>
    </contour>
  </outline>
</glyph>
<glyph name="Dcaron" format="2">
  <advance width="650"/>
  <unicode hex="010E"/>
  <outline>
    <contour>
      <point x="357" y="774" type="line"/>
      <point x="266" y="914" type="line"/>
      <point x="298" y="937" type="line"/>
      <point x="394" y="816" type="line"/>
      <point x="537" y="937" type="line"/>
      <point x="567" y="913" type="line"/>
      <point x="424" y="774" type="line"/>
    </contour>
    <contour>
      <point x="45" y="0" type="line"/>
      <point x="184" y="698" type="line"/>
      <point x="382" y="698" type="line" smooth="yes"/>
      <point x="495" y="698"/>
      <point x="618" y="568"/>
      <point x="618" y="443" type="qcurve" smooth="yes"/>
      <point x="618" y="360"/>
      <point x="575" y="202"/>
      <point x="489" y="76"/>
      <point x="362" y="0"/>
      <point x="278" y="0" type="qcurve" smooth="yes"/>
    </contour>
    <contour>
      <point x="279" y="52" type="line" smooth="yes"/>
      <point x="380" y="52"/>
      <point x="511" y="184"/>
      <point x="533" y="294" type="qcurve" smooth="yes"/>
      <point x="551" y="380" type="line"/>
      <point x="558" y="426"/>
      <point x="558" y="460" type="qcurve" smooth="yes"/>
      <point x="558" y="549"/>
      <point x="465" y="646"/>
      <point x="378" y="646" type="qcurve" smooth="yes"/>
      <point x="232" y="646" type="line"/>
      <point x="114" y="52" type="line"/>
    </contour>
  </outline>
</glyph>
<glyph name="Edot" format="2">
  <advance width="560"/>
  <unicode hex="0116"/>
  <outline>
    <contour>
      <point x="400" y="799" type="qcurve" smooth="yes"/>
      <point x="366" y="799"/>
      <point x="366" y="827" type="qcurve"/>
      <point x="369" y="849" type="line"/>
      <point x="375" y="881"/>
      <point x="412" y="881" type="qcurve" smooth="yes"/>
      <point x="446" y="881"/>
      <point x="446" y="853" type="qcurve" smooth="yes"/>
      <point x="446" y="846" type="line"/>
      <point x="443" y="831" type="line"/>
      <point x="438" y="799"/>
    </contour>
    <contour>
      <point x="45" y="0" type="line"/>
      <point x="185" y="698" type="line"/>
      <point x="583" y="698" type="line"/>
      <point x="572" y="646" type="line"/>
      <point x="233" y="646" type="line"/>
      <point x="179" y="380" type="line"/>
      <point x="494" y="380" type="line"/>
      <point x="484" y="329" type="line"/>
      <point x="169" y="329" type="line"/>
      <point x="114" y="52" type="line"/>
      <point x="463" y="52" type="line"/>
      <point x="453" y="0" type="line"/>
    </contour>
  </outline>
</glyph>
<glyph name="eogonek" format="2">
  <advance width="509"/>
  <unicode hex="0119"/>
  <outline>
    <contour>
      <point x="119" y="270" type="line"/>
      <point x="302" y="276"/>
      <point x="364" y="308" type="qcurve" smooth="yes"/>
      <point x="396" y="324"/>
      <point x="421" y="367"/>
      <point x="421" y="393" type="qcurve" smooth="yes"/>
      <point x="421" y="436"/>
      <point x="360" y="476"/>
      <point x="309" y="476" type="qcurve" smooth="yes"/>
      <point x="239" y="476"/>
      <point x="139" y="375"/>
      <point x="124" y="294" type="qcurve" smooth="yes"/>
    </contour>
    <contour>
      <point x="239" y="-205" type="qcurve" smooth="yes"/>
      <point x="204" y="-205"/>
      <point x="152" y="-172"/>
      <point x="152" y="-134" type="qcurve" smooth="yes"/>
      <point x="152" y="-64"/>
      <point x="261" y="-13" type="qcurve"/>
      <point x="260" y="-10" type="line"/>
      <point x="251" y="-12"/>
      <point x="239" y="-12" type="qcurve" smooth="yes"/>
      <point x="151" y="-12"/>
      <point x="54" y="94"/>
      <point x="54" y="197" type="qcurve" smooth="yes"/>
      <point x="54" y="329"/>
      <point x="126" y="427" type="qcurve" smooth="yes"/>
      <point x="160" y="472"/>
      <point x="256" y="524"/>
      <point x="315" y="524" type="qcurve" smooth="yes"/>
      <point x="383" y="524"/>
      <point x="478" y="457"/>
      <point x="478" y="392" type="qcurve" smooth="yes"/>
      <point x="478" y="316"/>
      <point x="400" y="275" type="qcurve"/>
      <point x="318" y="230"/>
      <point x="112" y="226" type="qcurve"/>
      <point x="109" y="212"/>
      <point x="109" y="183" type="qcurve" smooth="yes"/>
      <point x="111" y="37"/>
      <point x="244" y="37" type="qcurve" smooth="yes"/>
      <point x="298" y="37"/>
      <point x="384" y="90"/>
      <point x="414" y="136" type="qcurve"/>
      <point x="452" y="106" type="line"/>
      <point x="427" y="70"/>
      <point x="368" y="25"/>
      <point x="337" y="8" type="qcurve"/>
      <point x="269" y="-32"/>
      <point x="202" y="-91"/>
      <point x="202" y="-127" type="qcurve" smooth="yes"/>
      <point x="202" y="-165"/>
      <point x="242" y="-165" type="qcurve" smooth="yes"/>
      <point x="277" y="-165"/>
      <point x="300" y="-139" type="qcurve"/>
      <point x="328" y="-170" type="line"/>
      <point x="297" y="-205"/>
    </contour>
  </outline>
</glyph>
<glyph name="Ecaron" format="2">
  <advance width="560"/>
  <unicode hex="011A"/>
  <outline>
    <contour>
      <point x="45" y="0" type="line"/>
      <point x="185" y="698" type="line"/>
      <point x="583" y="698" type="line"/>
      <point x="572" y="646" type="line"/>
      <point x="233" y="646" type="line"/>
      <point x="179" y="380" type="line"/>
      <point x="494" y="380" type="line"/>
      <point x="484" y="329" type="line"/>
      <point x="169" y="329" type="line"/>
      <point x="114" y="52" type="line"/>
      <point x="463" y="52" type="line"/>
      <point x="453" y="0" type="line"/>
    </contour>
    <contour>
      <point x="362" y="774" type="line"/>
      <point x="271" y="914" type="line"/>
      <point x="303" y="937" type="line"/>
      <point x="399" y="816" type="line"/>
      <point x="542" y="937" type="line"/>
      <point x="572" y="913" type="line"/>
      <point x="429" y="774" type="line"/>
    </contour>
  </outline>
</glyph>
<glyph name="Gdot" format="2">
  <advance width="599"/>
  <unicode hex="0120"/>
  <outline>
    <contour>
      <point x="417" y="799" type="qcurve" smooth="yes"/>
      <point x="400" y="799"/>
      <point x="382" y="814"/>
      <point x="382" y="828" type="qcurve" smooth="yes"/>
      <point x="382" y="832"/>
      <point x="384" y="840"/>
      <point x="385" y="847" type="qcurve"/>
      <point x="389" y="864"/>
      <point x="410" y="884"/>
      <point x="430" y="884" type="qcurve" smooth="yes"/>
      <point x="448" y="884"/>
      <point x="465" y="868"/>
      <point x="465" y="855" type="qcurve" smooth="yes"/>
      <point x="465" y="851"/>
      <point x="464" y="843"/>
      <point x="462" y="836" type="qcurve"/>
      <point x="459" y="819"/>
      <point x="438" y="799"/>
    </contour>
    <contour>
      <point x="576" y="349" type="line"/>
      <point x="552" y="227" type="line"/>
      <point x="537" y="159"/>
      <point x="480" y="67"/>
      <point x="405" y="11"/>
      <point x="317" y="-12"/>
      <point x="272" y="-12" type="qcurve" smooth="yes"/>
      <point x="223" y="-12"/>
      <point x="138" y="20"/>
      <point x="74" y="84"/>
      <point x="37" y="183"/>
      <point x="37" y="249" type="qcurve" smooth="yes"/>
      <point x="37" y="337"/>
      <point x="81" y="503"/>
      <point x="168" y="632"/>
      <point x="296" y="710"/>
      <point x="379" y="710" type="qcurve" smooth="yes"/>
      <point x="428" y="710"/>
      <point x="502" y="684"/>
      <point x="555" y="642"/>
      <point x="588" y="586"/>
      <point x="596" y="556" type="qcurve"/>
      <point x="542" y="528" type="line"/>
      <point x="529" y="587"/>
      <point x="446" y="656"/>
      <point x="371" y="656" type="qcurve" smooth="yes"/>
      <point x="277" y="656"/>
      <point x="148" y="532"/>
      <point x="123" y="413" type="qcurve" smooth="yes"/>
      <point x="104" y="320" type="line" smooth="yes"/>
      <point x="99" y="298"/>
      <point x="96" y="254"/>
      <point x="96" y="235" type="qcurve" smooth="yes"/>
      <point x="96" y="188"/>
      <point x="123" y="116"/>
      <point x="172" y="67"/>
      <point x="238" y="42"/>
      <point x="277" y="42" type="qcurve" smooth="yes"/>
      <point x="316" y="42"/>
      <point x="385" y="63"/>
      <point x="441" y="105"/>
      <point x="480" y="169"/>
      <point x="489" y="213" type="qcurve" smooth="yes"/>
      <point x="506" y="294" type="line"/>
      <point x="301" y="294" type="line"/>
      <point x="312" y="349" type="line"/>
    </contour>
  </outline>
</glyph>
<glyph name="Gcedilla" format="2">
  <advance width="599"/>
  <unicode hex="0122"/>
  <outline>
    <contour>
      <point x="576" y="349" type="line"/>
      <point x="552" y="227" type="line"/>
      <point x="537" y="159"/>
      <point x="480" y="67"/>
      <point x="405" y="11"/>
      <point x="317" y="-12"/>
      <point x="272" y="-12" type="qcurve" smooth="yes"/>
      <point x="223" y="-12"/>
      <point x="138" y="20"/>
      <point x="74" y="84"/>
      <point x="37" y="183"/>
      <point x="37" y="249" type="qcurve" smooth="yes"/>
      <point x="37" y="337"/>
      <point x="81" y="503"/>
      <point x="168" y="632"/>
      <point x="296" y="710"/>
      <point x="379" y="710" type="qcurve" smooth="yes"/>
      <point x="428" y="710"/>
      <point x="502" y="684"/>
      <point x="555" y="642"/>
      <point x="588" y="586"/>
      <point x="596" y="556" type="qcurve"/>
      <point x="542" y="528" type="line"/>
      <point x="529" y="587"/>
      <point x="446" y="656"/>
      <point x="371" y="656" type="qcurve" smooth="yes"/>
      <point x="277" y="656"/>
      <point x="148" y="532"/>
      <point x="123" y="413" type="qcurve" smooth="yes"/>
      <point x="104" y="320" type="line" smooth="yes"/>
      <point x="99" y="298"/>
      <point x="96" y="254"/>
      <point x="96" y="235" type="qcurve" smooth="yes"/>
      <point x="96" y="188"/>
      <point x="123" y="116"/>
      <point x="172" y="67"/>
      <point x="238" y="42"/>
      <point x="277" y="42" type="qcurve" smooth="yes"/>
      <point x="316" y="42"/>
      <point x="385" y="63"/>
      <point x="441" y="105"/>
      <point x="480" y="169"/>
      <point x="489" y="213" type="qcurve" smooth="yes"/>
      <point x="506" y="294" type="line"/>
      <point x="301" y="294" type="line"/>
      <point x="312" y="349" type="line"/>
    </contour>
    <contour>
      <point x="258" y="-66" type="qcurve" smooth="yes"/>
      <point x="277" y="-66"/>
      <point x="293" y="-82"/>
      <point x="293" y="-95" type="qcurve" smooth="yes"/>
      <point x="293" y="-99"/>
      <point x="292" y="-108"/>
      <point x="290" y="-117" type="qcurve" smooth="yes"/>
      <point x="284" y="-147"/>
      <point x="248" y="-211"/>
      <point x="223" y="-234" type="qcurve"/>
      <point x="180" y="-234" type="line"/>
      <point x="203" y="-210"/>
      <point x="228" y="-171"/>
      <point x="236" y="-151" type="qcurve"/>
      <point x="222" y="-150"/>
      <point x="209" y="-135"/>
      <point x="209" y="-124" type="qcurve" smooth="yes"/>
      <point x="209" y="-121"/>
      <point x="210" y="-111"/>
      <point x="212" y="-102" type="qcurve" smooth="yes"/>
      <point x="216" y="-85"/>
      <point x="236" y="-66"/>
    </contour>
  </outline>
</glyph>
<glyph name="Imacron" format="2">
  <advance width="251"/>
  <unicode hex="012A"/>
  <outline>
    <contour>
      <point x="45" y="0" type="line"/>
      <point x="185" y="698" type="line"/>
      <point x="243" y="698" type="line"/>
      <point x="103" y="0" type="line"/>
    </contour>
    <contour>
      <point x="101" y="820" type="line"/>
      <point x="111" y="868" type="line"/>
      <point x="377" y="868" type="line"/>
      <point x="368" y="820" type="line"/>
    </contour>
  </outline>
</glyph>
<glyph name="ibreve" format="2">
  <advance width="253"/>
  <unicode hex="012D"/>
  <outline>
    <contour>
      <point x="105" y="0" type="line" smooth="yes"/>
      <point x="54" y="0"/>
      <point x="54" y="46" type="qcurve" smooth="yes"/>
      <point x="54" y="58"/>
      <point x="56" y="64"/>
      <point x="146" y="512" type="qcurve"/>
      <point x="201" y="512" type="line"/>
      <point x="108" y="49" type="line"/>
      <point x="186" y="49" type="line"/>
      <point x="176" y="0" type="line"/>
    </contour>
    <contour>
      <point x="195" y="600" type="qcurve" smooth="yes"/>
      <point x="137" y="600"/>
      <point x="106" y="640" type="qcurve"/>
      <point x="80" y="678"/>
      <point x="70" y="727" type="qcurve"/>
      <point x="105" y="742" type="line"/>
      <point x="117" y="714" type="line" smooth="yes"/>
      <point x="131" y="679"/>
      <point x="167" y="645"/>
      <point x="196" y="645" type="qcurve" smooth="yes"/>
      <point x="226" y="645"/>
      <point x="271" y="677"/>
      <point x="299" y="715" type="qcurve" smooth="yes"/>
      <point x="319" y="742" type="line"/>
      <point x="355" y="727" type="line"/>
      <point x="311" y="639"/>
      <point x="252" y="611" type="qcurve" smooth="yes"/>
      <point x="228" y="600"/>
    </contour>
  </outline>
</glyph>
<glyph name="Idotaccent" format="2">
  <advance width="251"/>
  <unicode hex="0130"/>
  <outline>
    <contour>
      <point x="233" y="799" type="qcurve" smooth="yes"/>
      <point x="199" y="799"/>
      <point x="199" y="827" type="qcurve"/>
      <point x="202" y="849" type="line"/>
      <point x="208" y="881"/>
      <point x="245" y="881" type="qcurve" smooth="yes"/>
      <point x="279" y="881"/>
      <point x="279" y="853" type="qcurve" smooth="yes"/>
      <point x="279" y="846" type="line"/>
      <point x="276" y="831" type="line"/>
      <point x="271" y="799"/>
    </contour>
    <contour>
      <point x="45" y="0" type="line"/>
      <point x="185" y="698" type="line"/>
      <point x="243" y="698" type="line"/>
      <point x="103" y="0" type="line"/>
    </contour>
  </outline>
</glyph>
<glyph name="ij" format="2">
  <advance width="498"/>
  <unicode hex="0133"/>
  <outline>
    <contour>
      <point x="173" y="-200" type="line"/>
      <point x="183" y="-151" type="line"/>
      <point x="267" y="-151" type="line"/>
      <point x="399" y="512" type="line"/>
      <point x="454" y="512" type="line"/>
      <point x="327" y="-125" type="line" smooth="yes"/>
      <point x="319" y="-164"/>
      <point x="282" y="-200"/>
      <point x="242" y="-200" type="qcurve" smooth="yes"/>
    </contour>
    <contour>
      <point x="204" y="651" type="qcurve" smooth="yes"/>
      <point x="170" y="651"/>
      <point x="170" y="679" type="qcurve"/>
      <point x="173" y="701" type="line"/>
      <point x="179" y="733"/>
      <point x="216" y="733" type="qcurve" smooth="yes"/>
      <point x="250" y="733"/>
      <point x="250" y="705" type="qcurve" smooth="yes"/>
      <point x="250" y="698" type="line"/>
      <point x="247" y="683" type="line"/>
      <point x="242" y="651"/>
    </contour>
    <contour>
      <point x="457" y="651" type="qcurve" smooth="yes"/>
      <point x="424" y="651"/>
      <point x="424" y="679" type="qcurve"/>
      <point x="427" y="701" type="line"/>
      <point x="434" y="733"/>
      <point x="471" y="733" type="qcurve" smooth="yes"/>
      <point x="504" y="733"/>
      <point x="504" y="705" type="qcurve" smooth="yes"/>
      <point x="504" y="698" type="line"/>
      <point x="501" y="683" type="line" smooth="yes"/>
      <point x="495" y="651"/>
    </contour>
    <contour>
      <point x="105" y="0" type="line" smooth="yes"/>
      <point x="54" y="0"/>
      <point x="54" y="46" type="qcurve" smooth="yes"/>
      <point x="54" y="58"/>
      <point x="56" y="64"/>
      <point x="146" y="512" type="qcurve"/>
      <point x="201" y="512" type="line"/>
      <point x="108" y="49" type="line"/>
      <point x="186" y="49" type="line"/>
      <point x="176" y="0" type="line"/>
    </contour>
  </outline>
</glyph>
<glyph name="Jcircumflex" format="2">
  <advance width="481"/>
  <unicode hex="0134"/>
  <outline>
    <contour>
      <point x="160" y="-12" type="qcurve" smooth="yes"/>
      <point x="87" y="-12"/>
      <point x="0" y="68"/>
      <point x="-4" y="139" type="qcurve"/>
      <point x="49" y="150" type="line"/>
      <point x="53" y="99"/>
      <point x="110" y="40"/>
      <point x="162" y="40" type="qcurve" smooth="yes"/>
      <point x="288" y="40"/>
      <point x="317" y="193" type="qcurve" smooth="yes"/>
      <point x="418" y="698" type="line"/>
      <point x="476" y="698" type="line"/>
      <point x="373" y="183" type="line"/>
      <point x="328" y="-12"/>
    </contour>
    <contour>
      <point x="210" y="768" type="line"/>
      <point x="180" y="792" type="line"/>
      <point x="324" y="930" type="line"/>
      <point x="390" y="930" type="line"/>
      <point x="482" y="791" type="line"/>
      <point x="450" y="769" type="line"/>
      <point x="352" y="888" type="line"/>
    </contour>
  </outline>
</glyph>
<glyph name="u0136" format="2">
  <advance width="595"/>
  <unicode hex="0136"/>
  <outline>
    <contour>
      <point x="171" y="-232" type="line"/>
      <point x="214" y="-186"/>
      <point x="227" y="-148" type="qcurve"/>
      <point x="200" y="-144"/>
      <point x="200" y="-122" type="qcurve" smooth="yes"/>
      <point x="200" y="-88"/>
      <point x="216" y="-75" type="qcurve"/>
      <point x="226" y="-66"/>
      <point x="247" y="-66" type="qcurve" smooth="yes"/>
      <point x="281" y="-66"/>
      <point x="281" y="-94" type="qcurve" smooth="yes"/>
      <point x="281" y="-100"/>
      <point x="278" y="-116" type="qcurve"/>
      <point x="264" y="-181"/>
      <point x="212" y="-232" type="qcurve"/>
    </contour>
    <contour>
      <point x="466" y="0" type="line"/>
      <point x="290" y="361" type="line"/>
      <point x="149" y="230" type="line"/>
      <point x="103" y="0" type="line"/>
      <point x="45" y="0" type="line"/>
      <point x="185" y="698" type="line"/>
      <point x="243" y="698" type="line"/>
      <point x="166" y="314" type="line"/>
      <point x="171" y="314" type="line"/>
      <point x="578" y="698" type="line"/>
      <point x="653" y="698" type="line"/>
      <point x="334" y="398" type="line"/>
      <point x="529" y="0" type="line"/>
    </contour>
  </outline>
</glyph>
<glyph name="Lacute" format="2">
  <advance width="481"/>
  <unicode hex="0139"/>
  <outline>
    <contour>
      <point x="200" y="780" type="line"/>
      <point x="319" y="943" type="line"/>
      <point x="367" y="916" type="line"/>
      <point x="234" y="760" type="line"/>
    </contour>
    <contour>
      <point x="45" y="0" type="line"/>
      <point x="185" y="698" type="line"/>
      <point x="243" y="698" type="line"/>
      <point x="114" y="52" type="line"/>
      <point x="415" y="52" type="line"/>
      <point x="405" y="0" type="line"/>
    </contour>
  </outline>
</glyph>
<glyph name="Lcommaaccent" format="2">
  <advance width="481"/>
  <unicode hex="013B"/>
  <outline>
    <contour>
      <point x="137" y="-232" type="line"/>
      <point x="180" y="-186"/>
      <point x="193" y="-148" type="qcurve"/>
      <point x="166" y="-144"/>
      <point x="166" y="-122" type="qcurve" smooth="yes"/>
      <point x="166" y="-88"/>
      <point x="182" y="-75" type="qcurve"/>
      <point x="192" y="-66"/>
      <point x="213" y="-66" type="qcurve" smooth="yes"/>
      <point x="247" y="-66"/>
      <point x="247" y="-94" type="qcurve" smooth="yes"/>
      <point x="247" y="-100"/>
      <point x="244" y="-116" type="qcurve"/>
      <point x="230" y="-181"/>
      <point x="178" y="-232" type="qcurve"/>
    </contour>
    <contour>
      <point x="45" y="0" type="line"/>
      <point x="185" y="698" type="line"/>
      <point x="243" y="698" type="line"/>
      <point x="114" y="52" type="line"/>
      <point x="415" y="52" type="line"/>
      <point x="405" y="0" type="line"/>
    </contour>
  </outline>
</glyph>
<glyph name="Ncedilla" format="2">
  <advance width="681"/>
  <unicode hex="0145"/>
  <outline>
    <contour>
      <point x="465" y="0" type="line"/>
      <point x="228" y="615" type="line"/>
      <point x="224" y="615" type="line"/>
      <point x="101" y="0" type="line"/>
      <point x="45" y="0" type="line"/>
      <point x="185" y="698" type="line"/>
      <point x="254" y="698" type="line"/>
      <point x="491" y="83" type="line"/>
      <point x="495" y="83" type="line"/>
      <point x="618" y="698" type="line"/>
      <point x="674" y="698" type="line"/>
      <point x="534" y="0" type="line"/>
    </contour>
    <contour>
      <point x="203" y="-232" type="line"/>
      <point x="246" y="-186"/>
      <point x="259" y="-148" type="qcurve"/>
      <point x="232" y="-144"/>
      <point x="232" y="-122" type="qcurve" smooth="yes"/>
      <point x="232" y="-88"/>
      <point x="248" y="-75" type="qcurve"/>
      <point x="258" y="-66"/>
      <point x="279" y="-66" type="qcurve" smooth="yes"/>
      <point x="313" y="-66"/>
      <point x="313" y="-94" type="qcurve" smooth="yes"/>
      <point x="313" y="-100"/>
      <point x="310" y="-116" type="qcurve"/>
      <point x="296" y="-181"/>
      <point x="244" y="-232" type="qcurve"/>
    </contour>
  </outline>
</glyph>
<glyph name="napostrophe" format="2">
  <advance width="782"/>
  <unicode hex="0149"/>
  <outline>
    <contour>
      <point x="639" y="0" type="line" smooth="yes"/>
      <point x="590" y="0"/>
      <point x="590" y="42" type="qcurve" smooth="yes"/>
      <point x="590" y="50"/>
      <point x="644" y="319" type="qcurve" smooth="yes"/>
      <point x="650" y="351"/>
      <point x="650" y="376" type="qcurve" smooth="yes"/>
      <point x="650" y="474"/>
      <point x="557" y="474" type="qcurve" smooth="yes"/>
      <point x="497" y="474"/>
      <point x="447" y="425" type="qcurve"/>
      <point x="401" y="375"/>
      <point x="381" y="297" type="qcurve"/>
      <point x="322" y="0" type="line"/>
      <point x="267" y="0" type="line"/>
      <point x="369" y="512" type="line"/>
      <point x="425" y="512" type="line"/>
      <point x="404" y="409" type="line"/>
      <point x="408" y="409" type="line"/>
      <point x="435" y="467"/>
      <point x="515" y="524"/>
      <point x="574" y="524" type="qcurve" smooth="yes"/>
      <point x="640" y="524"/>
      <point x="706" y="451"/>
      <point x="706" y="385" type="qcurve" smooth="yes"/>
      <point x="706" y="357"/>
      <point x="699" y="319" type="qcurve" smooth="yes"/>
      <point x="645" y="49" type="line"/>
      <point x="723" y="49" type="line"/>
      <point x="713" y="0" type="line"/>
    </contour>
    <contour>
      <point x="107" y="520" type="line"/>
      <point x="184" y="589"/>
      <point x="206" y="652" type="qcurve"/>
      <point x="176" y="657"/>
      <point x="176" y="682" type="qcurve" smooth="yes"/>
      <point x="176" y="698"/>
      <point x="180" y="708" type="qcurve"/>
      <point x="183" y="724"/>
      <point x="204" y="750"/>
      <point x="230" y="750" type="qcurve" smooth="yes"/>
      <point x="271" y="750"/>
      <point x="271" y="718" type="qcurve" smooth="yes"/>
      <point x="271" y="701"/>
      <point x="268" y="692" type="qcurve"/>
      <point x="258" y="651"/>
      <point x="202" y="555"/>
      <point x="155" y="520" type="qcurve"/>
    </contour>
  </outline>
</glyph>
<glyph name="Odblacute" format="2">
  <advance width="671"/>
  <unicode hex="0150"/>
  <outline>
    <contour>
      <point x="302" y="779" type="line"/>
      <point x="421" y="941" type="line"/>
      <point x="467" y="916" type="line"/>
      <point x="334" y="760" type="line"/>
    </contour>
    <contour>
      <point x="460" y="779" type="line"/>
      <point x="579" y="941" type="line"/>
      <point x="624" y="916" type="line"/>
      <point x="493" y="760" type="line"/>
    </contour>
    <contour>
      <point x="295" y="-12" type="qcurve" smooth="yes"/>
      <point x="193" y="-12"/>
      <point x="60" y="120"/>
      <point x="60" y="244" type="qcurve" smooth="yes"/>
      <point x="60" y="326"/>
      <point x="104" y="491"/>
      <point x="190" y="627"/>
      <point x="320" y="710"/>
      <point x="406" y="710" type="qcurve" smooth="yes"/>
      <point x="508" y="710"/>
      <point x="641" y="579"/>
      <point x="641" y="454" type="qcurve" smooth="yes"/>
      <point x="641" y="372"/>
      <point x="598" y="207"/>
      <point x="511" y="71"/>
      <point x="381" y="-12"/>
    </contour>
    <contour>
      <point x="300" y="40" type="qcurve" smooth="yes"/>
      <point x="400" y="40"/>
      <point x="533" y="179"/>
      <point x="558" y="301" type="qcurve" smooth="yes"/>
      <point x="575" y="384" type="line"/>
      <point x="583" y="434"/>
      <point x="583" y="468" type="qcurve" smooth="yes"/>
      <point x="583" y="556"/>
      <point x="489" y="658"/>
      <point x="401" y="658" type="qcurve" smooth="yes"/>
      <point x="301" y="658"/>
      <point x="168" y="519"/>
      <point x="143" y="397" type="qcurve" smooth="yes"/>
      <point x="126" y="314" type="line"/>
      <point x="118" y="265"/>
      <point x="118" y="230" type="qcurve" smooth="yes"/>
      <point x="118" y="142"/>
      <point x="212" y="40"/>
    </contour>
  </outline>
</glyph>
<glyph name="OE" format="2">
  <advance width="935"/>
  <unicode hex="0152"/>
  <outline>
    <contour>
      <point x="304" y="-12" type="qcurve" smooth="yes"/>
      <point x="198" y="-12"/>
      <point x="60" y="117"/>
      <point x="60" y="243" type="qcurve" smooth="yes"/>
      <point x="60" y="346"/>
      <point x="94" y="445" type="qcurve"/>
      <point x="128" y="553"/>
      <point x="207" y="630" type="qcurve"/>
      <point x="294" y="710"/>
      <point x="422" y="710" type="qcurve" smooth="yes"/>
      <point x="499" y="710"/>
      <point x="559" y="698" type="qcurve"/>
      <point x="957" y="698" type="line"/>
      <point x="946" y="646" type="line"/>
      <point x="607" y="646" type="line"/>
      <point x="553" y="380" type="line"/>
      <point x="868" y="380" type="line"/>
      <point x="858" y="329" type="line"/>
      <point x="543" y="329" type="line"/>
      <point x="488" y="52" type="line"/>
      <point x="837" y="52" type="line"/>
      <point x="827" y="0" type="line"/>
      <point x="420" y="0" type="line"/>
      <point x="354" y="-12"/>
    </contour>
    <contour>
      <point x="315" y="40" type="qcurve" smooth="yes"/>
      <point x="384" y="40"/>
      <point x="430" y="55" type="qcurve"/>
      <point x="548" y="646" type="line"/>
      <point x="498" y="658"/>
      <point x="419" y="658" type="qcurve" smooth="yes"/>
      <point x="306" y="658"/>
      <point x="168" y="521"/>
      <point x="144" y="403" type="qcurve" smooth="yes"/>
      <point x="127" y="320" type="line"/>
      <point x="118" y="267"/>
      <point x="118" y="229" type="qcurve" smooth="yes"/>
      <point x="118" y="140"/>
      <point x="216" y="40"/>
    </contour>
  </outline>
</glyph>
<glyph name="racute" format="2">
  <advance width="354"/>
  <unicode hex="0155"/>
  <outline>
    <contour>
      <point x="43" y="0" type="line"/>
      <point x="145" y="512" type="line"/>
      <point x="201" y="512" type="line"/>
      <point x="178" y="405" type="line"/>
      <point x="182" y="405" type="line"/>
      <point x="205" y="449"/>
      <point x="278" y="512"/>
      <point x="344" y="512" type="qcurve" smooth="yes"/>
      <point x="376" y="512" type="line"/>
      <point x="365" y="457" type="line"/>
      <point x="332" y="457" type="line" smooth="yes"/>
      <point x="260" y="457"/>
      <point x="171" y="366"/>
      <point x="158" y="302" type="qcurve" smooth="yes"/>
      <point x="98" y="0" type="line"/>
    </contour>
    <contour>
      <point x="242" y="605" type="line"/>
      <point x="362" y="769" type="line"/>
      <point x="410" y="742" type="line"/>
      <point x="277" y="586" type="line"/>
    </contour>
  </outline>
</glyph>
<glyph name="u0156" format="2">
  <advance width="627"/>
  <unicode hex="0156"/>
  <outline>
    <contour>
      <point x="383" y="360" type="line" smooth="yes"/>
      <point x="503" y="360"/>
      <point x="528" y="475" type="qcurve" smooth="yes"/>
      <point x="539" y="522"/>
      <point x="539" y="547" type="qcurve" smooth="yes"/>
      <point x="539" y="590"/>
      <point x="489" y="646"/>
      <point x="430" y="646" type="qcurve" smooth="yes"/>
      <point x="232" y="646" type="line"/>
      <point x="176" y="360" type="line"/>
    </contour>
    <contour>
      <point x="181" y="-232" type="line"/>
      <point x="224" y="-186"/>
      <point x="237" y="-148" type="qcurve"/>
      <point x="210" y="-144"/>
      <point x="210" y="-122" type="qcurve" smooth="yes"/>
      <point x="210" y="-88"/>
      <point x="226" y="-75" type="qcurve"/>
      <point x="236" y="-66"/>
      <point x="257" y="-66" type="qcurve" smooth="yes"/>
      <point x="291" y="-66"/>
      <point x="291" y="-94" type="qcurve" smooth="yes"/>
      <point x="291" y="-100"/>
      <point x="288" y="-116" type="qcurve"/>
      <point x="274" y="-181"/>
      <point x="222" y="-232" type="qcurve"/>
    </contour>
    <contour>
      <point x="453" y="0" type="line"/>
      <point x="346" y="309" type="line"/>
      <point x="165" y="309" type="line"/>
      <point x="103" y="0" type="line"/>
      <point x="45" y="0" type="line"/>
      <point x="185" y="698" type="line"/>
      <point x="435" y="698" type="line" smooth="yes"/>
      <point x="519" y="698"/>
      <point x="599" y="607"/>
      <point x="599" y="538" type="qcurve" smooth="yes"/>
      <point x="599" y="448"/>
      <point x="499" y="322"/>
      <point x="404" y="312" type="qcurve"/>
      <point x="515" y="0" type="line"/>
    </contour>
  </outline>
</glyph>
<glyph name="rcaron" format="2">
  <advance width="354"/>
  <unicode hex="0159"/>
  <outline>
    <contour>
      <point x="43" y="0" type="line"/>
      <point x="145" y="512" type="line"/>
      <point x="201" y="512" type="line"/>
      <point x="178" y="405" type="line"/>
      <point x="182" y="405" type="line"/>
      <point x="205" y="449"/>
      <point x="278" y="512"/>
      <point x="344" y="512" type="qcurve" smooth="yes"/>
      <point x="376" y="512" type="line"/>
      <point x="365" y="457" type="line"/>
      <point x="332" y="457" type="line" smooth="yes"/>
      <point x="260" y="457"/>
      <point x="171" y="366"/>
      <point x="158" y="302" type="qcurve" smooth="yes"/>
      <point x="98" y="0" type="line"/>
    </contour>
    <contour>
      <point x="246" y="601" type="line"/>
      <point x="154" y="740" type="line"/>
      <point x="187" y="763" type="line"/>
      <point x="282" y="643" type="line"/>
      <point x="426" y="763" type="line"/>
      <point x="456" y="739" type="line"/>
      <point x="313" y="601" type="line"/>
    </contour>
  </outline>
</glyph>
<glyph name="Tcaron" format="2">
  <advance width="552"/>
  <unicode hex="0164"/>
  <outline>
    <contour>
      <point x="348" y="774" type="line"/>
      <point x="257" y="914" type="line"/>
      <point x="289" y="937" type="line"/>
      <point x="385" y="816" type="line"/>
      <point x="528" y="937" type="line"/>
      <point x="558" y="913" type="line"/>
      <point x="415" y="774" type="line"/>
    </contour>
    <contour>
      <point x="196" y="0" type="line"/>
      <point x="325" y="646" type="line"/>
      <point x="98" y="646" type="line"/>
      <point x="108" y="698" type="line"/>
      <point x="621" y="698" type="line"/>
      <point x="610" y="646" type="line"/>
      <point x="383" y="646" type="line"/>
      <point x="254" y="0" type="line"/>
    </contour>
  </outline>
</glyph>
<glyph name="Utilde" format="2">
  <advance width="650"/>
  <unicode hex="0168"/>
  <outline>
    <contour>
      <point x="499" y="792" type="qcurve" smooth="yes"/>
      <point x="476" y="792"/>
      <point x="442" y="808"/>
      <point x="425" y="820" type="qcurve" smooth="yes"/>
      <point x="390" y="844"/>
      <point x="361" y="844" type="qcurve" smooth="yes"/>
      <point x="327" y="844"/>
      <point x="297" y="815" type="qcurve"/>
      <point x="276" y="843" type="line"/>
      <point x="318" y="891"/>
      <point x="369" y="891" type="qcurve" smooth="yes"/>
      <point x="392" y="891"/>
      <point x="426" y="875"/>
      <point x="443" y="863" type="qcurve"/>
      <point x="479" y="839"/>
      <point x="507" y="839" type="qcurve" smooth="yes"/>
      <point x="542" y="839"/>
      <point x="571" y="868" type="qcurve"/>
      <point x="592" y="840" type="line"/>
      <point x="550" y="792"/>
    </contour>
    <contour>
      <point x="278" y="-12" type="qcurve" smooth="yes"/>
      <point x="186" y="-12"/>
      <point x="83" y="83"/>
      <point x="83" y="173" type="qcurve" smooth="yes"/>
      <point x="83" y="223"/>
      <point x="97" y="287" type="qcurve"/>
      <point x="179" y="698" type="line"/>
      <point x="237" y="698" type="line"/>
      <point x="145" y="233"/>
      <point x="143" y="218" type="qcurve" smooth="yes"/>
      <point x="140" y="197"/>
      <point x="140" y="178" type="qcurve" smooth="yes"/>
      <point x="140" y="113"/>
      <point x="213" y="40"/>
      <point x="284" y="40" type="qcurve" smooth="yes"/>
      <point x="380" y="40"/>
      <point x="482" y="149"/>
      <point x="506" y="279" type="qcurve" smooth="yes"/>
      <point x="590" y="698" type="line"/>
      <point x="648" y="698" type="line"/>
      <point x="563" y="275" type="line" smooth="yes"/>
      <point x="532" y="117"/>
      <point x="403" y="-12"/>
    </contour>
  </outline>
</glyph>
<glyph name="utilde" format="2">
  <advance width="557"/>
  <unicode hex="0169"/>
  <outline>
    <contour>
      <point x="199" y="-12" type="qcurve" smooth="yes"/>
      <point x="133" y="-12"/>
      <point x="67" y="61"/>
      <point x="67" y="127" type="qcurve" smooth="yes"/>
      <point x="67" y="156"/>
      <point x="74" y="193" type="qcurve" smooth="yes"/>
      <point x="138" y="512" type="line"/>
      <point x="193" y="512" type="line"/>
      <point x="129" y="193" type="line" smooth="yes"/>
      <point x="124" y="167"/>
      <point x="124" y="136" type="qcurve" smooth="yes"/>
      <point x="124" y="88"/>
      <point x="167" y="38"/>
      <point x="215" y="38" type="qcurve" smooth="yes"/>
      <point x="279" y="38"/>
      <point x="324" y="87" type="qcurve"/>
      <point x="372" y="142"/>
      <point x="390" y="215" type="qcurve"/>
      <point x="449" y="512" type="line"/>
      <point x="504" y="512" type="line"/>
      <point x="412" y="49" type="line"/>
      <point x="489" y="49" type="line"/>
      <point x="480" y="0" type="line"/>
      <point x="407" y="0" type="line" smooth="yes"/>
      <point x="382" y="0"/>
      <point x="358" y="25"/>
      <point x="358" y="46" type="qcurve" smooth="yes"/>
      <point x="358" y="54"/>
      <point x="367" y="103" type="qcurve"/>
      <point x="363" y="103" type="line"/>
      <point x="336" y="45"/>
      <point x="256" y="-12"/>
    </contour>
    <contour>
      <point x="414" y="618" type="qcurve" smooth="yes"/>
      <point x="391" y="618"/>
      <point x="357" y="634"/>
      <point x="340" y="646" type="qcurve" smooth="yes"/>
      <point x="305" y="670"/>
      <point x="276" y="670" type="qcurve" smooth="yes"/>
      <point x="242" y="670"/>
      <point x="212" y="641" type="qcurve"/>
      <point x="191" y="669" type="line"/>
      <point x="233" y="717"/>
      <point x="284" y="717" type="qcurve" smooth="yes"/>
      <point x="307" y="717"/>
      <point x="341" y="701"/>
      <point x="358" y="689" type="qcurve"/>
      <point x="394" y="665"/>
      <point x="422" y="665" type="qcurve" smooth="yes"/>
      <point x="457" y="665"/>
      <point x="486" y="694" type="qcurve"/>
      <point x="507" y="666" type="line"/>
      <point x="465" y="618"/>
    </contour>
  </outline>
</glyph>
<glyph name="Umacron" format="2">
  <advance width="650"/>
  <unicode hex="016A"/>
  <outline>
    <contour>
      <point x="299" y="820" type="line"/>
      <point x="309" y="868" type="line"/>
      <point x="575" y="868" type="line"/>
      <point x="566" y="820" type="line"/>
    </contour>
    <contour>
      <point x="278" y="-12" type="qcurve" smooth="yes"/>
      <point x="186" y="-12"/>
      <point x="83" y="83"/>
      <point x="83" y="173" type="qcurve" smooth="yes"/>
      <point x="83" y="223"/>
      <point x="97" y="287" type="qcurve"/>
      <point x="179" y="698" type="line"/>
      <point x="237" y="698" type="line"/>
      <point x="145" y="233"/>
      <point x="143" y="218" type="qcurve" smooth="yes"/>
      <point x="140" y="197"/>
      <point x="140" y="178" type="qcurve" smooth="yes"/>
      <point x="140" y="113"/>
      <point x="213" y="40"/>
      <point x="284" y="40" type="qcurve" smooth="yes"/>
      <point x="380" y="40"/>
      <point x="482" y="149"/>
      <point x="506" y="279" type="qcurve" smooth="yes"/>
      <point x="590" y="698" type="line"/>
      <point x="648" y="698" type="line"/>
      <point x="563" y="275" type="line" smooth="yes"/>
      <point x="532" y="117"/>
      <point x="403" y="-12"/>
    </contour>
  </outline>
</glyph>
<glyph name="Wcircumflex" format="2">
  <advance width="863"/>
  <unicode hex="0174"/>
  <outline>
    <contour>
      <point x="381" y="792" type="line"/>
      <point x="525" y="930" type="line"/>
      <point x="591" y="930" type="line"/>
      <point x="683" y="791" type="line"/>
      <point x="651" y="769" type="line"/>
      <point x="553" y="888" type="line"/>
      <point x="411" y="768" type="line"/>
    </contour>
    <contour>
      <point x="545" y="0" type="line"/>
      <point x="507" y="628" type="line"/>
      <point x="503" y="628" type="line"/>
      <point x="213" y="0" type="line"/>
      <point x="143" y="0" type="line"/>
      <point x="110" y="698" type="line"/>
      <point x="168" y="698" type="line"/>
      <point x="193" y="76" type="line"/>
      <point x="196" y="76" type="line"/>
      <point x="482" y="698" type="line"/>
      <point x="553" y="698" type="line"/>
      <point x="591" y="76" type="line"/>
      <point x="594" y="76" type="line"/>
      <point x="872" y="698" type="line"/>
      <point x="933" y="698" type="line"/>
      <point x="613" y="0" type="line"/>
    </contour>
  </outline>
</glyph>
<glyph name="Ydieresis" format="2">
  <advance width="563"/>
  <unicode hex="0178"/>
  <outline>
    <contour>
      <point x="290" y="800" type="qcurve" smooth="yes"/>
      <point x="256" y="800"/>
      <point x="256" y="828" type="qcurve"/>
      <point x="259" y="850" type="line"/>
      <point x="265" y="882"/>
      <point x="302" y="882" type="qcurve" smooth="yes"/>
      <point x="336" y="882"/>
      <point x="336" y="854" type="qcurve" smooth="yes"/>
      <point x="336" y="847" type="line"/>
      <point x="333" y="832" type="line"/>
      <point x="328" y="800"/>
    </contour>
    <contour>
      <point x="472" y="800" type="qcurve" smooth="yes"/>
      <point x="438" y="800"/>
      <point x="438" y="828" type="qcurve"/>
      <point x="441" y="850" type="line"/>
      <point x="447" y="882"/>
      <point x="484" y="882" type="qcurve" smooth="yes"/>
      <point x="518" y="882"/>
      <point x="518" y="854" type="qcurve" smooth="yes"/>
      <point x="518" y="847" type="line"/>
      <point x="515" y="832" type="line"/>
      <point x="510" y="800"/>
    </contour>
    <contour>
      <point x="201" y="0" type="line"/>
      <point x="257" y="281" type="line"/>
      <point x="107" y="698" type="line"/>
      <point x="166" y="698" type="line"/>
      <point x="294" y="343" type="line"/>
      <point x="298" y="343" type="line"/>
      <point x="568" y="698" type="line"/>
      <point x="635" y="698" type="line"/>
      <point x="315" y="281" type="line"/>
      <point x="259" y="0" type="line"/>
    </contour>
  </outline>
</glyph>
<glyph name="Zacute" format="2">
  <advance width="555"/>
  <unicode hex="0179"/>
  <outline>
    <contour>
      <point x="-18" y="0" type="line"/>
      <point x="-6" y="56" type="line"/>
      <point x="515" y="646" type="line"/>
      <point x="126" y="646" type="line"/>
      <point x="137" y="698" type="line"/>
      <point x="594" y="698" type="line"/>
      <point x="583" y="642" type="line"/>
      <point x="61" y="52" type="line"/>
      <point x="479" y="52" type="line"/>
      <point x="468" y="0" type="line"/>
    </contour>
    <contour>
      <point x="337" y="780" type="line"/>
      <point x="456" y="943" type="line"/>
      <point x="504" y="916" type="line"/>
      <point x="371" y="760" type="line"/>
    </contour>
  </outline>
</glyph>
<glyph name="Zdot" format="2">
  <advance width="555"/>
  <unicode hex="017B"/>
  <outline>
    <contour>
      <point x="377" y="799" type="qcurve" smooth="yes"/>
      <point x="343" y="799"/>
      <point x="343" y="827" type="qcurve"/>
      <point x="346" y="849" type="line"/>
      <point x="352" y="881"/>
      <point x="389" y="881" type="qcurve" smooth="yes"/>
      <point x="423" y="881"/>
      <point x="423" y="853" type="qcurve" smooth="yes"/>
      <point x="423" y="846" type="line"/>
      <point x="420" y="831" type="line"/>
      <point x="415" y="799"/>
    </contour>
    <contour>
      <point x="-18" y="0" type="line"/>
      <point x="-6" y="56" type="line"/>
      <point x="515" y="646" type="line"/>
      <point x="126" y="646" type="line"/>
      <point x="137" y="698" type="line"/>
      <point x="594" y="698" type="line"/>
      <point x="583" y="642" type="line"/>
      <point x="61" y="52" type="line"/>
      <point x="479" y="52" type="line"/>
      <point x="468" y="0" type="line"/>
    </contour>
  </outline>
</glyph>
<glyph name="Zcaron" format="2">
  <advance width="555"/>
  <unicode hex="017D"/>
  <outline>
    <contour>
      <point x="-18" y="0" type="line"/>
      <point x="-6" y="56" type="line"/>
      <point x="515" y="646" type="line"/>
      <point x="126" y="646" type="line"/>
      <point x="137" y="698" type="line"/>
      <point x="594" y="698" type="line"/>
      <point x="583" y="642" type="line"/>
      <point x="61" y="52" type="line"/>
      <point x="479" y="52" type="line"/>
      <point x="468" y="0" type="line"/>
    </contour>
    <contour>
      <point x="339" y="774" type="line"/>
      <point x="248" y="914" type="line"/>
      <point x="280" y="937" type="line"/>
      <point x="376" y="816" type="line"/>
      <point x="519" y="937" type="line"/>
      <point x="549" y="913" type="line"/>
      <point x="406" y="774" type="line"/>
    </contour>
  </outline>
</glyph>
<glyph name="u018F" format="2">
  <advance width="671"/>
  <unicode hex="018F"/>
  <outline>
    <contour>
      <point x="297" y="40" type="qcurve" smooth="yes"/>
      <point x="399" y="40"/>
      <point x="535" y="182"/>
      <point x="560" y="314" type="qcurve"/>
      <point x="127" y="314" type="line"/>
      <point x="118" y="264"/>
      <point x="118" y="229" type="qcurve" smooth="yes"/>
      <point x="118" y="142"/>
      <point x="210" y="40"/>
    </contour>
    <contour>
      <point x="293" y="-12" type="qcurve" smooth="yes"/>
      <point x="191" y="-12"/>
      <point x="60" y="123"/>
      <point x="60" y="241" type="qcurve" smooth="yes"/>
      <point x="60" y="290"/>
      <point x="74" y="363" type="qcurve"/>
      <point x="571" y="363" type="line"/>
      <point x="582" y="412"/>
      <point x="582" y="466" type="qcurve" smooth="yes"/>
      <point x="582" y="554"/>
      <point x="488" y="658"/>
      <point x="399" y="658" type="qcurve" smooth="yes"/>
      <point x="333" y="658"/>
      <point x="213" y="586"/>
      <point x="170" y="503" type="qcurve"/>
      <point x="126" y="528" type="line"/>
      <point x="164" y="609"/>
      <point x="237" y="659" type="qcurve"/>
      <point x="307" y="710"/>
      <point x="403" y="710" type="qcurve" smooth="yes"/>
      <point x="516" y="710"/>
      <point x="641" y="570"/>
      <point x="641" y="454" type="qcurve" smooth="yes"/>
      <point x="641" y="373"/>
      <point x="599" y="210"/>
      <point x="513" y="72"/>
      <point x="382" y="-12"/>
    </contour>
  </outline>
</glyph>
<glyph name="Oslashacute" format="2">
  <advance width="671"/>
  <unicode hex="01FE"/>
  <outline>
    <contour>
      <point x="300" y="40" type="qcurve" smooth="yes"/>
      <point x="400" y="40"/>
      <point x="533" y="179"/>
      <point x="558" y="301" type="qcurve" smooth="yes"/>
      <point x="575" y="384" type="line"/>
      <point x="583" y="434"/>
      <point x="583" y="468" type="qcurve" smooth="yes"/>
      <point x="583" y="518"/>
      <point x="566" y="558" type="qcurve"/>
      <point x="161" y="99" type="line"/>
      <point x="209" y="40"/>
    </contour>
    <contour>
      <point x="540" y="599" type="line"/>
      <point x="493" y="658"/>
      <point x="401" y="658" type="qcurve" smooth="yes"/>
      <point x="301" y="658"/>
      <point x="168" y="519"/>
      <point x="143" y="397" type="qcurve" smooth="yes"/>
      <point x="126" y="314" type="line"/>
      <point x="118" y="265"/>
      <point x="118" y="230" type="qcurve" smooth="yes"/>
      <point x="118" y="181"/>
      <point x="135" y="140" type="qcurve"/>
    </contour>
    <contour>
      <point x="3" y="-9" type="line"/>
      <point x="96" y="97" type="line"/>
      <point x="60" y="154"/>
      <point x="60" y="244" type="qcurve" smooth="yes"/>
      <point x="60" y="326"/>
      <point x="104" y="491"/>
      <point x="190" y="627"/>
      <point x="320" y="710"/>
      <point x="406" y="710" type="qcurve" smooth="yes"/>
      <point x="513" y="710"/>
      <point x="575" y="642" type="qcurve"/>
      <point x="661" y="739" type="line"/>
      <point x="698" y="707" type="line"/>
      <point x="605" y="601" type="line"/>
      <point x="641" y="544"/>
      <point x="641" y="454" type="qcurve" smooth="yes"/>
      <point x="641" y="372"/>
      <point x="598" y="207"/>
      <point x="511" y="71"/>
      <point x="381" y="-12"/>
      <point x="295" y="-12" type="qcurve" smooth="yes"/>
      <point x="189" y="-12"/>
      <point x="126" y="56" type="qcurve"/>
      <point x="40" y="-41" type="line"/>
    </contour>
    <contour>
      <point x="390" y="780" type="line"/>
      <point x="509" y="943" type="line"/>
      <point x="557" y="916" type="line"/>
      <point x="424" y="760" type="line"/>
    </contour>
  </outline>
</glyph>
<glyph name="u021B" format="2">
  <advance width="313"/>
  <unicode hex="021B"/>
  <outline>
    <contour>
      <point x="51" y="-232" type="line"/>
      <point x="94" y="-186"/>
      <point x="107" y="-148" type="qcurve"/>
      <point x="80" y="-144"/>
      <point x="80" y="-122" type="qcurve" smooth="yes"/>
      <point x="80" y="-88"/>
      <point x="96" y="-75" type="qcurve"/>
      <point x="106" y="-66"/>
      <point x="127" y="-66" type="qcurve" smooth="yes"/>
      <point x="161" y="-66"/>
      <point x="161" y="-94" type="qcurve" smooth="yes"/>
      <point x="161" y="-100"/>
      <point x="158" y="-116" type="qcurve"/>
      <point x="144" y="-181"/>
      <point x="92" y="-232" type="qcurve"/>
    </contour>
    <contour>
      <point x="124" y="0" type="line" smooth="yes"/>
      <point x="72" y="0"/>
      <point x="72" y="45" type="qcurve" smooth="yes"/>
      <point x="72" y="62"/>
      <point x="75" y="73" type="qcurve"/>
      <point x="153" y="462" type="line"/>
      <point x="69" y="462" type="line"/>
      <point x="79" y="512" type="line"/>
      <point x="130" y="512" type="line" smooth="yes"/>
      <point x="153" y="512"/>
      <point x="170" y="530"/>
      <point x="173" y="552" type="qcurve"/>
      <point x="194" y="655" type="line"/>
      <point x="246" y="655" type="line"/>
      <point x="217" y="512" type="line"/>
      <point x="331" y="512" type="line"/>
      <point x="321" y="463" type="line"/>
      <point x="208" y="463" type="line"/>
      <point x="125" y="49" type="line"/>
      <point x="231" y="49" type="line"/>
      <point x="221" y="0" type="line"/>
    </contour>
  </outline>
</glyph>
<glyph name="schwa" format="2">
  <advance width="509"/>
  <unicode hex="0259"/>
  <outline>
    <contour>
      <point x="200" y="36" type="qcurve" smooth="yes"/>
      <point x="271" y="36"/>
      <point x="368" y="135"/>
      <point x="385" y="218" type="qcurve" smooth="yes"/>
      <point x="390" y="242" type="line"/>
      <point x="205" y="236"/>
      <point x="144" y="205" type="qcurve" smooth="yes"/>
      <point x="112" y="189"/>
      <point x="88" y="146"/>
      <point x="88" y="120" type="qcurve" smooth="yes"/>
      <point x="88" y="36"/>
    </contour>
    <contour>
      <point x="194" y="-12" type="qcurve" smooth="yes"/>
      <point x="127" y="-12"/>
      <point x="31" y="56"/>
      <point x="31" y="120" type="qcurve" smooth="yes"/>
      <point x="31" y="196"/>
      <point x="110" y="237" type="qcurve"/>
      <point x="191" y="281"/>
      <point x="397" y="286" type="qcurve"/>
      <point x="398" y="297" type="line" smooth="yes"/>
      <point x="400" y="317"/>
      <point x="400" y="329" type="qcurve" smooth="yes"/>
      <point x="398" y="475"/>
      <point x="264" y="475" type="qcurve" smooth="yes"/>
      <point x="161" y="475"/>
      <point x="94" y="376" type="qcurve"/>
      <point x="56" y="406" type="line"/>
      <point x="140" y="524"/>
      <point x="267" y="524" type="qcurve" smooth="yes"/>
      <point x="357" y="524"/>
      <point x="455" y="419"/>
      <point x="455" y="315" type="qcurve" smooth="yes"/>
      <point x="455" y="183"/>
      <point x="383" y="86" type="qcurve" smooth="yes"/>
      <point x="349" y="41"/>
      <point x="252" y="-12"/>
    </contour>
  </outline>
</glyph>
<glyph name="u02BB" format="2">
  <advance width="600"/>
  <unicode hex="02BB"/>
  <outline>
    <contour>
      <point x="314" y="597" type="qcurve" smooth="yes"/>
      <point x="280" y="597"/>
      <point x="280" y="625" type="qcurve" smooth="yes"/>
      <point x="280" y="630"/>
      <point x="283" y="647" type="qcurve"/>
      <point x="297" y="712"/>
      <point x="349" y="763" type="qcurve"/>
      <point x="390" y="763" type="line"/>
      <point x="347" y="717"/>
      <point x="334" y="679" type="qcurve"/>
      <point x="361" y="676"/>
      <point x="361" y="653" type="qcurve" smooth="yes"/>
      <point x="361" y="619"/>
      <point x="345" y="606" type="qcurve"/>
      <point x="335" y="597"/>
    </contour>
  </outline>
</glyph>
<glyph name="dotaccent" format="2">
  <advance width="596"/>
  <unicode hex="02D9"/>
  <outline>
    <contour>
      <point x="315" y="626" type="qcurve" smooth="yes"/>
      <point x="281" y="626"/>
      <point x="281" y="654" type="qcurve"/>
      <point x="284" y="676" type="line"/>
      <point x="290" y="708"/>
      <point x="327" y="708" type="qcurve" smooth="yes"/>
      <point x="361" y="708"/>
      <point x="361" y="680" type="qcurve" smooth="yes"/>
      <point x="361" y="673" type="line"/>
      <point x="358" y="658" type="line"/>
      <point x="353" y="626"/>
    </contour>
  </outline>
</glyph>
<glyph name="ring" format="2">
  <advance width="596"/>
  <unicode hex="02DA"/>
  <outline>
    <contour>
      <point x="307" y="581" type="qcurve" smooth="yes"/>
      <point x="262" y="581"/>
      <point x="217" y="634"/>
      <point x="217" y="670" type="qcurve" smooth="yes"/>
      <point x="217" y="726"/>
      <point x="282" y="792"/>
      <point x="337" y="792" type="qcurve" smooth="yes"/>
      <point x="382" y="792"/>
      <point x="427" y="739"/>
      <point x="427" y="703" type="qcurve" smooth="yes"/>
      <point x="427" y="647"/>
      <point x="362" y="581"/>
    </contour>
    <contour>
      <point x="312" y="617" type="qcurve" smooth="yes"/>
      <point x="371" y="617"/>
      <point x="382" y="677" type="qcurve" smooth="yes"/>
      <point x="386" y="697"/>
      <point x="386" y="707" type="qcurve" smooth="yes"/>
      <point x="386" y="756"/>
      <point x="332" y="756" type="qcurve" smooth="yes"/>
      <point x="274" y="756"/>
      <point x="262" y="696" type="qcurve" smooth="yes"/>
      <point x="258" y="677"/>
      <point x="258" y="666" type="qcurve" smooth="yes"/>
      <point x="258" y="617"/>
    </contour>
  </outline>
</glyph>
<glyph name="gravecomb" format="2">
  <advance width="0"/>
  <unicode hex="0300"/>
  <outline>
    <contour>
      <point x="-74" y="742" type="line"/>
      <point x="-25" y="766" type="line"/>
      <point x="43" y="602" type="line"/>
      <point x="10" y="586" type="line"/>
    </contour>
  </outline>
</glyph>
<glyph name="acutecomb" format="2">
  <unicode hex="0301"/>
  <outline>
    <contour>
      <point x="-22" y="605" type="line"/>
      <point x="98" y="769" type="line"/>
      <point x="146" y="742" type="line"/>
      <point x="13" y="586" type="line"/>
    </contour>
  </outline>
</glyph>
<glyph name="macroncomb" format="2">
  <unicode hex="0304"/>
  <outline>
    <contour>
      <point x="-112" y="646" type="line"/>
      <point x="-102" y="694" type="line"/>
      <point x="165" y="694" type="line"/>
      <point x="155" y="646" type="line"/>
    </contour>
  </outline>
</glyph>
<glyph name="u0306" format="2">
  <unicode hex="0306"/>
  <outline>
    <contour>
      <point x="16" y="600" type="qcurve" smooth="yes"/>
      <point x="-42" y="600"/>
      <point x="-73" y="640" type="qcurve"/>
      <point x="-99" y="678"/>
      <point x="-109" y="727" type="qcurve"/>
      <point x="-74" y="742" type="line"/>
      <point x="-62" y="714" type="line" smooth="yes"/>
      <point x="-48" y="679"/>
      <point x="-12" y="645"/>
      <point x="17" y="645" type="qcurve" smooth="yes"/>
      <point x="47" y="645"/>
      <point x="92" y="677"/>
      <point x="120" y="715" type="qcurve" smooth="yes"/>
      <point x="140" y="742" type="line"/>
      <point x="176" y="727" type="line"/>
      <point x="132" y="639"/>
      <point x="73" y="611" type="qcurve" smooth="yes"/>
      <point x="49" y="600"/>
    </contour>
  </outline>
</glyph>
<glyph name="u0308" format="2">
  <advance width="0"/>
  <unicode hex="0308"/>
  <outline>
    <contour>
      <point x="112" y="626" type="qcurve" smooth="yes"/>
      <point x="78" y="626"/>
      <point x="78" y="654" type="qcurve"/>
      <point x="81" y="676" type="line"/>
      <point x="87" y="708"/>
      <point x="124" y="708" type="qcurve" smooth="yes"/>
      <point x="158" y="708"/>
      <point x="158" y="680" type="qcurve" smooth="yes"/>
      <point x="158" y="673" type="line"/>
      <point x="155" y="658" type="line"/>
      <point x="150" y="626"/>
    </contour>
    <contour>
      <point x="-70" y="626" type="qcurve" smooth="yes"/>
      <point x="-104" y="626"/>
      <point x="-104" y="654" type="qcurve"/>
      <point x="-101" y="676" type="line"/>
      <point x="-95" y="708"/>
      <point x="-58" y="708" type="qcurve" smooth="yes"/>
      <point x="-24" y="708"/>
      <point x="-24" y="680" type="qcurve" smooth="yes"/>
      <point x="-24" y="673" type="line"/>
      <point x="-27" y="658" type="line"/>
      <point x="-32" y="626"/>
    </contour>
  </outline>
</glyph>
<glyph name="hookabovecomb" format="2">
  <unicode hex="0309"/>
  <outline>
    <contour>
      <point x="-5" y="597" type="line"/>
      <point x="77" y="711" type="line"/>
      <point x="-48" y="711" type="line"/>
      <point x="-42" y="754" type="line"/>
      <point x="75" y="754" type="line" smooth="yes"/>
      <point x="122" y="754"/>
      <point x="122" y="718" type="qcurve" smooth="yes"/>
      <point x="122" y="700"/>
      <point x="96" y="660"/>
      <point x="70" y="631" type="qcurve" smooth="yes"/>
      <point x="26" y="580" type="line"/>
    </contour>
  </outline>
</glyph>
<glyph name="ringcmb" format="2">
  <unicode hex="030A"/>
  <outline>
    <contour>
      <point x="14" y="581" type="qcurve" smooth="yes"/>
      <point x="-31" y="581"/>
      <point x="-76" y="634"/>
      <point x="-76" y="670" type="qcurve" smooth="yes"/>
      <point x="-76" y="726"/>
      <point x="-11" y="792"/>
      <point x="44" y="792" type="qcurve" smooth="yes"/>
      <point x="89" y="792"/>
      <point x="134" y="739"/>
      <point x="134" y="703" type="qcurve" smooth="yes"/>
      <point x="134" y="647"/>
      <point x="69" y="581"/>
    </contour>
    <contour>
      <point x="19" y="617" type="qcurve" smooth="yes"/>
      <point x="78" y="617"/>
      <point x="89" y="677" type="qcurve" smooth="yes"/>
      <point x="93" y="697"/>
      <point x="93" y="707" type="qcurve" smooth="yes"/>
      <point x="93" y="756"/>
      <point x="39" y="756" type="qcurve" smooth="yes"/>
      <point x="-19" y="756"/>
      <point x="-31" y="696" type="qcurve" smooth="yes"/>
      <point x="-35" y="677"/>
      <point x="-35" y="666" type="qcurve" smooth="yes"/>
      <point x="-35" y="617"/>
    </contour>
  </outline>
</glyph>
<glyph name="u030C" format="2">
  <unicode hex="030C"/>
  <outline>
    <contour>
      <point x="-18" y="601" type="line"/>
      <point x="-110" y="740" type="line"/>
      <point x="-77" y="763" type="line"/>
      <point x="18" y="643" type="line"/>
      <point x="162" y="763" type="line"/>
      <point x="192" y="739" type="line"/>
      <point x="49" y="601" type="line"/>
    </contour>
  </outline>
</glyph>
<glyph name="u031B" format="2">
  <advance width="0"/>
  <unicode hex="031B"/>
  <outline>
    <contour>
      <point x="-80" y="473" type="line"/>
      <point x="-73" y="512" type="line"/>
      <point x="8" y="512" type="line"/>
      <point x="30" y="624" type="line"/>
      <point x="80" y="624" type="line"/>
      <point x="60" y="523" type="line" smooth="yes"/>
      <point x="55" y="500"/>
      <point x="32" y="473"/>
      <point x="4" y="473" type="qcurve" smooth="yes"/>
    </contour>
  </outline>
</glyph>
<glyph name="dotbelowcomb" format="2">
  <unicode hex="0323"/>
  <outline>
    <contour>
      <point x="-28" y="-155" type="qcurve" smooth="yes"/>
      <point x="-62" y="-155"/>
      <point x="-62" y="-127" type="qcurve" smooth="yes"/>
      <point x="-62" y="-119"/>
      <point x="-59" y="-109" type="qcurve"/>
      <point x="-51" y="-73"/>
      <point x="-15" y="-73" type="qcurve" smooth="yes"/>
      <point x="-13" y="-73" type="line" smooth="yes"/>
      <point x="19" y="-73"/>
      <point x="19" y="-101" type="qcurve" smooth="yes"/>
      <point x="19" y="-106"/>
      <point x="12" y="-135"/>
      <point x="-8" y="-155"/>
    </contour>
  </outline>
</glyph>
<glyph name="u0328" format="2">
  <unicode hex="0328"/>
  <outline>
    <contour>
      <point x="-92" y="-205" type="qcurve" smooth="yes"/>
      <point x="-127" y="-205"/>
      <point x="-178" y="-172"/>
      <point x="-178" y="-134" type="qcurve" smooth="yes"/>
      <point x="-178" y="-62"/>
      <point x="-46" y="-3" type="qcurve"/>
      <point x="-49" y="12" type="line"/>
      <point x="-8" y="17" type="line"/>
      <point x="1" y="0" type="line"/>
      <point x="-75" y="-47"/>
      <point x="-129" y="-103"/>
      <point x="-129" y="-127" type="qcurve" smooth="yes"/>
      <point x="-129" y="-165"/>
      <point x="-89" y="-165" type="qcurve" smooth="yes"/>
      <point x="-56" y="-165"/>
      <point x="-30" y="-139" type="qcurve"/>
      <point x="-3" y="-170" type="line"/>
      <point x="-32" y="-205"/>
    </contour>
  </outline>
</glyph>
<glyph name="questiongreek" format="2">
  <advance width="279"/>
  <unicode hex="037E"/>
  <outline>
    <contour>
      <point x="173" y="410" type="qcurve" smooth="yes"/>
      <point x="132" y="410"/>
      <point x="132" y="442" type="qcurve" smooth="yes"/>
      <point x="132" y="447"/>
      <point x="134" y="464"/>
      <point x="136" y="470" type="qcurve"/>
      <point x="139" y="485"/>
      <point x="160" y="511"/>
      <point x="186" y="511" type="qcurve" smooth="yes"/>
      <point x="227" y="511"/>
      <point x="227" y="479" type="qcurve" smooth="yes"/>
      <point x="227" y="474"/>
      <point x="225" y="457"/>
      <point x="223" y="451" type="qcurve"/>
      <point x="220" y="436"/>
      <point x="199" y="410"/>
    </contour>
    <contour>
      <point x="100" y="92" type="qcurve" smooth="yes"/>
      <point x="141" y="92"/>
      <point x="141" y="60" type="qcurve" smooth="yes"/>
      <point x="141" y="55"/>
      <point x="140" y="40"/>
      <point x="138" y="34" type="qcurve"/>
      <point x="133" y="14"/>
      <point x="114" y="-31"/>
      <point x="86" y="-78"/>
      <point x="48" y="-121"/>
      <point x="25" y="-138" type="qcurve"/>
      <point x="-23" y="-138" type="line"/>
      <point x="17" y="-104"/>
      <point x="63" y="-37"/>
      <point x="76" y="-6" type="qcurve"/>
      <point x="46" y="-2"/>
      <point x="46" y="24" type="qcurve" smooth="yes"/>
      <point x="46" y="30"/>
      <point x="48" y="45"/>
      <point x="50" y="50" type="qcurve"/>
      <point x="54" y="66"/>
      <point x="74" y="92"/>
    </contour>
  </outline>
</glyph>
<glyph name="dialytikatonos" format="2">
  <advance width="586"/>
  <unicode hex="0385"/>
  <outline>
    <contour>
      <point x="331" y="586" type="line"/>
      <point x="299" y="596" type="line"/>
      <point x="375" y="769" type="line"/>
      <point x="421" y="754" type="line"/>
    </contour>
    <contour>
      <point x="246" y="627" type="qcurve" smooth="yes"/>
      <point x="215" y="627"/>
      <point x="215" y="655" type="qcurve" smooth="yes"/>
      <point x="215" y="660"/>
      <point x="218" y="674" type="qcurve" smooth="yes"/>
      <point x="226" y="709"/>
      <point x="258" y="709" type="qcurve" smooth="yes"/>
      <point x="289" y="709"/>
      <point x="289" y="681" type="qcurve" smooth="yes"/>
      <point x="289" y="676"/>
      <point x="286" y="663" type="qcurve" smooth="yes"/>
      <point x="282" y="646"/>
      <point x="263" y="627"/>
    </contour>
    <contour>
      <point x="449" y="627" type="qcurve" smooth="yes"/>
      <point x="435" y="627"/>
      <point x="419" y="642"/>
      <point x="419" y="655" type="qcurve" smooth="yes"/>
      <point x="419" y="660"/>
      <point x="422" y="674" type="qcurve"/>
      <point x="428" y="709"/>
      <point x="462" y="709" type="qcurve" smooth="yes"/>
      <point x="476" y="709"/>
      <point x="492" y="694"/>
      <point x="492" y="681" type="qcurve" smooth="yes"/>
      <point x="492" y="676"/>
      <point x="489" y="663" type="qcurve" smooth="yes"/>
      <point x="485" y="646"/>
      <point x="466" y="627"/>
    </contour>
  </outline>
</glyph>
<glyph name="Omegatonos" format="2">
  <advance width="695"/>
  <unicode hex="038F"/>
  <outline>
    <contour>
      <point x="33" y="52" type="line"/>
      <point x="196" y="52" type="line"/>
      <point x="199" y="67" type="line"/>
      <point x="153" y="99"/>
      <point x="98" y="211"/>
      <point x="98" y="291" type="qcurve" smooth="yes"/>
      <point x="98" y="367"/>
      <point x="142" y="517"/>
      <point x="227" y="636"/>
      <point x="353" y="710"/>
      <point x="435" y="710" type="qcurve" smooth="yes"/>
      <point x="486" y="710"/>
      <point x="571" y="678"/>
      <point x="631" y="615"/>
      <point x="664" y="524"/>
      <point x="664" y="466" type="qcurve" smooth="yes"/>
      <point x="664" y="401"/>
      <point x="638" y="277"/>
      <point x="583" y="172"/>
      <point x="500" y="91"/>
      <point x="443" y="67" type="qcurve"/>
      <point x="439" y="52" type="line"/>
      <point x="601" y="52" type="line"/>
      <point x="591" y="0" type="line"/>
      <point x="379" y="0" type="line"/>
      <point x="396" y="87" type="line"/>
      <point x="464" y="115"/>
      <point x="565" y="227"/>
      <point x="581" y="308" type="qcurve" smooth="yes"/>
      <point x="599" y="399" type="line"/>
      <point x="604" y="419"/>
      <point x="606" y="458"/>
      <point x="606" y="481" type="qcurve" smooth="yes"/>
      <point x="606" y="562"/>
      <point x="515" y="658"/>
      <point x="430" y="658" type="qcurve" smooth="yes"/>
      <point x="333" y="658"/>
      <point x="199" y="530"/>
      <point x="176" y="414" type="qcurve" smooth="yes"/>
      <point x="160" y="332" type="line" smooth="yes"/>
      <point x="157" y="318"/>
      <point x="156" y="285"/>
      <point x="156" y="270" type="qcurve" smooth="yes"/>
      <point x="156" y="200"/>
      <point x="211" y="110"/>
      <point x="253" y="87" type="qcurve"/>
      <point x="235" y="0" type="line"/>
      <point x="23" y="0" type="line"/>
    </contour>
    <contour>
      <point x="92" y="586" type="line"/>
      <point x="56" y="596" type="line"/>
      <point x="132" y="769" type="line"/>
      <point x="183" y="754" type="line"/>
    </contour>
  </outline>
</glyph>
<glyph name="iotadieresistonos" format="2">
  <advance width="269"/>
  <unicode hex="0390"/>
  <outline>
    <contour>
      <point x="302" y="0" type="line"/>
      <point x="205" y="0" type="line" smooth="yes"/>
      <point x="177" y="0"/>
      <point x="153" y="25"/>
      <point x="153" y="45" type="qcurve" smooth="yes"/>
      <point x="153" y="61"/>
      <point x="156" y="73" type="qcurve"/>
      <point x="244" y="512" type="line"/>
      <point x="299" y="512" type="line"/>
      <point x="206" y="49" type="line"/>
      <point x="312" y="49" type="line"/>
    </contour>
    <contour>
      <point x="291" y="586" type="line"/>
      <point x="259" y="596" type="line"/>
      <point x="335" y="769" type="line"/>
      <point x="381" y="754" type="line"/>
    </contour>
    <contour>
      <point x="206" y="627" type="qcurve" smooth="yes"/>
      <point x="175" y="627"/>
      <point x="175" y="655" type="qcurve" smooth="yes"/>
      <point x="175" y="660"/>
      <point x="178" y="674" type="qcurve" smooth="yes"/>
      <point x="186" y="709"/>
      <point x="218" y="709" type="qcurve" smooth="yes"/>
      <point x="249" y="709"/>
      <point x="249" y="681" type="qcurve" smooth="yes"/>
      <point x="249" y="676"/>
      <point x="246" y="663" type="qcurve" smooth="yes"/>
      <point x="242" y="646"/>
      <point x="223" y="627"/>
    </contour>
    <contour>
      <point x="409" y="627" type="qcurve" smooth="yes"/>
      <point x="395" y="627"/>
      <point x="379" y="642"/>
      <point x="379" y="655" type="qcurve" smooth="yes"/>
      <point x="379" y="660"/>
      <point x="382" y="674" type="qcurve"/>
      <point x="388" y="709"/>
      <point x="422" y="709" type="qcurve" smooth="yes"/>
      <point x="436" y="709"/>
      <point x="452" y="694"/>
      <point x="452" y="681" type="qcurve" smooth="yes"/>
      <point x="452" y="676"/>
      <point x="449" y="663" type="qcurve" smooth="yes"/>
      <point x="445" y="646"/>
      <point x="426" y="627"/>
    </contour>
  </outline>
</glyph>
<glyph name="Lambda" format="2">
  <advance width="606"/>
  <unicode hex="039B"/>
  <outline>
    <contour>
      <point x="423" y="698" type="line"/>
      <point x="530" y="0" type="line"/>
      <point x="471" y="0" type="line"/>
      <point x="376" y="641" type="line"/>
      <point x="372" y="641" type="line"/>
      <point x="41" y="0" type="line"/>
      <point x="-21" y="0" type="line"/>
      <point x="346" y="698" type="line"/>
    </contour>
  </outline>
</glyph>
<glyph name="Upsilon" format="2">
  <advance width="563"/>
  <unicode hex="03A5"/>
  <outline>
    <contour>
      <point x="340" y="0" type="line"/>
      <point x="396" y="281" type="line"/>
      <point x="246" y="698" type="line"/>
      <point x="305" y="698" type="line"/>
      <point x="433" y="343" type="line"/>
      <point x="437" y="343" type="line"/>
      <point x="707" y="698" type="line"/>
      <point x="774" y="698" type="line"/>
      <point x="454" y="281" type="line"/>
      <point x="398" y="0" type="line"/>
    </contour>
  </outline>
</glyph>
<glyph name="Iotadieresis" format="2">
  <advance width="251"/>
  <unicode hex="03AA"/>
  <outline>
    <contour>
      <point x="90" y="0" type="line"/>
      <point x="230" y="698" type="line"/>
      <point x="288" y="698" type="line"/>
      <point x="148" y="0" type="line"/>
    </contour>
    <contour>
      <point x="191" y="800" type="qcurve" smooth="yes"/>
      <point x="172" y="800"/>
      <point x="157" y="817"/>
      <point x="157" y="828" type="qcurve" smooth="yes"/>
      <point x="157" y="831"/>
      <point x="158" y="839"/>
      <point x="160" y="850" type="qcurve" smooth="yes"/>
      <point x="166" y="882"/>
      <point x="203" y="882" type="qcurve" smooth="yes"/>
      <point x="222" y="882"/>
      <point x="237" y="865"/>
      <point x="237" y="854" type="qcurve" smooth="yes"/>
      <point x="237" y="851"/>
      <point x="236" y="843"/>
      <point x="234" y="832" type="qcurve" smooth="yes"/>
      <point x="228" y="800"/>
    </contour>
    <contour>
      <point x="373" y="800" type="qcurve" smooth="yes"/>
      <point x="354" y="800"/>
      <point x="339" y="817"/>
      <point x="339" y="828" type="qcurve" smooth="yes"/>
      <point x="339" y="831"/>
      <point x="340" y="839"/>
      <point x="342" y="850" type="qcurve" smooth="yes"/>
      <point x="348" y="882"/>
      <point x="385" y="882" type="qcurve" smooth="yes"/>
      <point x="404" y="882"/>
      <point x="419" y="865"/>
      <point x="419" y="854" type="qcurve" smooth="yes"/>
      <point x="419" y="851"/>
      <point x="418" y="843"/>
      <point x="416" y="832" type="qcurve" smooth="yes"/>
      <point x="410" y="800"/>
    </contour>
  </outline>
</glyph>
<glyph name="epsilontonos" format="2">
  <advance width="513"/>
  <unicode hex="03AD"/>
  <outline>
    <contour>
      <point x="442" y="80" type="line"/>
      <point x="419" y="55"/>
      <point x="372" y="20"/>
      <point x="319" y="-2"/>
      <point x="259" y="-12"/>
      <point x="223" y="-12" type="qcurve" smooth="yes"/>
      <point x="178" y="-12"/>
      <point x="112" y="8"/>
      <point x="68" y="44"/>
      <point x="47" y="92"/>
      <point x="47" y="120" type="qcurve" smooth="yes"/>
      <point x="47" y="180"/>
      <point x="124" y="257"/>
      <point x="196" y="265" type="qcurve"/>
      <point x="197" y="268" type="line"/>
      <point x="154" y="278"/>
      <point x="109" y="330"/>
      <point x="109" y="368" type="qcurve" smooth="yes"/>
      <point x="109" y="401"/>
      <point x="136" y="458"/>
      <point x="187" y="500"/>
      <point x="263" y="524"/>
      <point x="313" y="524" type="qcurve" smooth="yes"/>
      <point x="379" y="524"/>
      <point x="463" y="488"/>
      <point x="494" y="452" type="qcurve"/>
      <point x="456" y="418" type="line"/>
      <point x="432" y="447"/>
      <point x="363" y="475"/>
      <point x="309" y="475" type="qcurve" smooth="yes"/>
      <point x="240" y="475"/>
      <point x="175" y="427"/>
      <point x="167" y="391" type="qcurve"/>
      <point x="164" y="379"/>
      <point x="164" y="363" type="qcurve" smooth="yes"/>
      <point x="164" y="328"/>
      <point x="219" y="288"/>
      <point x="271" y="288" type="qcurve" smooth="yes"/>
      <point x="372" y="288" type="line"/>
      <point x="362" y="241" type="line"/>
      <point x="252" y="241" type="line" smooth="yes"/>
      <point x="192" y="241"/>
      <point x="113" y="196"/>
      <point x="105" y="154" type="qcurve" smooth="yes"/>
      <point x="103" y="143"/>
      <point x="102" y="130"/>
      <point x="102" y="122" type="qcurve" smooth="yes"/>
      <point x="102" y="83"/>
      <point x="162" y="37"/>
      <point x="226" y="37" type="qcurve" smooth="yes"/>
      <point x="285" y="37"/>
      <point x="370" y="71"/>
      <point x="407" y="113" type="qcurve"/>
    </contour>
    <contour>
      <point x="339" y="586" type="line"/>
      <point x="303" y="596" type="line"/>
      <point x="379" y="769" type="line"/>
      <point x="430" y="754" type="line"/>
    </contour>
  </outline>
</glyph>
<glyph name="iotatonos" format="2">
  <advance width="269"/>
  <unicode hex="03AF"/>
  <outline>
    <contour>
      <point x="210" y="586" type="line"/>
      <point x="174" y="596" type="line"/>
      <point x="250" y="769" type="line"/>
      <point x="301" y="754" type="line"/>
    </contour>
    <contour>
      <point x="204" y="0" type="line"/>
      <point x="107" y="0" type="line" smooth="yes"/>
      <point x="79" y="0"/>
      <point x="55" y="25"/>
      <point x="55" y="45" type="qcurve" smooth="yes"/>
      <point x="55" y="61"/>
      <point x="58" y="73" type="qcurve"/>
      <point x="146" y="512" type="line"/>
      <point x="201" y="512" type="line"/>
      <point x="108" y="49" type="line"/>
      <point x="214" y="49" type="line"/>
    </contour>
  </outline>
</glyph>
<glyph name="pi" format="2">
  <advance width="589"/>
  <unicode hex="03C0"/>
  <outline>
    <contour>
      <point x="406" y="0" type="line" smooth="yes"/>
      <point x="380" y="0"/>
      <point x="356" y="25"/>
      <point x="356" y="46" type="qcurve" smooth="yes"/>
      <point x="356" y="51"/>
      <point x="357" y="60"/>
      <point x="358" y="66" type="qcurve"/>
      <point x="438" y="463" type="line"/>
      <point x="215" y="463" type="line"/>
      <point x="123" y="0" type="line"/>
      <point x="67" y="0" type="line"/>
      <point x="160" y="463" type="line"/>
      <point x="65" y="463" type="line"/>
      <point x="76" y="512" type="line"/>
      <point x="610" y="512" type="line"/>
      <point x="600" y="463" type="line"/>
      <point x="494" y="463" type="line"/>
      <point x="410" y="49" type="line"/>
      <point x="484" y="49" type="line"/>
      <point x="475" y="0" type="line"/>
    </contour>
  </outline>
</glyph>
<glyph name="rho" format="2">
  <advance width="543"/>
  <unicode hex="03C1"/>
  <outline>
    <contour>
      <point x="234" y="38" type="qcurve" smooth="yes"/>
      <point x="306" y="38"/>
      <point x="399" y="133"/>
      <point x="416" y="218" type="qcurve" smooth="yes"/>
      <point x="427" y="276" type="line" smooth="yes"/>
      <point x="433" y="304"/>
      <point x="433" y="339" type="qcurve" smooth="yes"/>
      <point x="433" y="396"/>
      <point x="370" y="475"/>
      <point x="307" y="475" type="qcurve" smooth="yes"/>
      <point x="247" y="475"/>
      <point x="152" y="388"/>
      <point x="133" y="294" type="qcurve" smooth="yes"/>
      <point x="108" y="171" type="line"/>
      <point x="106" y="159"/>
      <point x="106" y="146" type="qcurve" smooth="yes"/>
      <point x="106" y="134"/>
      <point x="113" y="98"/>
      <point x="143" y="61"/>
      <point x="196" y="38"/>
    </contour>
    <contour>
      <point x="76" y="284" type="line" smooth="yes"/>
      <point x="87" y="339"/>
      <point x="127" y="428"/>
      <point x="186" y="490"/>
      <point x="264" y="524"/>
      <point x="314" y="524" type="qcurve" smooth="yes"/>
      <point x="396" y="524"/>
      <point x="489" y="419"/>
      <point x="489" y="327" type="qcurve" smooth="yes"/>
      <point x="489" y="267"/>
      <point x="458" y="147"/>
      <point x="395" y="49"/>
      <point x="301" y="-12"/>
      <point x="238" y="-12" type="qcurve" smooth="yes"/>
      <point x="184" y="-12"/>
      <point x="108" y="40"/>
      <point x="96" y="88" type="qcurve"/>
      <point x="92" y="88" type="line"/>
      <point x="34" y="-200" type="line"/>
      <point x="-21" y="-200" type="line"/>
    </contour>
  </outline>
</glyph>
<glyph name="iotadieresis" format="2">
  <advance width="269"/>
  <unicode hex="03CA"/>
  <outline>
    <contour>
      <point x="209" y="626" type="qcurve" smooth="yes"/>
      <point x="190" y="626"/>
      <point x="175" y="643"/>
      <point x="175" y="654" type="qcurve" smooth="yes"/>
      <point x="175" y="657"/>
      <point x="176" y="665"/>
      <point x="178" y="676" type="qcurve" smooth="yes"/>
      <point x="184" y="708"/>
      <point x="221" y="708" type="qcurve" smooth="yes"/>
      <point x="240" y="708"/>
      <point x="255" y="691"/>
      <point x="255" y="680" type="qcurve" smooth="yes"/>
      <point x="255" y="677"/>
      <point x="254" y="669"/>
      <point x="252" y="658" type="qcurve" smooth="yes"/>
      <point x="246" y="626"/>
    </contour>
    <contour>
      <point x="391" y="626" type="qcurve" smooth="yes"/>
      <point x="372" y="626"/>
      <point x="357" y="643"/>
      <point x="357" y="654" type="qcurve" smooth="yes"/>
      <point x="357" y="657"/>
      <point x="358" y="665"/>
      <point x="360" y="676" type="qcurve" smooth="yes"/>
      <point x="366" y="708"/>
      <point x="403" y="708" type="qcurve" smooth="yes"/>
      <point x="422" y="708"/>
      <point x="437" y="691"/>
      <point x="437" y="680" type="qcurve" smooth="yes"/>
      <point x="437" y="677"/>
      <point x="436" y="669"/>
      <point x="434" y="658" type="qcurve" smooth="yes"/>
      <point x="428" y="626"/>
    </contour>
    <contour>
      <point x="298" y="0" type="line"/>
      <point x="201" y="0" type="line" smooth="yes"/>
      <point x="173" y="0"/>
      <point x="149" y="25"/>
      <point x="149" y="45" type="qcurve" smooth="yes"/>
      <point x="149" y="61"/>
      <point x="152" y="73" type="qcurve"/>
      <point x="240" y="512" type="line"/>
      <point x="295" y="512" type="line"/>
      <point x="202" y="49" type="line"/>
      <point x="308" y="49" type="line"/>
    </contour>
  </outline>
</glyph>
<glyph name="omicrontonos" format="2">
  <advance width="544"/>
  <unicode hex="03CC"/>
  <outline>
    <contour>
      <point x="285" y="37" type="qcurve" smooth="yes"/>
      <point x="352" y="37"/>
      <point x="448" y="133"/>
      <point x="465" y="221" type="qcurve" smooth="yes"/>
      <point x="477" y="282" type="line" smooth="yes"/>
      <point x="480" y="296"/>
      <point x="482" y="323"/>
      <point x="482" y="338" type="qcurve" smooth="yes"/>
      <point x="482" y="367"/>
      <point x="466" y="417"/>
      <point x="434" y="454"/>
      <point x="386" y="475"/>
      <point x="353" y="475" type="qcurve" smooth="yes"/>
      <point x="286" y="475"/>
      <point x="190" y="379"/>
      <point x="173" y="291" type="qcurve" smooth="yes"/>
      <point x="161" y="230" type="line" smooth="yes"/>
      <point x="158" y="216"/>
      <point x="156" y="189"/>
      <point x="156" y="174" type="qcurve" smooth="yes"/>
      <point x="156" y="115"/>
      <point x="220" y="37"/>
    </contour>
    <contour>
      <point x="278" y="-12" type="qcurve" smooth="yes"/>
      <point x="197" y="-12"/>
      <point x="100" y="94"/>
      <point x="100" y="188" type="qcurve" smooth="yes"/>
      <point x="100" y="255"/>
      <point x="136" y="376"/>
      <point x="203" y="469"/>
      <point x="300" y="524"/>
      <point x="360" y="524" type="qcurve" smooth="yes"/>
      <point x="441" y="524"/>
      <point x="538" y="418"/>
      <point x="538" y="324" type="qcurve" smooth="yes"/>
      <point x="538" y="257"/>
      <point x="502" y="136"/>
      <point x="435" y="43"/>
      <point x="338" y="-12"/>
    </contour>
    <contour>
      <point x="390" y="586" type="line"/>
      <point x="354" y="596" type="line"/>
      <point x="430" y="769" type="line"/>
      <point x="481" y="754" type="line"/>
    </contour>
  </outline>
</glyph>
<glyph name="u0401" format="2">
  <advance width="560"/>
  <unicode hex="0401"/>
  <outline>
    <contour>
      <point x="45" y="0" type="line"/>
      <point x="185" y="698" type="line"/>
      <point x="583" y="698" type="line"/>
      <point x="572" y="646" type="line"/>
      <point x="233" y="646" type="line"/>
      <point x="179" y="380" type="line"/>
      <point x="494" y="380" type="line"/>
      <point x="484" y="329" type="line"/>
      <point x="169" y="329" type="line"/>
      <point x="114" y="52" type="line"/>
      <point x="463" y="52" type="line"/>
      <point x="453" y="0" type="line"/>
    </contour>
    <contour>
      <point x="308" y="800" type="qcurve" smooth="yes"/>
      <point x="274" y="800"/>
      <point x="274" y="828" type="qcurve"/>
      <point x="277" y="850" type="line"/>
      <point x="283" y="882"/>
      <point x="320" y="882" type="qcurve" smooth="yes"/>
      <point x="354" y="882"/>
      <point x="354" y="854" type="qcurve" smooth="yes"/>
      <point x="354" y="847" type="line"/>
      <point x="351" y="832" type="line"/>
      <point x="346" y="800"/>
    </contour>
    <contour>
      <point x="490" y="800" type="qcurve" smooth="yes"/>
      <point x="456" y="800"/>
      <point x="456" y="828" type="qcurve"/>
      <point x="459" y="850" type="line"/>
      <point x="465" y="882"/>
      <point x="502" y="882" type="qcurve" smooth="yes"/>
      <point x="536" y="882"/>
      <point x="536" y="854" type="qcurve" smooth="yes"/>
      <point x="536" y="847" type="line"/>
      <point x="533" y="832" type="line"/>
      <point x="528" y="800"/>
    </contour>
  </outline>
</glyph>
<glyph name="Djecyr" format="2">
  <advance width="757"/>
  <unicode hex="0402"/>
  <outline>
    <contour>
      <point x="410" y="-164" type="line"/>
      <point x="420" y="-112" type="line"/>
      <point x="505" y="-112" type="line"/>
      <point x="537" y="-95"/>
      <point x="586" y="-18"/>
      <point x="614" y="126"/>
      <point x="620" y="158" type="qcurve"/>
      <point x="632" y="213"/>
      <point x="632" y="256" type="qcurve" smooth="yes"/>
      <point x="632" y="380"/>
      <point x="485" y="380" type="qcurve" smooth="yes"/>
      <point x="397" y="380"/>
      <point x="324" y="354" type="qcurve"/>
      <point x="254" y="0" type="line"/>
      <point x="196" y="0" type="line"/>
      <point x="325" y="646" type="line"/>
      <point x="98" y="646" type="line"/>
      <point x="108" y="698" type="line"/>
      <point x="621" y="698" type="line"/>
      <point x="610" y="646" type="line"/>
      <point x="383" y="646" type="line"/>
      <point x="335" y="405" type="line"/>
      <point x="338" y="405" type="line"/>
      <point x="410" y="432"/>
      <point x="494" y="432" type="qcurve" smooth="yes"/>
      <point x="690" y="432"/>
      <point x="690" y="256" type="qcurve" smooth="yes"/>
      <point x="690" y="214"/>
      <point x="676" y="147" type="qcurve" smooth="yes"/>
      <point x="657" y="53" type="line" smooth="yes"/>
      <point x="633" y="-64"/>
      <point x="534" y="-164"/>
      <point x="463" y="-164" type="qcurve" smooth="yes"/>
    </contour>
  </outline>
</glyph>
<glyph name="u0403" format="2">
  <advance width="485"/>
  <unicode hex="0403"/>
  <outline>
    <contour>
      <point x="45" y="0" type="line"/>
      <point x="185" y="698" type="line"/>
      <point x="539" y="698" type="line"/>
      <point x="529" y="646" type="line"/>
      <point x="233" y="646" type="line"/>
      <point x="103" y="0" type="line"/>
    </contour>
    <contour>
      <point x="331" y="780" type="line"/>
      <point x="450" y="943" type="line"/>
      <point x="498" y="916" type="line"/>
      <point x="365" y="760" type="line"/>
    </contour>
  </outline>
</glyph>
<glyph name="u0407" format="2">
  <advance width="251"/>
  <unicode hex="0407"/>
  <outline>
    <contour>
      <point x="45" y="0" type="line"/>
      <point x="185" y="698" type="line"/>
      <point x="243" y="698" type="line"/>
      <point x="103" y="0" type="line"/>
    </contour>
    <contour>
      <point x="141" y="800" type="qcurve" smooth="yes"/>
      <point x="107" y="800"/>
      <point x="107" y="828" type="qcurve"/>
      <point x="110" y="850" type="line"/>
      <point x="116" y="882"/>
      <point x="153" y="882" type="qcurve" smooth="yes"/>
      <point x="187" y="882"/>
      <point x="187" y="854" type="qcurve" smooth="yes"/>
      <point x="187" y="847" type="line"/>
      <point x="184" y="832" type="line"/>
      <point x="179" y="800"/>
    </contour>
    <contour>
      <point x="323" y="800" type="qcurve" smooth="yes"/>
      <point x="289" y="800"/>
      <point x="289" y="828" type="qcurve"/>
      <point x="292" y="850" type="line"/>
      <point x="298" y="882"/>
      <point x="335" y="882" type="qcurve" smooth="yes"/>
      <point x="369" y="882"/>
      <point x="369" y="854" type="qcurve" smooth="yes"/>
      <point x="369" y="847" type="line"/>
      <point x="366" y="832" type="line"/>
      <point x="361" y="800"/>
    </contour>
  </outline>
</glyph>
<glyph name="u040A" format="2">
  <advance width="1001"/>
  <unicode hex="040A"/>
  <outline>
    <contour>
      <point x="728" y="52" type="line" smooth="yes"/>
      <point x="854" y="52"/>
      <point x="876" y="169" type="qcurve" smooth="yes"/>
      <point x="886" y="221"/>
      <point x="886" y="249" type="qcurve" smooth="yes"/>
      <point x="886" y="294"/>
      <point x="837" y="350"/>
      <point x="775" y="350" type="qcurve" smooth="yes"/>
      <point x="583" y="350" type="line"/>
      <point x="523" y="52" type="line"/>
    </contour>
    <contour>
      <point x="454" y="0" type="line"/>
      <point x="519" y="324" type="line"/>
      <point x="168" y="324" type="line"/>
      <point x="103" y="0" type="line"/>
      <point x="45" y="0" type="line"/>
      <point x="185" y="698" type="line"/>
      <point x="243" y="698" type="line"/>
      <point x="179" y="375" type="line"/>
      <point x="529" y="375" type="line"/>
      <point x="594" y="698" type="line"/>
      <point x="652" y="698" type="line"/>
      <point x="593" y="402" type="line"/>
      <point x="779" y="402" type="line" smooth="yes"/>
      <point x="867" y="402"/>
      <point x="946" y="310"/>
      <point x="946" y="235" type="qcurve" smooth="yes"/>
      <point x="946" y="126"/>
      <point x="826" y="0"/>
      <point x="720" y="0" type="qcurve" smooth="yes"/>
    </contour>
  </outline>
</glyph>
<glyph name="afii10018" format="2">
  <advance width="606"/>
  <unicode hex="0411"/>
  <outline>
    <contour>
      <point x="45" y="0" type="line"/>
      <point x="185" y="698" type="line"/>
      <point x="571" y="698" type="line"/>
      <point x="561" y="646" type="line"/>
      <point x="233" y="646" type="line"/>
      <point x="185" y="409" type="line"/>
      <point x="372" y="409" type="line" smooth="yes"/>
      <point x="455" y="409"/>
      <point x="500" y="362" type="qcurve"/>
      <point x="539" y="316"/>
      <point x="539" y="242" type="qcurve" smooth="yes"/>
      <point x="539" y="134"/>
      <point x="418" y="0"/>
      <point x="311" y="0" type="qcurve" smooth="yes"/>
    </contour>
    <contour>
      <point x="319" y="52" type="line" smooth="yes"/>
      <point x="382" y="52"/>
      <point x="458" y="115"/>
      <point x="479" y="228"/>
      <point x="479" y="256" type="qcurve" smooth="yes"/>
      <point x="479" y="357"/>
      <point x="367" y="357" type="qcurve" smooth="yes"/>
      <point x="175" y="357" type="line"/>
      <point x="114" y="52" type="line"/>
    </contour>
  </outline>
</glyph>
<glyph name="afii10020" format="2">
  <advance width="485"/>
  <unicode hex="0413"/>
  <outline>
    <contour>
      <point x="45" y="0" type="line"/>
      <point x="185" y="698" type="line"/>
      <point x="539" y="698" type="line"/>
      <point x="529" y="646" type="line"/>
      <point x="233" y="646" type="line"/>
      <point x="103" y="0" type="line"/>
    </contour>
  </outline>
</glyph>
<glyph name="u041D" format="2">
  <advance width="682"/>
  <unicode hex="041D"/>
  <outline>
    <contour>
      <point x="476" y="0" type="line"/>
      <point x="542" y="329" type="line"/>
      <point x="169" y="329" type="line"/>
      <point x="103" y="0" type="line"/>
      <point x="45" y="0" type="line"/>
      <point x="185" y="698" type="line"/>
      <point x="243" y="698" type="line"/>
      <point x="179" y="380" type="line"/>
      <point x="552" y="380" type="line"/>
      <point x="616" y="698" type="line"/>
      <point x="674" y="698" type="line"/>
      <point x="534" y="0" type="line"/>
    </contour>
  </outline>
</glyph>
<glyph name="afii10033" format="2">
  <advance width="668"/>
  <unicode hex="041F"/>
  <outline>
    <contour>
      <point x="462" y="0" type="line"/>
      <point x="592" y="646" type="line"/>
      <point x="233" y="646" type="line"/>
      <point x="103" y="0" type="line"/>
      <point x="45" y="0" type="line"/>
      <point x="185" y="698" type="line"/>
      <point x="660" y="698" type="line"/>
      <point x="520" y="0" type="line"/>
    </contour>
  </outline>
</glyph>
<glyph name="Hacyr" format="2">
  <advance width="579"/>
  <unicode hex="0425"/>
  <outline>
    <contour>
      <point x="433" y="0" type="line"/>
      <point x="299" y="306" type="line"/>
      <point x="295" y="306" type="line"/>
      <point x="42" y="0" type="line"/>
      <point x="-27" y="0" type="line"/>
      <point x="269" y="357" type="line"/>
      <point x="119" y="698" type="line"/>
      <point x="180" y="698" type="line"/>
      <point x="312" y="397" type="line"/>
      <point x="316" y="397" type="line"/>
      <point x="565" y="698" type="line"/>
      <point x="633" y="698" type="line"/>
      <point x="339" y="348" type="line"/>
      <point x="494" y="0" type="line"/>
    </contour>
  </outline>
</glyph>
<glyph name="afii10042" format="2">
  <advance width="905"/>
  <unicode hex="0428"/>
  <outline>
    <contour>
      <point x="45" y="0" type="line"/>
      <point x="185" y="698" type="line"/>
      <point x="243" y="698" type="line"/>
      <point x="114" y="52" type="line"/>
      <point x="382" y="52" type="line"/>
      <point x="512" y="698" type="line"/>
      <point x="570" y="698" type="line"/>
      <point x="441" y="52" type="line"/>
      <point x="709" y="52" type="line"/>
      <point x="839" y="698" type="line"/>
      <point x="897" y="698" type="line"/>
      <point x="757" y="0" type="line"/>
    </contour>
  </outline>
</glyph>
<glyph name="u042A" format="2">
  <advance width="713"/>
  <unicode hex="042A"/>
  <outline>
    <contour>
      <point x="439" y="52" type="line" smooth="yes"/>
      <point x="502" y="52"/>
      <point x="578" y="115"/>
      <point x="599" y="228"/>
      <point x="599" y="256" type="qcurve" smooth="yes"/>
      <point x="599" y="357"/>
      <point x="487" y="357" type="qcurve" smooth="yes"/>
      <point x="285" y="357" type="line"/>
      <point x="224" y="52" type="line"/>
    </contour>
    <contour>
      <point x="155" y="0" type="line"/>
      <point x="285" y="646" type="line"/>
      <point x="99" y="646" type="line"/>
      <point x="110" y="698" type="line"/>
      <point x="353" y="698" type="line"/>
      <point x="296" y="409" type="line"/>
      <point x="492" y="409" type="line" smooth="yes"/>
      <point x="580" y="409"/>
      <point x="659" y="317"/>
      <point x="659" y="242" type="qcurve" smooth="yes"/>
      <point x="659" y="133"/>
      <point x="538" y="0"/>
      <point x="431" y="0" type="qcurve" smooth="yes"/>
    </contour>
  </outline>
</glyph>
<glyph name="Ylongcyr" format="2">
  <advance width="828"/>
  <unicode hex="042B"/>
  <outline>
    <contour>
      <point x="319" y="52" type="line" smooth="yes"/>
      <point x="381" y="52"/>
      <point x="457" y="115"/>
      <point x="479" y="228"/>
      <point x="479" y="256" type="qcurve" smooth="yes"/>
      <point x="479" y="357"/>
      <point x="367" y="357" type="qcurve" smooth="yes"/>
      <point x="175" y="357" type="line"/>
      <point x="114" y="52" type="line"/>
    </contour>
    <contour>
      <point x="622" y="0" type="line"/>
      <point x="762" y="698" type="line"/>
      <point x="820" y="698" type="line"/>
      <point x="680" y="0" type="line"/>
    </contour>
    <contour>
      <point x="45" y="0" type="line"/>
      <point x="185" y="698" type="line"/>
      <point x="243" y="698" type="line"/>
      <point x="186" y="409" type="line"/>
      <point x="372" y="409" type="line" smooth="yes"/>
      <point x="460" y="409"/>
      <point x="539" y="317"/>
      <point x="539" y="242" type="qcurve" smooth="yes"/>
      <point x="539" y="133"/>
      <point x="418" y="0"/>
      <point x="311" y="0" type="qcurve" smooth="yes"/>
    </contour>
  </outline>
</glyph>
<glyph name="Ereversedcyr" format="2">
  <advance width="606"/>
  <unicode hex="042D"/>
  <outline>
    <contour>
      <point x="240" y="-12" type="qcurve" smooth="yes"/>
      <point x="152" y="-12"/>
      <point x="45" y="67"/>
      <point x="21" y="154" type="qcurve"/>
      <point x="74" y="176" type="line"/>
      <point x="92" y="106"/>
      <point x="171" y="40"/>
      <point x="245" y="40" type="qcurve" smooth="yes"/>
      <point x="335" y="40"/>
      <point x="466" y="173"/>
      <point x="491" y="288" type="qcurve" smooth="yes"/>
      <point x="499" y="328" type="line"/>
      <point x="199" y="328" type="line"/>
      <point x="209" y="380" type="line"/>
      <point x="510" y="380" type="line"/>
      <point x="517" y="412"/>
      <point x="517" y="462" type="qcurve" smooth="yes"/>
      <point x="517" y="551"/>
      <point x="427" y="658"/>
      <point x="340" y="658" type="qcurve" smooth="yes"/>
      <point x="272" y="658"/>
      <point x="181" y="596"/>
      <point x="145" y="534" type="qcurve"/>
      <point x="97" y="558" type="line"/>
      <point x="139" y="633"/>
      <point x="256" y="710"/>
      <point x="343" y="710" type="qcurve" smooth="yes"/>
      <point x="447" y="710"/>
      <point x="575" y="576"/>
      <point x="575" y="450" type="qcurve" smooth="yes"/>
      <point x="575" y="364"/>
      <point x="531" y="199"/>
      <point x="446" y="67"/>
      <point x="321" y="-12"/>
    </contour>
  </outline>
</glyph>
<glyph name="Yucyr" format="2">
  <advance width="906"/>
  <unicode hex="042E"/>
  <outline>
    <contour>
      <point x="547" y="40" type="qcurve" smooth="yes"/>
      <point x="637" y="40"/>
      <point x="769" y="178"/>
      <point x="794" y="301" type="qcurve" smooth="yes"/>
      <point x="810" y="384" type="line"/>
      <point x="818" y="434"/>
      <point x="818" y="468" type="qcurve" smooth="yes"/>
      <point x="815" y="658"/>
      <point x="647" y="658" type="qcurve" smooth="yes"/>
      <point x="557" y="658"/>
      <point x="425" y="520"/>
      <point x="400" y="397" type="qcurve" smooth="yes"/>
      <point x="384" y="314" type="line"/>
      <point x="376" y="265"/>
      <point x="376" y="230" type="qcurve" smooth="yes"/>
      <point x="379" y="40"/>
    </contour>
    <contour>
      <point x="542" y="-12" type="qcurve" smooth="yes"/>
      <point x="440" y="-12"/>
      <point x="318" y="119"/>
      <point x="318" y="244" type="qcurve" smooth="yes"/>
      <point x="318" y="291"/>
      <point x="323" y="329" type="qcurve"/>
      <point x="169" y="329" type="line"/>
      <point x="103" y="0" type="line"/>
      <point x="45" y="0" type="line"/>
      <point x="185" y="698" type="line"/>
      <point x="243" y="698" type="line"/>
      <point x="179" y="380" type="line"/>
      <point x="332" y="380" type="line"/>
      <point x="361" y="518"/>
      <point x="443" y="612" type="qcurve" smooth="yes"/>
      <point x="530" y="710"/>
      <point x="652" y="710" type="qcurve" smooth="yes"/>
      <point x="754" y="710"/>
      <point x="876" y="579"/>
      <point x="876" y="454" type="qcurve" smooth="yes"/>
      <point x="876" y="372"/>
      <point x="833" y="207"/>
      <point x="749" y="71"/>
      <point x="624" y="-12"/>
    </contour>
  </outline>
</glyph>
<glyph name="afii10066" format="2">
  <advance width="544"/>
  <unicode hex="0431"/>
  <outline>
    <contour>
      <point x="233" y="-12" type="qcurve" smooth="yes"/>
      <point x="152" y="-12"/>
      <point x="55" y="95"/>
      <point x="55" y="188" type="qcurve" smooth="yes"/>
      <point x="55" y="250"/>
      <point x="94" y="434"/>
      <point x="166" y="605"/>
      <point x="214" y="655" type="qcurve"/>
      <point x="273" y="719"/>
      <point x="397" y="731" type="qcurve" smooth="yes"/>
      <point x="545" y="746" type="line"/>
      <point x="534" y="691" type="line"/>
      <point x="385" y="676" type="line"/>
      <point x="301" y="672"/>
      <point x="192" y="557"/>
      <point x="144" y="397" type="qcurve"/>
      <point x="148" y="397" type="line"/>
      <point x="175" y="455"/>
      <point x="260" y="512"/>
      <point x="325" y="512" type="qcurve" smooth="yes"/>
      <point x="397" y="512"/>
      <point x="491" y="410"/>
      <point x="491" y="324" type="qcurve" smooth="yes"/>
      <point x="491" y="186"/>
      <point x="423" y="88" type="qcurve"/>
      <point x="389" y="42"/>
      <point x="293" y="-12"/>
    </contour>
    <contour>
      <point x="240" y="37" type="qcurve" smooth="yes"/>
      <point x="307" y="37"/>
      <point x="404" y="129"/>
      <point x="421" y="217" type="qcurve" smooth="yes"/>
      <point x="426" y="245"/>
      <point x="436" y="300"/>
      <point x="436" y="328" type="qcurve" smooth="yes"/>
      <point x="436" y="387"/>
      <point x="372" y="463"/>
      <point x="306" y="463" type="qcurve" smooth="yes"/>
      <point x="239" y="463"/>
      <point x="143" y="370"/>
      <point x="125" y="283" type="qcurve" smooth="yes"/>
      <point x="120" y="256"/>
      <point x="109" y="203"/>
      <point x="109" y="173" type="qcurve" smooth="yes"/>
      <point x="109" y="114"/>
      <point x="175" y="37"/>
    </contour>
  </outline>
</glyph>
<glyph name="afii10068" format="2">
  <advance width="417"/>
  <unicode hex="0433"/>
  <outline>
    <contour>
      <point x="43" y="0" type="line"/>
      <point x="145" y="512" type="line"/>
      <point x="441" y="512" type="line"/>
      <point x="431" y="463" type="line"/>
      <point x="191" y="463" type="line"/>
      <point x="98" y="0" type="line"/>
    </contour>
  </outline>
</glyph>
<glyph name="afii10069" format="2">
  <advance width="554"/>
  <unicode hex="0434"/>
  <outline>
    <contour>
      <point x="230" y="-12" type="qcurve" smooth="yes"/>
      <point x="149" y="-12"/>
      <point x="52" y="95"/>
      <point x="52" y="188" type="qcurve" smooth="yes"/>
      <point x="52" y="314"/>
      <point x="118" y="413" type="qcurve"/>
      <point x="188" y="512"/>
      <point x="298" y="512" type="qcurve" smooth="yes"/>
      <point x="357" y="512"/>
      <point x="429" y="453"/>
      <point x="440" y="408" type="qcurve"/>
      <point x="443" y="408" type="line"/>
      <point x="443" y="456" type="line" smooth="yes"/>
      <point x="443" y="599"/>
      <point x="344" y="700"/>
      <point x="261" y="700" type="qcurve" smooth="yes"/>
      <point x="213" y="700"/>
      <point x="188" y="696" type="qcurve"/>
      <point x="199" y="748" type="line"/>
      <point x="222" y="752"/>
      <point x="262" y="752" type="qcurve" smooth="yes"/>
      <point x="369" y="752"/>
      <point x="431" y="691" type="qcurve" smooth="yes"/>
      <point x="465" y="658"/>
      <point x="499" y="545"/>
      <point x="499" y="443" type="qcurve" smooth="yes"/>
      <point x="499" y="242"/>
      <point x="437" y="122" type="qcurve" smooth="yes"/>
      <point x="368" y="-12"/>
    </contour>
    <contour>
      <point x="237" y="37" type="qcurve" smooth="yes"/>
      <point x="306" y="37"/>
      <point x="399" y="131"/>
      <point x="418" y="227" type="qcurve" smooth="yes"/>
      <point x="425" y="262" type="line" smooth="yes"/>
      <point x="433" y="300"/>
      <point x="433" y="325" type="qcurve" smooth="yes"/>
      <point x="433" y="387"/>
      <point x="370" y="463"/>
      <point x="304" y="463" type="qcurve" smooth="yes"/>
      <point x="240" y="463"/>
      <point x="142" y="367"/>
      <point x="123" y="281" type="qcurve" smooth="yes"/>
      <point x="118" y="256"/>
      <point x="107" y="203"/>
      <point x="107" y="174" type="qcurve" smooth="yes"/>
      <point x="107" y="114"/>
      <point x="172" y="37"/>
    </contour>
  </outline>
</glyph>
<glyph name="u0437" format="2">
  <advance width="474"/>
  <unicode hex="0437"/>
  <outline>
    <contour>
      <point x="192" y="-12" type="qcurve" smooth="yes"/>
      <point x="118" y="-12"/>
      <point x="28" y="47"/>
      <point x="10" y="99" type="qcurve"/>
      <point x="52" y="127" type="line"/>
      <point x="87" y="37"/>
      <point x="193" y="37" type="qcurve" smooth="yes"/>
      <point x="313" y="37"/>
      <point x="337" y="128" type="qcurve"/>
      <point x="341" y="149"/>
      <point x="341" y="165" type="qcurve" smooth="yes"/>
      <point x="341" y="200"/>
      <point x="287" y="241"/>
      <point x="233" y="241" type="qcurve" smooth="yes"/>
      <point x="139" y="241" type="line"/>
      <point x="148" y="288" type="line"/>
      <point x="242" y="288" type="line" smooth="yes"/>
      <point x="290" y="288"/>
      <point x="325" y="309" type="qcurve" smooth="yes"/>
      <point x="373" y="339"/>
      <point x="373" y="404" type="qcurve" smooth="yes"/>
      <point x="373" y="436"/>
      <point x="321" y="475"/>
      <point x="268" y="475" type="qcurve" smooth="yes"/>
      <point x="216" y="475"/>
      <point x="144" y="440"/>
      <point x="111" y="402" type="qcurve"/>
      <point x="78" y="434" type="line"/>
      <point x="145" y="524"/>
      <point x="269" y="524" type="qcurve" smooth="yes"/>
      <point x="348" y="524"/>
      <point x="428" y="457"/>
      <point x="428" y="404" type="qcurve" smooth="yes"/>
      <point x="428" y="347"/>
      <point x="361" y="278"/>
      <point x="301" y="269" type="qcurve"/>
      <point x="301" y="266" type="line"/>
      <point x="396" y="252"/>
      <point x="396" y="165" type="qcurve" smooth="yes"/>
      <point x="396" y="89"/>
      <point x="284" y="-12"/>
    </contour>
  </outline>
</glyph>
<glyph name="u0439" format="2">
  <advance width="557"/>
  <unicode hex="0439"/>
  <outline>
    <contour>
      <point x="199" y="-12" type="qcurve" smooth="yes"/>
      <point x="133" y="-12"/>
      <point x="67" y="61"/>
      <point x="67" y="127" type="qcurve" smooth="yes"/>
      <point x="67" y="156"/>
      <point x="74" y="193" type="qcurve" smooth="yes"/>
      <point x="138" y="512" type="line"/>
      <point x="193" y="512" type="line"/>
      <point x="129" y="193" type="line" smooth="yes"/>
      <point x="124" y="167"/>
      <point x="124" y="136" type="qcurve" smooth="yes"/>
      <point x="124" y="88"/>
      <point x="167" y="38"/>
      <point x="215" y="38" type="qcurve" smooth="yes"/>
      <point x="279" y="38"/>
      <point x="324" y="87" type="qcurve"/>
      <point x="372" y="142"/>
      <point x="390" y="215" type="qcurve"/>
      <point x="449" y="512" type="line"/>
      <point x="504" y="512" type="line"/>
      <point x="412" y="49" type="line"/>
      <point x="489" y="49" type="line"/>
      <point x="480" y="0" type="line"/>
      <point x="407" y="0" type="line" smooth="yes"/>
      <point x="382" y="0"/>
      <point x="358" y="25"/>
      <point x="358" y="46" type="qcurve" smooth="yes"/>
      <point x="358" y="54"/>
      <point x="367" y="103" type="qcurve"/>
      <point x="363" y="103" type="line"/>
      <point x="336" y="45"/>
      <point x="256" y="-12"/>
    </contour>
    <contour>
      <point x="338" y="600" type="qcurve" smooth="yes"/>
      <point x="295" y="600"/>
      <point x="245" y="636"/>
      <point x="231" y="674" type="qcurve" smooth="yes"/>
      <point x="216" y="717" type="line"/>
      <point x="263" y="737" type="line"/>
      <point x="285" y="661" type="line"/>
      <point x="306" y="643"/>
      <point x="343" y="643" type="qcurve" smooth="yes"/>
      <point x="378" y="643"/>
      <point x="404" y="661" type="qcurve"/>
      <point x="454" y="737" type="line"/>
      <point x="497" y="713" type="line"/>
      <point x="468" y="674" type="line" smooth="yes"/>
      <point x="439" y="636"/>
      <point x="379" y="600"/>
    </contour>
  </outline>
</glyph>
<glyph name="afii10078" format="2">
  <advance width="670"/>
  <unicode hex="043C"/>
  <outline>
    <contour>
      <point x="472" y="0" type="line"/>
      <point x="561" y="443" type="line"/>
      <point x="557" y="443" type="line"/>
      <point x="505" y="373"/>
      <point x="308" y="120" type="qcurve"/>
      <point x="249" y="282"/>
      <point x="189" y="443" type="qcurve"/>
      <point x="185" y="443" type="line"/>
      <point x="96" y="0" type="line"/>
      <point x="43" y="0" type="line"/>
      <point x="145" y="512" type="line"/>
      <point x="217" y="512" type="line"/>
      <point x="325" y="218" type="line"/>
      <point x="328" y="218" type="line"/>
      <point x="556" y="512" type="line"/>
      <point x="628" y="512" type="line"/>
      <point x="525" y="0" type="line"/>
    </contour>
  </outline>
</glyph>
<glyph name="u043F" format="2">
  <advance width="558"/>
  <unicode hex="043F"/>
  <outline>
    <contour>
      <point x="415" y="0" type="line" smooth="yes"/>
      <point x="366" y="0"/>
      <point x="366" y="42" type="qcurve" smooth="yes"/>
      <point x="366" y="50"/>
      <point x="420" y="319" type="qcurve" smooth="yes"/>
      <point x="426" y="351"/>
      <point x="426" y="376" type="qcurve" smooth="yes"/>
      <point x="426" y="474"/>
      <point x="333" y="474" type="qcurve" smooth="yes"/>
      <point x="273" y="474"/>
      <point x="223" y="425" type="qcurve"/>
      <point x="177" y="375"/>
      <point x="157" y="297" type="qcurve"/>
      <point x="98" y="0" type="line"/>
      <point x="43" y="0" type="line"/>
      <point x="145" y="512" type="line"/>
      <point x="201" y="512" type="line"/>
      <point x="180" y="409" type="line"/>
      <point x="184" y="409" type="line"/>
      <point x="211" y="467"/>
      <point x="291" y="524"/>
      <point x="350" y="524" type="qcurve" smooth="yes"/>
      <point x="416" y="524"/>
      <point x="482" y="451"/>
      <point x="482" y="385" type="qcurve" smooth="yes"/>
      <point x="482" y="357"/>
      <point x="475" y="319" type="qcurve" smooth="yes"/>
      <point x="421" y="49" type="line"/>
      <point x="499" y="49" type="line"/>
      <point x="489" y="0" type="line"/>
    </contour>
  </outline>
</glyph>
<glyph name="afii10082" format="2">
  <advance width="566"/>
  <unicode hex="0440"/>
  <outline>
    <contour>
      <point x="2" y="-200" type="line"/>
      <point x="145" y="512" type="line"/>
      <point x="200" y="512" type="line"/>
      <point x="177" y="400" type="line"/>
      <point x="180" y="400" type="line"/>
      <point x="211" y="462"/>
      <point x="292" y="524"/>
      <point x="352" y="524" type="qcurve" smooth="yes"/>
      <point x="426" y="524"/>
      <point x="469" y="471" type="qcurve" smooth="yes"/>
      <point x="511" y="417"/>
      <point x="511" y="331" type="qcurve" smooth="yes"/>
      <point x="511" y="269"/>
      <point x="480" y="147"/>
      <point x="417" y="48"/>
      <point x="323" y="-12"/>
      <point x="261" y="-12" type="qcurve" smooth="yes"/>
      <point x="207" y="-12"/>
      <point x="130" y="39"/>
      <point x="117" y="87" type="qcurve"/>
      <point x="114" y="87" type="line"/>
      <point x="57" y="-200" type="line"/>
    </contour>
    <contour>
      <point x="256" y="38" type="qcurve" smooth="yes"/>
      <point x="328" y="38"/>
      <point x="421" y="133"/>
      <point x="438" y="218" type="qcurve" smooth="yes"/>
      <point x="450" y="278" type="line" smooth="yes"/>
      <point x="455" y="303"/>
      <point x="455" y="337" type="qcurve" smooth="yes"/>
      <point x="455" y="396"/>
      <point x="399" y="474"/>
      <point x="339" y="474" type="qcurve" smooth="yes"/>
      <point x="275" y="474"/>
      <point x="231" y="427" type="qcurve"/>
      <point x="174" y="380"/>
      <point x="155" y="290" type="qcurve" smooth="yes"/>
      <point x="131" y="171" type="line" smooth="yes"/>
      <point x="128" y="157"/>
      <point x="128" y="144" type="qcurve" smooth="yes"/>
      <point x="128" y="109"/>
      <point x="150" y="80" type="qcurve" smooth="yes"/>
      <point x="183" y="38"/>
    </contour>
  </outline>
</glyph>
<glyph name="tecyr" format="2">
  <advance width="449"/>
  <unicode hex="0442"/>
  <outline>
    <contour>
      <point x="146" y="0" type="line"/>
      <point x="238" y="463" type="line"/>
      <point x="63" y="463" type="line"/>
      <point x="73" y="512" type="line"/>
      <point x="478" y="512" type="line"/>
      <point x="468" y="463" type="line"/>
      <point x="293" y="463" type="line"/>
      <point x="201" y="0" type="line"/>
    </contour>
  </outline>
</glyph>
<glyph name="afii10085" format="2">
  <advance width="475"/>
  <unicode hex="0443"/>
  <outline>
    <contour>
      <point x="-22" y="-200" type="line"/>
      <point x="-12" y="-152" type="line"/>
      <point x="77" y="-152" type="line"/>
      <point x="155" y="-11" type="line"/>
      <point x="70" y="512" type="line"/>
      <point x="124" y="512" type="line"/>
      <point x="195" y="61" type="line"/>
      <point x="199" y="61" type="line"/>
      <point x="444" y="512" type="line"/>
      <point x="503" y="512" type="line"/>
      <point x="139" y="-140" type="line"/>
      <point x="122" y="-173"/>
      <point x="86" y="-200"/>
      <point x="56" y="-200" type="qcurve" smooth="yes"/>
    </contour>
  </outline>
</glyph>
<glyph name="afii10086" format="2">
  <advance width="760"/>
  <unicode hex="0444"/>
  <outline>
    <contour>
      <point x="261" y="-200" type="line"/>
      <point x="316" y="73" type="line"/>
      <point x="313" y="73" type="line"/>
      <point x="264" y="-12"/>
      <point x="184" y="-12" type="qcurve" smooth="yes"/>
      <point x="124" y="-12"/>
      <point x="56" y="74"/>
      <point x="56" y="144" type="qcurve" smooth="yes"/>
      <point x="56" y="230"/>
      <point x="108" y="406"/>
      <point x="208" y="524"/>
      <point x="280" y="524" type="qcurve" smooth="yes"/>
      <point x="364" y="524"/>
      <point x="386" y="439" type="qcurve"/>
      <point x="389" y="439" type="line"/>
      <point x="444" y="710" type="line"/>
      <point x="499" y="710" type="line"/>
      <point x="444" y="439" type="line"/>
      <point x="447" y="439" type="line"/>
      <point x="496" y="524"/>
      <point x="576" y="524" type="qcurve" smooth="yes"/>
      <point x="636" y="524"/>
      <point x="704" y="438"/>
      <point x="704" y="368" type="qcurve" smooth="yes"/>
      <point x="704" y="303"/>
      <point x="676" y="170"/>
      <point x="618" y="58"/>
      <point x="534" y="-12"/>
      <point x="480" y="-12" type="qcurve" smooth="yes"/>
      <point x="396" y="-12"/>
      <point x="374" y="73" type="qcurve"/>
      <point x="371" y="73" type="line"/>
      <point x="316" y="-200" type="line"/>
    </contour>
    <contour>
      <point x="198" y="38" type="qcurve" smooth="yes"/>
      <point x="248" y="38"/>
      <point x="287" y="77" type="qcurve"/>
      <point x="324" y="112"/>
      <point x="334" y="163" type="qcurve" smooth="yes"/>
      <point x="373" y="357" type="line" smooth="yes"/>
      <point x="376" y="372"/>
      <point x="376" y="386" type="qcurve" smooth="yes"/>
      <point x="376" y="440"/>
      <point x="332" y="465" type="qcurve"/>
      <point x="314" y="474"/>
      <point x="290" y="474" type="qcurve" smooth="yes"/>
      <point x="236" y="474"/>
      <point x="154" y="382"/>
      <point x="135" y="291" type="qcurve" smooth="yes"/>
      <point x="123" y="232" type="line" smooth="yes"/>
      <point x="113" y="178"/>
      <point x="113" y="134" type="qcurve" smooth="yes"/>
      <point x="113" y="90"/>
      <point x="154" y="38"/>
    </contour>
    <contour>
      <point x="470" y="38" type="qcurve" smooth="yes"/>
      <point x="524" y="38"/>
      <point x="606" y="130"/>
      <point x="625" y="221" type="qcurve" smooth="yes"/>
      <point x="637" y="280" type="line"/>
      <point x="647" y="335"/>
      <point x="647" y="378" type="qcurve" smooth="yes"/>
      <point x="647" y="422"/>
      <point x="606" y="474"/>
      <point x="562" y="474" type="qcurve" smooth="yes"/>
      <point x="513" y="474"/>
      <point x="473" y="435" type="qcurve" smooth="yes"/>
      <point x="436" y="400"/>
      <point x="426" y="349" type="qcurve" smooth="yes"/>
      <point x="387" y="155" type="line" smooth="yes"/>
      <point x="384" y="140"/>
      <point x="384" y="126" type="qcurve" smooth="yes"/>
      <point x="384" y="95"/>
      <point x="400" y="73" type="qcurve"/>
      <point x="422" y="38"/>
    </contour>
  </outline>
</glyph>
<glyph name="afii10090" format="2">
  <advance width="823"/>
  <unicode hex="0448"/>
  <outline>
    <contour>
      <point x="473" y="-12" type="qcurve" smooth="yes"/>
      <point x="418" y="-12"/>
      <point x="362" y="51"/>
      <point x="357" y="106" type="qcurve"/>
      <point x="353" y="106" type="line"/>
      <point x="300" y="-12"/>
      <point x="190" y="-12" type="qcurve" smooth="yes"/>
      <point x="128" y="-12"/>
      <point x="67" y="60"/>
      <point x="67" y="126" type="qcurve" smooth="yes"/>
      <point x="67" y="156"/>
      <point x="74" y="192" type="qcurve" smooth="yes"/>
      <point x="138" y="512" type="line"/>
      <point x="193" y="512" type="line"/>
      <point x="129" y="193" type="line"/>
      <point x="123" y="158"/>
      <point x="123" y="135" type="qcurve" smooth="yes"/>
      <point x="123" y="87"/>
      <point x="163" y="38"/>
      <point x="208" y="38" type="qcurve" smooth="yes"/>
      <point x="264" y="38"/>
      <point x="306" y="85" type="qcurve" smooth="yes"/>
      <point x="352" y="136"/>
      <point x="367" y="212" type="qcurve" smooth="yes"/>
      <point x="427" y="512" type="line"/>
      <point x="482" y="512" type="line"/>
      <point x="418" y="193" type="line"/>
      <point x="412" y="157"/>
      <point x="412" y="133" type="qcurve" smooth="yes"/>
      <point x="412" y="86"/>
      <point x="450" y="38"/>
      <point x="492" y="38" type="qcurve" smooth="yes"/>
      <point x="554" y="38"/>
      <point x="644" y="154"/>
      <point x="657" y="215" type="qcurve" smooth="yes"/>
      <point x="716" y="512" type="line"/>
      <point x="771" y="512" type="line"/>
      <point x="679" y="49" type="line"/>
      <point x="756" y="49" type="line"/>
      <point x="747" y="0" type="line"/>
      <point x="674" y="0" type="line" smooth="yes"/>
      <point x="649" y="0"/>
      <point x="625" y="25"/>
      <point x="625" y="46" type="qcurve" smooth="yes"/>
      <point x="625" y="54"/>
      <point x="634" y="103" type="qcurve"/>
      <point x="630" y="103" type="line"/>
      <point x="604" y="47"/>
      <point x="530" y="-12"/>
    </contour>
  </outline>
</glyph>
<glyph name="u044A" format="2">
  <advance width="555"/>
  <unicode hex="044A"/>
  <outline>
    <contour>
      <point x="308" y="49" type="line" smooth="yes"/>
      <point x="415" y="49"/>
      <point x="434" y="142" type="qcurve"/>
      <point x="441" y="169"/>
      <point x="441" y="193" type="qcurve" smooth="yes"/>
      <point x="441" y="230"/>
      <point x="398" y="266"/>
      <point x="346" y="266" type="qcurve" smooth="yes"/>
      <point x="214" y="266" type="line"/>
      <point x="170" y="49" type="line"/>
    </contour>
    <contour>
      <point x="106" y="0" type="line"/>
      <point x="198" y="463" type="line"/>
      <point x="64" y="463" type="line"/>
      <point x="74" y="512" type="line"/>
      <point x="263" y="512" type="line"/>
      <point x="224" y="315" type="line"/>
      <point x="354" y="315" type="line" smooth="yes"/>
      <point x="430" y="315"/>
      <point x="496" y="251"/>
      <point x="496" y="192" type="qcurve" smooth="yes"/>
      <point x="496" y="113"/>
      <point x="452" y="61" type="qcurve" smooth="yes"/>
      <point x="401" y="0"/>
      <point x="308" y="0" type="qcurve" smooth="yes"/>
    </contour>
  </outline>
</glyph>
<glyph name="u044B" format="2">
  <advance width="683"/>
  <unicode hex="044B"/>
  <outline>
    <contour>
      <point x="237" y="49" type="line" smooth="yes"/>
      <point x="344" y="49"/>
      <point x="363" y="142" type="qcurve"/>
      <point x="370" y="169"/>
      <point x="370" y="193" type="qcurve" smooth="yes"/>
      <point x="370" y="230"/>
      <point x="327" y="266"/>
      <point x="275" y="266" type="qcurve" smooth="yes"/>
      <point x="151" y="266" type="line"/>
      <point x="107" y="49" type="line"/>
    </contour>
    <contour>
      <point x="482" y="0" type="line"/>
      <point x="585" y="512" type="line"/>
      <point x="640" y="512" type="line"/>
      <point x="537" y="0" type="line"/>
    </contour>
    <contour>
      <point x="43" y="0" type="line"/>
      <point x="145" y="512" type="line"/>
      <point x="200" y="512" type="line"/>
      <point x="161" y="315" type="line"/>
      <point x="283" y="315" type="line" smooth="yes"/>
      <point x="359" y="315"/>
      <point x="425" y="251"/>
      <point x="425" y="192" type="qcurve" smooth="yes"/>
      <point x="425" y="113"/>
      <point x="381" y="61" type="qcurve" smooth="yes"/>
      <point x="330" y="0"/>
      <point x="237" y="0" type="qcurve" smooth="yes"/>
    </contour>
  </outline>
</glyph>
<glyph name="afii10095" format="2">
  <advance width="495"/>
  <unicode hex="044D"/>
  <outline>
    <contour>
      <point x="188" y="-12" type="qcurve" smooth="yes"/>
      <point x="120" y="-12"/>
      <point x="30" y="59"/>
      <point x="15" y="117" type="qcurve"/>
      <point x="61" y="137" type="line"/>
      <point x="74" y="88"/>
      <point x="142" y="37"/>
      <point x="190" y="37" type="qcurve" smooth="yes"/>
      <point x="260" y="37"/>
      <point x="351" y="127"/>
      <point x="367" y="206" type="qcurve" smooth="yes"/>
      <point x="373" y="235" type="line"/>
      <point x="144" y="235" type="line"/>
      <point x="154" y="282" type="line"/>
      <point x="382" y="282" type="line"/>
      <point x="386" y="305"/>
      <point x="386" y="329" type="qcurve" smooth="yes"/>
      <point x="386" y="392"/>
      <point x="323" y="475"/>
      <point x="253" y="475" type="qcurve" smooth="yes"/>
      <point x="204" y="475"/>
      <point x="133" y="435"/>
      <point x="103" y="393" type="qcurve"/>
      <point x="68" y="423" type="line"/>
      <point x="137" y="524"/>
      <point x="259" y="524" type="qcurve" smooth="yes"/>
      <point x="348" y="524"/>
      <point x="440" y="410"/>
      <point x="440" y="318" type="qcurve" smooth="yes"/>
      <point x="440" y="182"/>
      <point x="374" y="85" type="qcurve"/>
      <point x="304" y="-12"/>
    </contour>
  </outline>
</glyph>
<glyph name="afii10099" format="2">
  <advance width="559"/>
  <unicode hex="0452"/>
  <outline>
    <contour>
      <point x="234" y="-200" type="line"/>
      <point x="244" y="-151" type="line"/>
      <point x="328" y="-151" type="line"/>
      <point x="422" y="319" type="line" smooth="yes"/>
      <point x="427" y="346"/>
      <point x="427" y="376" type="qcurve" smooth="yes"/>
      <point x="427" y="474"/>
      <point x="335" y="474" type="qcurve" smooth="yes"/>
      <point x="275" y="474"/>
      <point x="225" y="425" type="qcurve"/>
      <point x="177" y="375"/>
      <point x="159" y="297" type="qcurve"/>
      <point x="99" y="0" type="line"/>
      <point x="44" y="0" type="line"/>
      <point x="168" y="617" type="line"/>
      <point x="104" y="617" type="line"/>
      <point x="113" y="661" type="line"/>
      <point x="177" y="661" type="line"/>
      <point x="192" y="740" type="line"/>
      <point x="248" y="740" type="line"/>
      <point x="232" y="661" type="line"/>
      <point x="383" y="661" type="line"/>
      <point x="374" y="617" type="line"/>
      <point x="223" y="617" type="line"/>
      <point x="181" y="409" type="line"/>
      <point x="185" y="409" type="line"/>
      <point x="214" y="467"/>
      <point x="293" y="524"/>
      <point x="351" y="524" type="qcurve" smooth="yes"/>
      <point x="417" y="524"/>
      <point x="484" y="451"/>
      <point x="484" y="385" type="qcurve" smooth="yes"/>
      <point x="484" y="357"/>
      <point x="477" y="319" type="qcurve" smooth="yes"/>
      <point x="388" y="-125" type="line" smooth="yes"/>
      <point x="380" y="-164"/>
      <point x="342" y="-200"/>
      <point x="303" y="-200" type="qcurve" smooth="yes"/>
    </contour>
  </outline>
</glyph>
<glyph name="afii10101" format="2">
  <advance width="493"/>
  <unicode hex="0454"/>
  <outline>
    <contour>
      <point x="233" y="-12" type="qcurve" smooth="yes"/>
      <point x="145" y="-12"/>
      <point x="54" y="103"/>
      <point x="54" y="194" type="qcurve" smooth="yes"/>
      <point x="54" y="331"/>
      <point x="119" y="427" type="qcurve"/>
      <point x="188" y="524"/>
      <point x="304" y="524" type="qcurve" smooth="yes"/>
      <point x="372" y="524"/>
      <point x="456" y="459"/>
      <point x="469" y="405" type="qcurve"/>
      <point x="423" y="386" type="line"/>
      <point x="398" y="475"/>
      <point x="302" y="475" type="qcurve" smooth="yes"/>
      <point x="232" y="475"/>
      <point x="143" y="386"/>
      <point x="127" y="307" type="qcurve" smooth="yes"/>
      <point x="122" y="282" type="line"/>
      <point x="353" y="282" type="line"/>
      <point x="343" y="235" type="line"/>
      <point x="113" y="235" type="line"/>
      <point x="109" y="207"/>
      <point x="109" y="184" type="qcurve" smooth="yes"/>
      <point x="109" y="120"/>
      <point x="171" y="37"/>
      <point x="238" y="37" type="qcurve" smooth="yes"/>
      <point x="286" y="37"/>
      <point x="358" y="87"/>
      <point x="390" y="141" type="qcurve"/>
      <point x="435" y="119" type="line"/>
      <point x="360" y="-12"/>
    </contour>
  </outline>
</glyph>
<glyph name="u0456" format="2">
  <advance width="254"/>
  <unicode hex="0456"/>
  <outline>
    <contour>
      <point x="105" y="0" type="line" smooth="yes"/>
      <point x="54" y="0"/>
      <point x="54" y="46" type="qcurve" smooth="yes"/>
      <point x="54" y="58"/>
      <point x="56" y="64"/>
      <point x="146" y="512" type="qcurve"/>
      <point x="201" y="512" type="line"/>
      <point x="108" y="49" type="line"/>
      <point x="186" y="49" type="line"/>
      <point x="176" y="0" type="line"/>
    </contour>
    <contour>
      <point x="204" y="651" type="qcurve" smooth="yes"/>
      <point x="170" y="651"/>
      <point x="170" y="679" type="qcurve"/>
      <point x="173" y="701" type="line"/>
      <point x="179" y="733"/>
      <point x="216" y="733" type="qcurve" smooth="yes"/>
      <point x="250" y="733"/>
      <point x="250" y="705" type="qcurve" smooth="yes"/>
      <point x="250" y="698" type="line"/>
      <point x="247" y="683" type="line"/>
      <point x="242" y="651"/>
    </contour>
  </outline>
</glyph>
<glyph name="afii10105" format="2">
  <advance width="244"/>
  <unicode hex="0458"/>
  <outline>
    <contour>
      <point x="203" y="651" type="qcurve" smooth="yes"/>
      <point x="170" y="651"/>
      <point x="170" y="679" type="qcurve"/>
      <point x="173" y="701" type="line"/>
      <point x="180" y="733"/>
      <point x="217" y="733" type="qcurve" smooth="yes"/>
      <point x="250" y="733"/>
      <point x="250" y="705" type="qcurve" smooth="yes"/>
      <point x="250" y="698" type="line"/>
      <point x="247" y="683" type="line" smooth="yes"/>
      <point x="241" y="651"/>
    </contour>
    <contour>
      <point x="-81" y="-200" type="line"/>
      <point x="-71" y="-151" type="line"/>
      <point x="13" y="-151" type="line"/>
      <point x="145" y="512" type="line"/>
      <point x="200" y="512" type="line"/>
      <point x="73" y="-125" type="line" smooth="yes"/>
      <point x="65" y="-164"/>
      <point x="28" y="-200"/>
      <point x="-12" y="-200" type="qcurve" smooth="yes"/>
    </contour>
  </outline>
</glyph>
<glyph name="ljecyr" format="2">
  <advance width="748"/>
  <unicode hex="0459"/>
  <outline>
    <contour>
      <point x="501" y="49" type="line" smooth="yes"/>
      <point x="609" y="49"/>
      <point x="628" y="142" type="qcurve"/>
      <point x="635" y="169"/>
      <point x="635" y="193" type="qcurve" smooth="yes"/>
      <point x="635" y="230"/>
      <point x="592" y="266"/>
      <point x="539" y="266" type="qcurve" smooth="yes"/>
      <point x="415" y="266" type="line"/>
      <point x="371" y="49" type="line"/>
    </contour>
    <contour>
      <point x="307" y="0" type="line"/>
      <point x="399" y="463" type="line"/>
      <point x="225" y="463" type="line"/>
      <point x="207" y="372" type="line" smooth="yes"/>
      <point x="152" y="109"/>
      <point x="73" y="33" type="qcurve" smooth="yes"/>
      <point x="53" y="13"/>
      <point x="14" y="0"/>
      <point x="-12" y="0" type="qcurve" smooth="yes"/>
      <point x="-47" y="0" type="line"/>
      <point x="-37" y="49" type="line"/>
      <point x="24" y="49" type="line"/>
      <point x="106" y="140"/>
      <point x="153" y="369" type="qcurve" smooth="yes"/>
      <point x="182" y="512" type="line"/>
      <point x="464" y="512" type="line"/>
      <point x="425" y="315" type="line"/>
      <point x="547" y="315" type="line" smooth="yes"/>
      <point x="623" y="315"/>
      <point x="690" y="251"/>
      <point x="690" y="192" type="qcurve" smooth="yes"/>
      <point x="690" y="114"/>
      <point x="645" y="61" type="qcurve" smooth="yes"/>
      <point x="594" y="0"/>
      <point x="501" y="0" type="qcurve" smooth="yes"/>
    </contour>
  </outline>
</glyph>
<glyph name="afii10195" format="2">
  <advance width="544"/>
  <unicode hex="0473"/>
  <outline>
    <contour>
      <point x="231" y="-12" type="qcurve" smooth="yes"/>
      <point x="150" y="-12"/>
      <point x="53" y="95"/>
      <point x="53" y="188" type="qcurve" smooth="yes"/>
      <point x="53" y="322"/>
      <point x="123" y="423" type="qcurve" smooth="yes"/>
      <point x="156" y="470"/>
      <point x="253" y="524"/>
      <point x="313" y="524" type="qcurve" smooth="yes"/>
      <point x="394" y="524"/>
      <point x="491" y="417"/>
      <point x="491" y="324" type="qcurve" smooth="yes"/>
      <point x="491" y="191"/>
      <point x="422" y="90" type="qcurve"/>
      <point x="388" y="43"/>
      <point x="291" y="-12"/>
    </contour>
    <contour>
      <point x="432" y="283" type="line"/>
      <point x="437" y="308"/>
      <point x="437" y="338" type="qcurve" smooth="yes"/>
      <point x="437" y="397"/>
      <point x="371" y="475"/>
      <point x="306" y="475" type="qcurve" smooth="yes"/>
      <point x="173" y="475"/>
      <point x="125" y="292" type="qcurve"/>
      <point x="123" y="283" type="line"/>
    </contour>
    <contour>
      <point x="238" y="37" type="qcurve" smooth="yes"/>
      <point x="378" y="37"/>
      <point x="423" y="239" type="qcurve"/>
      <point x="114" y="239" type="line"/>
      <point x="107" y="204"/>
      <point x="107" y="174" type="qcurve" smooth="yes"/>
      <point x="107" y="115"/>
      <point x="173" y="37"/>
    </contour>
  </outline>
</glyph>
<glyph name="u0495" format="2">
  <advance width="517"/>
  <unicode hex="0495"/>
  <outline>
    <contour>
      <point x="194" y="-200" type="line"/>
      <point x="204" y="-151" type="line"/>
      <point x="288" y="-151" type="line"/>
      <point x="329" y="-119"/>
      <point x="355" y="5" type="qcurve" smooth="yes"/>
      <point x="376" y="110" type="line" smooth="yes"/>
      <point x="383" y="143"/>
      <point x="383" y="167" type="qcurve"/>
      <point x="379" y="240"/>
      <point x="289" y="240" type="qcurve" smooth="yes"/>
      <point x="217" y="240"/>
      <point x="170" y="194" type="qcurve" smooth="yes"/>
      <point x="127" y="150"/>
      <point x="119" y="105" type="qcurve"/>
      <point x="98" y="0" type="line"/>
      <point x="43" y="0" type="line"/>
      <point x="145" y="512" type="line"/>
      <point x="441" y="512" type="line"/>
      <point x="431" y="463" type="line"/>
      <point x="191" y="463" type="line"/>
      <point x="138" y="199" type="line"/>
      <point x="142" y="199" type="line"/>
      <point x="174" y="245"/>
      <point x="250" y="290"/>
      <point x="305" y="290" type="qcurve" smooth="yes"/>
      <point x="369" y="290"/>
      <point x="438" y="224"/>
      <point x="438" y="178" type="qcurve" smooth="yes"/>
      <point x="438" y="147"/>
      <point x="431" y="111" type="qcurve" smooth="yes"/>
      <point x="408" y="-5" type="line" smooth="yes"/>
      <point x="385" y="-115"/>
      <point x="309" y="-200"/>
      <point x="251" y="-200" type="qcurve" smooth="yes"/>
    </contour>
  </outline>
</glyph>
<glyph name="u0497" format="2">
  <advance width="744"/>
  <unicode hex="0497"/>
  <outline>
    <contour>
      <point x="584" y="-140" type="line"/>
      <point x="612" y="0" type="line"/>
      <point x="600" y="0" type="line" smooth="yes"/>
      <point x="555" y="0"/>
      <point x="511" y="60"/>
      <point x="511" y="138" type="qcurve" smooth="yes"/>
      <point x="511" y="195"/>
      <point x="521" y="243" type="qcurve"/>
      <point x="394" y="243" type="line"/>
      <point x="345" y="0" type="line"/>
      <point x="290" y="0" type="line"/>
      <point x="339" y="243" type="line"/>
      <point x="213" y="243" type="line"/>
      <point x="186" y="108"/>
      <point x="109" y="0"/>
      <point x="50" y="0" type="qcurve" smooth="yes"/>
      <point x="-10" y="0" type="line"/>
      <point x="0" y="49" type="line"/>
      <point x="85" y="49" type="line"/>
      <point x="104" y="68"/>
      <point x="145" y="161"/>
      <point x="163" y="249" type="qcurve" smooth="yes"/>
      <point x="179" y="329"/>
      <point x="179" y="384" type="qcurve" smooth="yes"/>
      <point x="179" y="443"/>
      <point x="165" y="463" type="qcurve"/>
      <point x="93" y="463" type="line"/>
      <point x="103" y="512" type="line"/>
      <point x="143" y="512" type="line" smooth="yes"/>
      <point x="187" y="512"/>
      <point x="231" y="454"/>
      <point x="231" y="382" type="qcurve" smooth="yes"/>
      <point x="231" y="345"/>
      <point x="222" y="289" type="qcurve"/>
      <point x="348" y="289" type="line"/>
      <point x="392" y="512" type="line"/>
      <point x="447" y="512" type="line"/>
      <point x="403" y="289" type="line"/>
      <point x="529" y="289" type="line"/>
      <point x="557" y="415"/>
      <point x="630" y="512"/>
      <point x="688" y="512" type="qcurve" smooth="yes"/>
      <point x="739" y="512" type="line"/>
      <point x="729" y="463" type="line"/>
      <point x="652" y="463" type="line"/>
      <point x="607" y="417"/>
      <point x="578" y="273" type="qcurve" smooth="yes"/>
      <point x="562" y="190"/>
      <point x="562" y="136" type="qcurve" smooth="yes"/>
      <point x="562" y="70"/>
      <point x="578" y="49" type="qcurve"/>
      <point x="674" y="49" type="line"/>
      <point x="635" y="-140" type="line"/>
    </contour>
  </outline>
</glyph>
<glyph name="Zetailcyr" format="2">
  <advance width="565"/>
  <unicode hex="0498"/>
  <outline>
    <contour>
      <point x="176" y="-150" type="line"/>
      <point x="203" y="-10" type="line"/>
      <point x="75" y="3"/>
      <point x="15" y="105" type="qcurve"/>
      <point x="61" y="138" type="line"/>
      <point x="121" y="40"/>
      <point x="245" y="40" type="qcurve" smooth="yes"/>
      <point x="314" y="40"/>
      <point x="410" y="106"/>
      <point x="424" y="170" type="qcurve" smooth="yes"/>
      <point x="430" y="201"/>
      <point x="430" y="220" type="qcurve" smooth="yes"/>
      <point x="430" y="272"/>
      <point x="363" y="331"/>
      <point x="295" y="331" type="qcurve" smooth="yes"/>
      <point x="193" y="331" type="line"/>
      <point x="203" y="383" type="line"/>
      <point x="296" y="383" type="line" smooth="yes"/>
      <point x="373" y="383"/>
      <point x="462" y="449"/>
      <point x="474" y="507" type="qcurve" smooth="yes"/>
      <point x="479" y="532"/>
      <point x="479" y="551" type="qcurve"/>
      <point x="474" y="658"/>
      <point x="346" y="658" type="qcurve" smooth="yes"/>
      <point x="220" y="658"/>
      <point x="163" y="568" type="qcurve"/>
      <point x="123" y="602" type="line"/>
      <point x="199" y="710"/>
      <point x="352" y="710" type="qcurve" smooth="yes"/>
      <point x="441" y="710"/>
      <point x="542" y="628"/>
      <point x="542" y="554" type="qcurve" smooth="yes"/>
      <point x="542" y="477"/>
      <point x="456" y="377"/>
      <point x="382" y="359" type="qcurve"/>
      <point x="381" y="355" type="line"/>
      <point x="492" y="329"/>
      <point x="492" y="219" type="qcurve" smooth="yes"/>
      <point x="492" y="117"/>
      <point x="363" y="-7"/>
      <point x="257" y="-12" type="qcurve"/>
      <point x="230" y="-150" type="line"/>
    </contour>
  </outline>
</glyph>
<glyph name="katailcyr" format="2">
  <advance width="527"/>
  <unicode hex="049B"/>
  <outline>
    <contour>
      <point x="374" y="-140" type="line"/>
      <point x="402" y="0" type="line"/>
      <point x="392" y="0" type="line" smooth="yes"/>
      <point x="364" y="0"/>
      <point x="334" y="26"/>
      <point x="323" y="55" type="qcurve"/>
      <point x="243" y="243" type="line"/>
      <point x="146" y="243" type="line"/>
      <point x="98" y="0" type="line"/>
      <point x="43" y="0" type="line"/>
      <point x="145" y="512" type="line"/>
      <point x="200" y="512" type="line"/>
      <point x="156" y="290" type="line"/>
      <point x="252" y="290" type="line"/>
      <point x="408" y="476" type="line" smooth="yes"/>
      <point x="425" y="496"/>
      <point x="456" y="512"/>
      <point x="478" y="512" type="qcurve" smooth="yes"/>
      <point x="525" y="512" type="line"/>
      <point x="515" y="463" type="line"/>
      <point x="457" y="463" type="line"/>
      <point x="321" y="301" type="line" smooth="yes"/>
      <point x="307" y="284"/>
      <point x="285" y="270"/>
      <point x="271" y="268" type="qcurve"/>
      <point x="270" y="264" type="line"/>
      <point x="285" y="261"/>
      <point x="304" y="241"/>
      <point x="313" y="218" type="qcurve" smooth="yes"/>
      <point x="384" y="49" type="line"/>
      <point x="463" y="49" type="line"/>
      <point x="425" y="-140" type="line"/>
    </contour>
  </outline>
</glyph>
<glyph name="Kaverticalstrokecyrillic" format="2">
  <advance width="646"/>
  <unicode hex="049C"/>
  <outline>
    <contour>
      <point x="506" y="0" type="line" smooth="yes"/>
      <point x="464" y="0"/>
      <point x="447" y="47" type="qcurve"/>
      <point x="332" y="329" type="line"/>
      <point x="279" y="329" type="line"/>
      <point x="247" y="169" type="line"/>
      <point x="203" y="169" type="line"/>
      <point x="235" y="329" type="line"/>
      <point x="167" y="329" type="line"/>
      <point x="102" y="0" type="line"/>
      <point x="44" y="0" type="line"/>
      <point x="184" y="698" type="line"/>
      <point x="242" y="698" type="line"/>
      <point x="178" y="380" type="line"/>
      <point x="245" y="380" type="line"/>
      <point x="277" y="541" type="line"/>
      <point x="321" y="541" type="line"/>
      <point x="289" y="380" type="line"/>
      <point x="342" y="380" type="line"/>
      <point x="546" y="653" type="line" smooth="yes"/>
      <point x="566" y="679"/>
      <point x="599" y="698"/>
      <point x="622" y="698" type="qcurve" smooth="yes"/>
      <point x="672" y="698" type="line"/>
      <point x="662" y="646" type="line"/>
      <point x="604" y="646" type="line"/>
      <point x="416" y="395" type="line" smooth="yes"/>
      <point x="401" y="375"/>
      <point x="377" y="359"/>
      <point x="362" y="356" type="qcurve"/>
      <point x="361" y="352" type="line"/>
      <point x="375" y="347"/>
      <point x="392" y="328"/>
      <point x="400" y="310" type="qcurve"/>
      <point x="506" y="52" type="line"/>
      <point x="563" y="52" type="line"/>
      <point x="553" y="0" type="line"/>
    </contour>
  </outline>
</glyph>
<glyph name="u049D" format="2">
  <advance width="547"/>
  <unicode hex="049D"/>
  <outline>
    <contour>
      <point x="418" y="0" type="line" smooth="yes"/>
      <point x="391" y="0"/>
      <point x="361" y="26"/>
      <point x="350" y="55" type="qcurve" smooth="yes"/>
      <point x="275" y="243" type="line"/>
      <point x="237" y="243" type="line"/>
      <point x="212" y="119" type="line"/>
      <point x="169" y="119" type="line"/>
      <point x="194" y="243" type="line"/>
      <point x="146" y="243" type="line"/>
      <point x="98" y="0" type="line"/>
      <point x="43" y="0" type="line"/>
      <point x="145" y="512" type="line"/>
      <point x="200" y="512" type="line"/>
      <point x="156" y="290" type="line"/>
      <point x="203" y="290" type="line"/>
      <point x="228" y="413" type="line"/>
      <point x="271" y="413" type="line"/>
      <point x="246" y="290" type="line"/>
      <point x="284" y="290" type="line"/>
      <point x="433" y="474" type="line" smooth="yes"/>
      <point x="450" y="495"/>
      <point x="482" y="512"/>
      <point x="504" y="512" type="qcurve" smooth="yes"/>
      <point x="552" y="512" type="line"/>
      <point x="542" y="463" type="line"/>
      <point x="484" y="463" type="line"/>
      <point x="355" y="305" type="line"/>
      <point x="340" y="285"/>
      <point x="317" y="270"/>
      <point x="303" y="268" type="qcurve"/>
      <point x="302" y="264" type="line"/>
      <point x="315" y="262"/>
      <point x="334" y="243"/>
      <point x="343" y="217" type="qcurve"/>
      <point x="410" y="49" type="line"/>
      <point x="466" y="49" type="line"/>
      <point x="456" y="0" type="line"/>
    </contour>
  </outline>
</glyph>
